G04 DesignSpark PCB Gerber Version 11.0 Build 5877*
%FSLAX35Y35*%
%MOIN*%
%ADD86R,0.05315X0.05315*%
%ADD21R,0.06000X0.06000*%
%ADD18R,0.06496X0.06496*%
%ADD15C,0.00800*%
%ADD11C,0.01000*%
%ADD10C,0.01200*%
%ADD14C,0.03200*%
%ADD13C,0.04000*%
%ADD87C,0.05315*%
%ADD83C,0.05500*%
%ADD20C,0.06000*%
%ADD19C,0.06496*%
X0Y0D02*
D02*
D10*
X2937Y2652D02*
X114222D01*
Y33756D01*
X172053D01*
Y147229D01*
X2937D01*
Y2652D01*
X5137Y145029D02*
Y4852D01*
X6969D01*
G75*
G02*
X5900Y7800I3531J2948D01*
G01*
G75*
G02*
X15100I4600J0D01*
G01*
G75*
G02*
X14031Y4852I-4600J0D01*
G01*
X67650D01*
G75*
G02*
X67441Y10530I2850J2948D01*
G01*
X64365D01*
G75*
G02*
X63302Y10970I-2J1500D01*
G01*
X57972Y16300D01*
X14316D01*
G75*
G02*
X6400Y17800I-3816J1500D01*
G01*
G75*
G02*
X14316Y19300I4100J0D01*
G01*
X58591D01*
G75*
G02*
X59488Y19004I2J-1500D01*
G01*
X54832Y23659D01*
X13099D01*
G75*
G02*
X12110Y24030I-2J1500D01*
G01*
G75*
G02*
X6400Y27800I-1610J3770D01*
G01*
G75*
G02*
X14600I4100J0D01*
G01*
G75*
G02*
X14438Y26659I-4100J0D01*
G01*
X55451D01*
G75*
G02*
X56514Y26220I2J-1500D01*
G01*
X66904Y15830D01*
G75*
G02*
X67444Y20533I3596J1970D01*
G01*
X64678D01*
G75*
G02*
X63615Y20973I-2J1500D01*
G01*
X53894Y30693D01*
X17006D01*
G75*
G02*
X15943Y31132I-2J1500D01*
G01*
X12722Y34354D01*
G75*
G02*
X6400Y37800I-2222J3446D01*
G01*
G75*
G02*
X14600I4100J0D01*
G01*
G75*
G02*
X14485Y36834I-4099J0D01*
G01*
X17625Y33693D01*
X54513D01*
G75*
G02*
X55411Y33396I2J-1500D01*
G01*
X53269Y35538D01*
X21070D01*
G75*
G02*
X20007Y35978I-2J1500D01*
G01*
X12000Y43984D01*
G75*
G02*
X6400Y47800I-1500J3816D01*
G01*
G75*
G02*
X14600I4100J0D01*
G01*
G75*
G02*
X14198Y46029I-4100J0D01*
G01*
X21689Y38538D01*
X53888D01*
G75*
G02*
X54951Y38099I2J-1500D01*
G01*
X66644Y26406D01*
G75*
G02*
X67447Y30537I3856J1394D01*
G01*
X63896D01*
G75*
G02*
X62833Y30976I-2J1500D01*
G01*
X54051Y39758D01*
X25759D01*
G75*
G02*
X24696Y40198I-2J1500D01*
G01*
X11143Y53751D01*
G75*
G02*
X6400Y57800I-643J4049D01*
G01*
G75*
G02*
X14600I4100J0D01*
G01*
G75*
G02*
X13787Y55349I-4100J0D01*
G01*
X26378Y42758D01*
X33293D01*
X12048Y64004D01*
G75*
G02*
X6400Y67800I-1548J3796D01*
G01*
G75*
G02*
X14600I4100J0D01*
G01*
G75*
G02*
X14219Y66075I-4100J0D01*
G01*
X35504Y44790D01*
X56545D01*
G75*
G02*
X57608Y44351I2J-1500D01*
G01*
X66859Y35100D01*
X67415D01*
G75*
G02*
X67450Y40540I3085J2700D01*
G01*
X64678D01*
G75*
G02*
X63615Y40979I-2J1500D01*
G01*
X58583Y46010D01*
X41858D01*
G75*
G02*
X40795Y46450I-2J1500D01*
G01*
X30762Y56482D01*
X28572D01*
G75*
G02*
X27509Y56922I-2J1500D01*
G01*
X10725Y73706D01*
G75*
G02*
X6400Y77800I-225J4094D01*
G01*
G75*
G02*
X14600I4100J0D01*
G01*
G75*
G02*
X13580Y75094I-4100J0D01*
G01*
X29191Y59482D01*
X31381D01*
G75*
G02*
X32444Y59043I2J-1500D01*
G01*
X42477Y49010D01*
X42694D01*
G75*
G02*
X42358Y49263I725J1314D01*
G01*
X19069Y72552D01*
G75*
G02*
X18630Y73612I1061J1061D01*
G01*
Y77524D01*
X12120Y84033D01*
G75*
G02*
X6400Y87800I-1620J3767D01*
G01*
G75*
G02*
X14600I4100J0D01*
G01*
G75*
G02*
X14251Y86145I-4100J0D01*
G01*
X20818Y79578D01*
Y95456D01*
X12204Y104071D01*
G75*
G02*
X6400Y107800I-1704J3729D01*
G01*
G75*
G02*
X14600I4100J0D01*
G01*
G75*
G02*
X14287Y106230I-4100J0D01*
G01*
X23379Y97138D01*
G75*
G02*
X23818Y96078I-1061J-1061D01*
G01*
Y78297D01*
X27383Y74733D01*
Y109721D01*
X19821Y117283D01*
X14567D01*
G75*
G02*
X6400Y117800I-4067J517D01*
G01*
G75*
G02*
X13763Y120283I4100J0D01*
G01*
X20440D01*
G75*
G02*
X20987Y120180I3J-1500D01*
G01*
X14868Y126300D01*
X14316D01*
G75*
G02*
X6400Y127800I-3816J1500D01*
G01*
G75*
G02*
X14316Y129300I4100J0D01*
G01*
X15487D01*
G75*
G02*
X16550Y128861I2J-1500D01*
G01*
X39946Y105464D01*
G75*
G02*
X40386Y104403I-1061J-1061D01*
G01*
Y69701D01*
X40406Y69681D01*
G75*
G02*
Y69702I2699J11D01*
G01*
G75*
G02*
X43630Y72350I2700J0D01*
G01*
X54862Y83582D01*
G75*
G02*
X55925Y84021I1061J-1061D01*
G01*
X68909D01*
G75*
G02*
X66400Y87800I1591J3779D01*
G01*
G75*
G02*
X74600I4100J0D01*
G01*
G75*
G02*
X72091Y84021I-4100J0D01*
G01*
X92657D01*
X100477Y91841D01*
G75*
G02*
X100425Y92368I2648J527D01*
G01*
G75*
G02*
X105821Y92503I2700J0D01*
G01*
G75*
G02*
X109107Y89867I586J-2636D01*
G01*
G75*
G02*
X109093Y89596I-2701J2D01*
G01*
G75*
G02*
X112247Y88554I909J-2543D01*
G01*
X113127D01*
G75*
G02*
X112585Y90336I2658J1782D01*
G01*
G75*
G02*
X118985I3200J0D01*
G01*
G75*
G02*
X118443Y88554I-3200J0D01*
G01*
X131416D01*
X150532Y107670D01*
G75*
G02*
X153141Y114352I2609J2831D01*
G01*
G75*
G02*
X153816Y106712I0J-3850D01*
G01*
X133098Y85993D01*
G75*
G02*
X132035Y85554I-1061J1061D01*
G01*
X112247D01*
G75*
G02*
X107302Y87054I-2245J1500D01*
G01*
G75*
G02*
X107316Y87325I2701J-2D01*
G01*
G75*
G02*
X105880Y87219I-909J2543D01*
G01*
X96370Y77709D01*
G75*
G02*
X95307Y77270I-1061J1061D01*
G01*
X86397D01*
X80897Y71770D01*
G75*
G02*
X79834Y71331I-1061J1061D01*
G01*
X72584D01*
G75*
G02*
X73593Y65109I-2084J-3531D01*
G01*
X79524D01*
G75*
G02*
X80587Y64667I0J-1500D01*
G01*
X81021Y64233D01*
X97598D01*
G75*
G02*
X102543Y62733I2245J-1500D01*
G01*
G75*
G02*
X101505Y60605I-2700J0D01*
G01*
G75*
G02*
X102230Y58764I-1974J-1841D01*
G01*
G75*
G02*
X97285Y57264I-2700J0D01*
G01*
X79660D01*
G75*
G02*
X78597Y57703I-2J1500D01*
G01*
X75754Y60546D01*
X73544D01*
G75*
G02*
X73591Y55106I-3044J-2746D01*
G01*
X94306D01*
G75*
G02*
X98166Y52668I1161J-2438D01*
G01*
G75*
G02*
X92825Y52106I-2700J0D01*
G01*
X77145D01*
X81647Y47604D01*
X92752D01*
G75*
G02*
X97325Y44736I2245J-1500D01*
G01*
G75*
G02*
X99202Y40245I-140J-2696D01*
G01*
G75*
G02*
X99327Y36459I-1861J-1957D01*
G01*
G75*
G02*
X99084Y31844I-1517J-2234D01*
G01*
G75*
G02*
X101033Y28484I-649J-2621D01*
G01*
G75*
G02*
X103578Y24728I60J-2699D01*
G01*
G75*
G02*
X106450Y22033I172J-2694D01*
G01*
G75*
G02*
X101505Y20533I-2700J0D01*
G01*
X73556D01*
G75*
G02*
X73580Y15093I-3056J-2733D01*
G01*
X104223D01*
X104228Y15098D01*
G75*
G02*
X104176Y15625I2648J527D01*
G01*
G75*
G02*
X109576I2700J0D01*
G01*
G75*
G02*
X109419Y14717I-2700J0D01*
G01*
G75*
G02*
X112022Y13390I271J-2687D01*
G01*
Y33756D01*
G75*
G02*
X114222Y35956I2200J0D01*
G01*
X161003D01*
G75*
G02*
X159230Y39146I1985J3191D01*
G01*
G75*
G02*
X166745I3757J0D01*
G01*
G75*
G02*
X164972Y35956I-3757J0D01*
G01*
X169853D01*
Y145029D01*
X147064D01*
G75*
G02*
X147894Y142234I-2207J-2176D01*
G01*
X159428Y130700D01*
G75*
G02*
X159898Y129567I-1130J-1133D01*
G01*
Y123402D01*
G75*
G02*
X167491Y120502I3242J-2900D01*
G01*
G75*
G02*
X159898Y117602I-4350J0D01*
G01*
Y116007D01*
X161794Y114109D01*
G75*
G02*
X166991Y110502I1346J-3607D01*
G01*
G75*
G02*
X163141Y106652I-3850J0D01*
G01*
G75*
G02*
X159533Y111846I0J3850D01*
G01*
X157167Y114213D01*
G75*
G02*
X156698Y115344I1132J1131D01*
G01*
Y119031D01*
G75*
G02*
X149291Y120502I-3558J1471D01*
G01*
G75*
G02*
X156698Y121973I3850J0D01*
G01*
Y128905D01*
X145726Y139877D01*
G75*
G02*
X142202Y141253I-869J2976D01*
G01*
X101456D01*
X97126Y136922D01*
G75*
G02*
X97022Y133244I-3990J-1728D01*
G01*
X103944Y126321D01*
X107970D01*
G75*
G02*
X109103Y125851I0J-1600D01*
G01*
X121943Y113012D01*
G75*
G02*
X125050Y110343I407J-2669D01*
G01*
G75*
G02*
X119650I-2700J0D01*
G01*
G75*
G02*
X119680Y110749I2699J0D01*
G01*
X107307Y123121D01*
X103284D01*
G75*
G02*
X102150Y123590I-2J1600D01*
G01*
X94629Y131111D01*
G75*
G02*
X88788Y135195I-1493J4083D01*
G01*
G75*
G02*
X94863Y139185I4348J0D01*
G01*
X99661Y143983D01*
G75*
G02*
X100794Y144453I1133J-1130D01*
G01*
X142202D01*
G75*
G02*
X142649Y145029I2655J-1600D01*
G01*
X5137D01*
X163141Y84852D02*
G75*
G02*
X167491Y80502I0J-4350D01*
G01*
G75*
G02*
X163141Y76152I-4350J0D01*
G01*
G75*
G02*
X158791Y80502I0J4350D01*
G01*
G75*
G02*
X163141Y84852I4350J0D01*
G01*
X159228Y74398D02*
X166744D01*
Y66887D01*
X159228D01*
Y74398D01*
X159230Y47020D02*
G75*
G02*
X166745I3757J0D01*
G01*
G75*
G02*
X159230I-3757J0D01*
G01*
Y54894D02*
G75*
G02*
X166745I3757J0D01*
G01*
G75*
G02*
X159230I-3757J0D01*
G01*
Y62769D02*
G75*
G02*
X166745I3757J0D01*
G01*
G75*
G02*
X159230I-3757J0D01*
G01*
X163141Y94352D02*
G75*
G02*
X166991Y90502I0J-3850D01*
G01*
G75*
G02*
X163141Y86652I-3850J0D01*
G01*
G75*
G02*
X159291Y90502I0J3850D01*
G01*
G75*
G02*
X163141Y94352I3850J0D01*
G01*
Y104352D02*
G75*
G02*
X166991Y100502I0J-3850D01*
G01*
G75*
G02*
X163141Y96652I-3850J0D01*
G01*
G75*
G02*
X159291Y100502I0J3850D01*
G01*
G75*
G02*
X163141Y104352I3850J0D01*
G01*
X112821Y139543D02*
G75*
G02*
X117169Y135195I0J-4348D01*
G01*
G75*
G02*
X112821Y130847I-4348J0D01*
G01*
G75*
G02*
X108473Y135195I0J4348D01*
G01*
G75*
G02*
X112821Y139543I4348J0D01*
G01*
X122663D02*
G75*
G02*
X127011Y135195I0J-4348D01*
G01*
G75*
G02*
X122663Y130847I-4348J0D01*
G01*
G75*
G02*
X118315Y135195I0J4348D01*
G01*
G75*
G02*
X122663Y139543I4348J0D01*
G01*
X127657Y140044D02*
X137354D01*
Y130347D01*
X127657D01*
Y140044D01*
X102978Y139543D02*
G75*
G02*
X107326Y135195I0J-4348D01*
G01*
G75*
G02*
X102978Y130847I-4348J0D01*
G01*
G75*
G02*
X98630Y135195I0J4348D01*
G01*
G75*
G02*
X102978Y139543I4348J0D01*
G01*
X6400Y97800D02*
G75*
G02*
X14600I4100J0D01*
G01*
G75*
G02*
X6400I-4100J0D01*
G01*
X126139Y93087D02*
G75*
G02*
X131083Y91587I2245J-1500D01*
G01*
G75*
G02*
X126139Y90087I-2700J0D01*
G01*
X125478D01*
G75*
G02*
X124415Y90526I-2J1500D01*
G01*
X74213Y140728D01*
X73370D01*
G75*
G02*
X74600Y137800I-2870J-2928D01*
G01*
G75*
G02*
X66725Y136200I-4100J0D01*
G01*
X30901D01*
X27826Y133125D01*
Y128315D01*
G75*
G02*
X29326Y125660I-1600J-2655D01*
G01*
G75*
G02*
X23126I-3100J0D01*
G01*
G75*
G02*
X24626Y128315I3100J0D01*
G01*
Y133787D01*
G75*
G02*
X25096Y134920I1600J0D01*
G01*
X29106Y138930D01*
G75*
G02*
X30238Y139400I1133J-1130D01*
G01*
X66725D01*
G75*
G02*
X67630Y140728I3775J-1600D01*
G01*
X15281D01*
X14598Y140045D01*
Y133702D01*
X6402D01*
Y141898D01*
X12209D01*
X13599Y143288D01*
G75*
G02*
X14662Y143728I1061J-1061D01*
G01*
X74832D01*
G75*
G02*
X75895Y143288I2J-1500D01*
G01*
X126097Y93087D01*
X126139D01*
X85076Y109874D02*
G75*
G02*
X91476I3200J0D01*
G01*
G75*
G02*
X85076I-3200J0D01*
G01*
X41000Y101121D02*
G75*
G02*
X47400I3200J0D01*
G01*
G75*
G02*
X41000I-3200J0D01*
G01*
X66400Y97800D02*
G75*
G02*
X74600I4100J0D01*
G01*
G75*
G02*
X66400I-4100J0D01*
G01*
Y107800D02*
G75*
G02*
X74600I4100J0D01*
G01*
G75*
G02*
X66400I-4100J0D01*
G01*
Y117800D02*
G75*
G02*
X74600I4100J0D01*
G01*
G75*
G02*
X66400I-4100J0D01*
G01*
Y127800D02*
G75*
G02*
X74600I4100J0D01*
G01*
G75*
G02*
X66400I-4100J0D01*
G01*
X153141Y84352D02*
G75*
G02*
X156991Y80502I0J-3850D01*
G01*
G75*
G02*
X153141Y76652I-3850J0D01*
G01*
G75*
G02*
X149291Y80502I0J3850D01*
G01*
G75*
G02*
X153141Y84352I3850J0D01*
G01*
X152285Y44853D02*
G75*
G02*
X158685I3200J0D01*
G01*
G75*
G02*
X152285I-3200J0D01*
G01*
X153141Y94352D02*
G75*
G02*
X156991Y90502I0J-3850D01*
G01*
G75*
G02*
X153141Y86652I-3850J0D01*
G01*
G75*
G02*
X149291Y90502I0J3850D01*
G01*
G75*
G02*
X153141Y94352I3850J0D01*
G01*
Y104352D02*
G75*
G02*
X156991Y100502I0J-3850D01*
G01*
G75*
G02*
X153141Y96652I-3850J0D01*
G01*
G75*
G02*
X149291Y100502I0J3850D01*
G01*
G75*
G02*
X153141Y104352I3850J0D01*
G01*
X115711Y63765D02*
G75*
G02*
X122111I3200J0D01*
G01*
G75*
G02*
X115711I-3200J0D01*
G01*
X5737Y47020D02*
G36*
X5737Y47020D02*
Y5452D01*
X6544D01*
G75*
G02*
X5900Y7799I3953J2347D01*
G01*
G75*
G02*
Y7800I5639J1D01*
G01*
G75*
G02*
X15100I4600J0D01*
G01*
G75*
G02*
Y7799I-5639J0D01*
G01*
G75*
G02*
X14456Y5452I-4597J0D01*
G01*
X67139D01*
G75*
G02*
X66400Y7800I3362J2348D01*
G01*
G75*
G02*
X67441Y10530I4100J0D01*
G01*
X64365D01*
G75*
G02*
X63302Y10970I-2J1501D01*
G01*
X57972Y16300D01*
X14316D01*
G75*
G02*
X6400Y17800I-3816J1500D01*
G01*
G75*
G02*
X14316Y19300I4100J0D01*
G01*
X58591D01*
G75*
G02*
X59488Y19004I3J-1498D01*
G01*
X54832Y23659D01*
X13099D01*
G75*
G02*
X12110Y24030I-2J1501D01*
G01*
G75*
G02*
X6400Y27800I-1610J3771D01*
G01*
G75*
G02*
X14600I4100J0D01*
G01*
G75*
G02*
Y27798I-4511J-1D01*
G01*
G75*
G02*
X14438Y26659I-4090J0D01*
G01*
X55451D01*
G75*
G02*
X56514Y26220I2J-1501D01*
G01*
X66904Y15830D01*
G75*
G02*
X66400Y17800I3596J1970D01*
G01*
G75*
G02*
X67444Y20533I4100J0D01*
G01*
X64678D01*
G75*
G02*
X63615Y20973I-2J1501D01*
G01*
X53894Y30693D01*
X17006D01*
G75*
G02*
X15943Y31132I-2J1501D01*
G01*
X12722Y34354D01*
G75*
G02*
X6400Y37800I-2222J3446D01*
G01*
G75*
G02*
X14600I4100J0D01*
G01*
G75*
G02*
Y37796I-4143J-2D01*
G01*
G75*
G02*
X14485Y36834I-4074J0D01*
G01*
X17625Y33693D01*
X54513D01*
G75*
G02*
X55411Y33396I3J-1498D01*
G01*
X53269Y35538D01*
X21070D01*
G75*
G02*
X20007Y35978I-2J1501D01*
G01*
X12000Y43984D01*
G75*
G02*
X6475Y47020I-1500J3816D01*
G01*
X5737D01*
G37*
X14526D02*
G36*
X14526Y47020D02*
G75*
G02*
X14198Y46029I-4021J779D01*
G01*
X21689Y38538D01*
X53888D01*
G75*
G02*
X54951Y38099I2J-1501D01*
G01*
X66644Y26406D01*
G75*
G02*
X66400Y27800I3855J1394D01*
G01*
G75*
G02*
X67447Y30537I4100J0D01*
G01*
X63896D01*
G75*
G02*
X62833Y30976I-2J1501D01*
G01*
X54051Y39758D01*
X25759D01*
G75*
G02*
X24696Y40198I-2J1501D01*
G01*
X17873Y47020D01*
X14526D01*
G37*
X22116D02*
G36*
X22116Y47020D02*
X26378Y42758D01*
X33293D01*
X29031Y47020D01*
X22116D01*
G37*
X33274D02*
G36*
X33274Y47020D02*
X35504Y44790D01*
X56545D01*
G75*
G02*
X57608Y44351I2J-1501D01*
G01*
X66859Y35100D01*
X67415D01*
G75*
G02*
X66400Y37800I3085J2700D01*
G01*
G75*
G02*
X67450Y40540I4099J0D01*
G01*
X64678D01*
G75*
G02*
X63615Y40979I-2J1501D01*
G01*
X58583Y46010D01*
X41858D01*
G75*
G02*
X40795Y46450I-2J1501D01*
G01*
X40224Y47020D01*
X33274D01*
G37*
X74600Y17800D02*
G36*
X74600Y17800D02*
G75*
G02*
X73580Y15093I-4100J0D01*
G01*
X104223D01*
X104228Y15098D01*
G75*
G02*
X104176Y15625I2640J526D01*
G01*
Y15625D01*
G75*
G02*
X109576I2700J0D01*
G01*
G75*
G02*
X109419Y14717I-2708J1D01*
G01*
G75*
G02*
X112022Y13390I271J-2686D01*
G01*
Y33756D01*
G75*
G02*
X114222Y35956I2200J0D01*
G01*
X161003D01*
G75*
G02*
X159230Y39146I1985J3191D01*
G01*
G75*
G02*
X166745I3757J0D01*
G01*
G75*
G02*
X164972Y35956I-3757J0D01*
G01*
X169253D01*
Y47020D01*
X166745D01*
G75*
G02*
X159230I-3757J0D01*
G01*
X157839D01*
G75*
G02*
X158685Y44853I-2354J-2167D01*
G01*
G75*
G02*
X152285I-3200J0D01*
G01*
G75*
G02*
X153131Y47020I3200J0D01*
G01*
X97537D01*
G75*
G02*
X97697Y46104I-2539J-916D01*
G01*
G75*
G02*
X97325Y44736I-2700J0D01*
G01*
G75*
G02*
X99885Y42040I-140J-2696D01*
G01*
G75*
G02*
X99202Y40245I-2700J0D01*
G01*
G75*
G02*
X100042Y38288I-1861J-1957D01*
G01*
G75*
G02*
X99327Y36459I-2700J0D01*
G01*
G75*
G02*
X100510Y34225I-1517J-2234D01*
G01*
G75*
G02*
X99084Y31844I-2700J0D01*
G01*
G75*
G02*
X101136Y29223I-648J-2621D01*
G01*
G75*
G02*
X101033Y28484I-2700J0D01*
G01*
G75*
G02*
X103793Y25785I60J-2699D01*
G01*
G75*
G02*
X103578Y24728I-2700J0D01*
G01*
G75*
G02*
X106450Y22033I172J-2694D01*
G01*
Y22033D01*
G75*
G02*
X101505Y20533I-2700J0D01*
G01*
X73556D01*
G75*
G02*
X74600Y17800I-3056J-2733D01*
G01*
G37*
X5737Y54894D02*
G36*
X5737Y54894D02*
Y47020D01*
X6475D01*
G75*
G02*
X6400Y47800I4026J780D01*
G01*
G75*
G02*
X14600I4100J0D01*
G01*
G75*
G02*
Y47798I-4749J-1D01*
G01*
G75*
G02*
X14526Y47020I-4095J-1D01*
G01*
X17873D01*
X11143Y53751D01*
G75*
G02*
X7607Y54894I-643J4049D01*
G01*
X5737D01*
G37*
X21157D02*
G36*
X21157Y54894D02*
X14242D01*
X22116Y47020D01*
X29031D01*
X21157Y54894D01*
G37*
X32350D02*
G36*
X32350Y54894D02*
X25400D01*
X33274Y47020D01*
X40224D01*
X32350Y54894D01*
G37*
X36726D02*
G36*
X36726Y54894D02*
X36593D01*
X42477Y49010D01*
X42694D01*
G75*
G02*
X42358Y49263I720J1308D01*
G01*
X36726Y54894D01*
G37*
X77145Y52106D02*
G36*
X77145Y52106D02*
X81647Y47604D01*
X92752D01*
G75*
G02*
X97537Y47020I2245J-1500D01*
G01*
X153131D01*
G75*
G02*
X157839I2354J-2167D01*
G01*
X159230D01*
G75*
G02*
X166745I3757J0D01*
G01*
X169253D01*
Y54894D01*
X166745D01*
G75*
G02*
X159230I-3757J0D01*
G01*
X96994D01*
G75*
G02*
X98166Y52669I-1528J-2226D01*
G01*
Y52668D01*
G75*
G02*
X92825Y52106I-2700J0D01*
G01*
X77145D01*
G37*
X5737Y62769D02*
G36*
X5737Y62769D02*
Y54894D01*
X7607D01*
G75*
G02*
X6400Y57800I2893J2906D01*
G01*
G75*
G02*
X14600I4100J0D01*
G01*
G75*
G02*
X13787Y55349I-4103J1D01*
G01*
X14242Y54894D01*
X21157D01*
X13283Y62769D01*
X5737D01*
G37*
X21663D02*
G36*
X21663Y62769D02*
X17526D01*
X25400Y54894D01*
X32350D01*
X30762Y56482D01*
X28572D01*
G75*
G02*
X27509Y56922I-2J1501D01*
G01*
X21663Y62769D01*
G37*
X28852D02*
G36*
X28852Y62769D02*
X25905D01*
X29191Y59482D01*
X31381D01*
G75*
G02*
X32444Y59043I2J-1501D01*
G01*
X36593Y54894D01*
X36726D01*
X28852Y62769D01*
G37*
X74600Y57800D02*
G36*
X74600Y57800D02*
G75*
G02*
X73591Y55106I-4100J0D01*
G01*
X94306D01*
G75*
G02*
X96994Y54894I1161J-2437D01*
G01*
X159230D01*
G75*
G02*
X166745I3757J0D01*
G01*
X169253D01*
Y62769D01*
X166745D01*
G75*
G02*
X159230I-3757J0D01*
G01*
X121952D01*
G75*
G02*
X115870I-3041J997D01*
G01*
X102542D01*
G75*
G02*
X102543Y62733I-2691J-48D01*
G01*
Y62733D01*
Y62733D01*
G75*
G02*
X101505Y60605I-2700J0D01*
G01*
G75*
G02*
X102230Y58764I-1975J-1841D01*
G01*
Y58763D01*
G75*
G02*
X97285Y57264I-2700J0D01*
G01*
X79660D01*
G75*
G02*
X78597Y57703I-2J1501D01*
G01*
X75754Y60546D01*
X73544D01*
G75*
G02*
X74600Y57800I-3046J-2746D01*
G01*
G37*
X5737Y70643D02*
G36*
X5737Y70643D02*
Y62769D01*
X13283D01*
X12048Y64004D01*
G75*
G02*
X6400Y67800I-1548J3796D01*
G01*
Y67800D01*
G75*
G02*
X7545Y70643I4100J0D01*
G01*
X5737D01*
G37*
X13789D02*
G36*
X13789Y70643D02*
X13455D01*
G75*
G02*
X14600Y67800I-2955J-2843D01*
G01*
G75*
G02*
X14219Y66075I-4104J1D01*
G01*
X17526Y62769D01*
X21663D01*
X13789Y70643D01*
G37*
X20978D02*
G36*
X20978Y70643D02*
X18031D01*
X25905Y62769D01*
X28852D01*
X20978Y70643D01*
G37*
X40386D02*
G36*
X40386Y70643D02*
Y69701D01*
X40406Y69681D01*
Y69702D01*
G75*
G02*
X40575Y70643I2701J0D01*
G01*
X40386D01*
G37*
X74600Y67800D02*
G36*
X74600Y67800D02*
G75*
G02*
X73593Y65109I-4100J0D01*
G01*
X79524D01*
G75*
G02*
X80587Y64667I0J-1501D01*
G01*
X81021Y64233D01*
X97598D01*
G75*
G02*
X102542Y62769I2245J-1500D01*
G01*
X115870D01*
G75*
G02*
X115711Y63765I3041J996D01*
G01*
G75*
G02*
X122111I3200J0D01*
G01*
G75*
G02*
X121952Y62769I-3200J0D01*
G01*
X159230D01*
G75*
G02*
X166745I3757J0D01*
G01*
X169253D01*
Y70643D01*
X166744D01*
Y66887D01*
X159228D01*
Y70643D01*
X73455D01*
G75*
G02*
X74600Y67800I-2955J-2843D01*
G01*
G37*
X5737Y80502D02*
G36*
X5737Y80502D02*
Y70643D01*
X7545D01*
G75*
G02*
X13455I2955J-2843D01*
G01*
X13789D01*
X10725Y73706D01*
G75*
G02*
X6400Y77800I-225J4094D01*
G01*
G75*
G02*
X7416Y80502I4100J0D01*
G01*
X5737D01*
G37*
X13584D02*
G36*
X13584Y80502D02*
G75*
G02*
X14600Y77800I-3084J-2702D01*
G01*
Y77800D01*
G75*
G02*
X13580Y75094I-4099J0D01*
G01*
X18031Y70643D01*
X20978D01*
X19069Y72552D01*
G75*
G02*
X18630Y73612I1060J1061D01*
G01*
Y77524D01*
X15652Y80502D01*
X13584D01*
G37*
X19894D02*
G36*
X19894Y80502D02*
X20818Y79578D01*
Y80502D01*
X19894D01*
G37*
X23818D02*
G36*
X23818Y80502D02*
Y78297D01*
X27383Y74733D01*
Y80502D01*
X23818D01*
G37*
X40386D02*
G36*
X40386Y80502D02*
Y70643D01*
X40575D01*
G75*
G02*
X43630Y72350I2531J-941D01*
G01*
X51782Y80502D01*
X40386D01*
G37*
X72584Y71331D02*
G36*
X72584Y71331D02*
G75*
G02*
X73455Y70643I-2084J-3531D01*
G01*
X159228D01*
Y74398D01*
X166744D01*
Y70643D01*
X169253D01*
Y80502D01*
X167491D01*
Y80502D01*
G75*
G02*
X163141Y76152I-4350J0D01*
G01*
G75*
G02*
X158791Y80502I0J4350D01*
G01*
Y80502D01*
X156991D01*
Y80502D01*
G75*
G02*
X153141Y76652I-3850J0D01*
G01*
G75*
G02*
X149291Y80502I0J3850D01*
G01*
Y80502D01*
X99163D01*
X96370Y77709D01*
G75*
G02*
X95307Y77270I-1061J1061D01*
G01*
X86397D01*
X80897Y71770D01*
G75*
G02*
X79834Y71331I-1061J1061D01*
G01*
X72584D01*
G37*
X5737Y90502D02*
G36*
X5737Y90502D02*
Y80502D01*
X7416D01*
G75*
G02*
X13584I3084J-2702D01*
G01*
X15652D01*
X12120Y84033D01*
G75*
G02*
X6400Y87800I-1620J3767D01*
G01*
G75*
G02*
X7416Y90502I4100J0D01*
G01*
X5737D01*
G37*
X14600Y87800D02*
G36*
X14600Y87800D02*
G75*
G02*
X14251Y86145I-4104J0D01*
G01*
X19894Y80502D01*
X20818D01*
Y90502D01*
X13584D01*
G75*
G02*
X14600Y87800I-3084J-2702D01*
G01*
G37*
X23818Y90502D02*
G36*
X23818Y90502D02*
Y80502D01*
X27383D01*
Y90502D01*
X23818D01*
G37*
X40386D02*
G36*
X40386Y90502D02*
Y80502D01*
X51782D01*
X54862Y83582D01*
G75*
G02*
X55925Y84021I1061J-1061D01*
G01*
X68909D01*
G75*
G02*
X66400Y87799I1590J3778D01*
G01*
G75*
G02*
Y87800I5013J0D01*
G01*
G75*
G02*
X67416Y90502I4100J0D01*
G01*
X40386D01*
G37*
X74600Y87800D02*
G36*
X74600Y87800D02*
G75*
G02*
X72091Y84021I-4100J0D01*
G01*
X92657D01*
X99137Y90502D01*
X73584D01*
G75*
G02*
X74600Y87800I-3084J-2702D01*
G01*
G37*
X105880Y87219D02*
G36*
X105880Y87219D02*
X99163Y80502D01*
X149291D01*
Y80502D01*
G75*
G02*
X153141Y84352I3850J0D01*
G01*
G75*
G02*
X156991Y80502I0J-3850D01*
G01*
Y80502D01*
X158791D01*
Y80502D01*
G75*
G02*
X163141Y84852I4350J0D01*
G01*
G75*
G02*
X167491Y80502I0J-4350D01*
G01*
Y80502D01*
X169253D01*
Y90502D01*
X166991D01*
Y90502D01*
G75*
G02*
X163141Y86652I-3850J0D01*
G01*
G75*
G02*
X159291Y90502I0J3850D01*
G01*
Y90502D01*
X156991D01*
Y90502D01*
G75*
G02*
X153141Y86652I-3850J0D01*
G01*
G75*
G02*
X149291Y90502I0J3850D01*
G01*
Y90502D01*
X137606D01*
X133098Y85993D01*
G75*
G02*
X132035Y85554I-1061J1061D01*
G01*
X112247D01*
G75*
G02*
X107302Y87054I-2245J1500D01*
G01*
Y87054D01*
G75*
G02*
X107316Y87325I2753J-4D01*
G01*
G75*
G02*
X105880Y87219I-909J2547D01*
G01*
G37*
X109107Y89867D02*
G36*
X109107Y89867D02*
G75*
G02*
X109093Y89596I-2753J4D01*
G01*
G75*
G02*
X112247Y88554I908J-2543D01*
G01*
X113127D01*
G75*
G02*
X112585Y90336I2659J1783D01*
G01*
G75*
G02*
X112589Y90502I3200J-1D01*
G01*
X109031D01*
G75*
G02*
X109107Y89867I-2625J-635D01*
G01*
G37*
X118985Y90336D02*
G36*
X118985Y90336D02*
G75*
G02*
X118443Y88554I-3202J0D01*
G01*
X131416D01*
X133364Y90502D01*
X130856D01*
G75*
G02*
X126139Y90087I-2472J1085D01*
G01*
X125478D01*
G75*
G02*
X124439Y90502I-2J1501D01*
G01*
X118981D01*
G75*
G02*
X118985Y90336I-3196J-167D01*
G01*
G37*
X5737Y100502D02*
G36*
X5737Y100502D02*
Y90502D01*
X7416D01*
G75*
G02*
X13584I3084J-2702D01*
G01*
X20818D01*
Y95456D01*
X15772Y100502D01*
X13584D01*
G75*
G02*
X14600Y97800I-3084J-2702D01*
G01*
G75*
G02*
X6400I-4100J0D01*
G01*
G75*
G02*
X7416Y100502I4100J0D01*
G01*
X5737D01*
G37*
X20015D02*
G36*
X20015Y100502D02*
X23379Y97138D01*
G75*
G02*
X23818Y96078I-1060J-1061D01*
G01*
Y90502D01*
X27383D01*
Y100502D01*
X20015D01*
G37*
X40386D02*
G36*
X40386Y100502D02*
Y90502D01*
X67416D01*
G75*
G02*
X73584I3084J-2702D01*
G01*
X99137D01*
X100477Y91841D01*
G75*
G02*
X100425Y92368I2640J526D01*
G01*
Y92368D01*
G75*
G02*
X105821Y92503I2700J0D01*
G01*
G75*
G02*
X109031Y90502I586J-2636D01*
G01*
X112589D01*
G75*
G02*
X118981I3196J-166D01*
G01*
X124439D01*
G75*
G02*
X124415Y90526I1037J1078D01*
G01*
X114439Y100502D01*
X73584D01*
G75*
G02*
X74600Y97800I-3084J-2702D01*
G01*
G75*
G02*
X66400I-4100J0D01*
G01*
G75*
G02*
X67416Y100502I4100J0D01*
G01*
X47340D01*
G75*
G02*
X41060I-3140J619D01*
G01*
X40386D01*
G37*
X118681D02*
G36*
X118681Y100502D02*
X126097Y93087D01*
X126139D01*
G75*
G02*
X131083Y91587I2245J-1500D01*
G01*
Y91587D01*
Y91586D01*
G75*
G02*
X130856Y90502I-2700J0D01*
G01*
X133364D01*
X143363Y100502D01*
X118681D01*
G37*
X147606D02*
G36*
X147606Y100502D02*
X137606Y90502D01*
X149291D01*
Y90502D01*
G75*
G02*
X153141Y94352I3850J0D01*
G01*
G75*
G02*
X156991Y90502I0J-3850D01*
G01*
Y90502D01*
X159291D01*
Y90502D01*
G75*
G02*
X163141Y94352I3850J0D01*
G01*
G75*
G02*
X166991Y90502I0J-3850D01*
G01*
Y90502D01*
X169253D01*
Y100502D01*
X166991D01*
Y100502D01*
G75*
G02*
X163141Y96652I-3850J0D01*
G01*
G75*
G02*
X159291Y100502I0J3850D01*
G01*
Y100502D01*
X156991D01*
Y100502D01*
G75*
G02*
X153141Y96652I-3850J0D01*
G01*
G75*
G02*
X149291Y100502I0J3850D01*
G01*
Y100502D01*
X147606D01*
G37*
X5737Y109874D02*
G36*
X5737Y109874D02*
Y100502D01*
X7416D01*
G75*
G02*
X13584I3084J-2702D01*
G01*
X15772D01*
X12204Y104071D01*
G75*
G02*
X6400Y107800I-1704J3729D01*
G01*
G75*
G02*
X6963Y109874I4100J0D01*
G01*
X5737D01*
G37*
X14037D02*
G36*
X14037Y109874D02*
G75*
G02*
X14600Y107800I-3537J-2074D01*
G01*
G75*
G02*
Y107798I-4177J-1D01*
G01*
G75*
G02*
X14287Y106230I-4091J0D01*
G01*
X20015Y100502D01*
X27383D01*
Y109721D01*
X27230Y109874D01*
X14037D01*
G37*
X35537D02*
G36*
X35537Y109874D02*
X39946Y105464D01*
G75*
G02*
X40386Y104403I-1060J-1061D01*
G01*
Y100502D01*
X41060D01*
G75*
G02*
X41000Y101121I3140J618D01*
G01*
G75*
G02*
X47400I3200J0D01*
G01*
G75*
G02*
X47340Y100502I-3200J-1D01*
G01*
X67416D01*
G75*
G02*
X73584I3084J-2702D01*
G01*
X114439D01*
X105067Y109874D01*
X91476D01*
G75*
G02*
X85076I-3200J0D01*
G01*
X74037D01*
G75*
G02*
X74600Y107800I-3537J-2074D01*
G01*
G75*
G02*
X66400I-4100J0D01*
G01*
G75*
G02*
X66963Y109874I4100J0D01*
G01*
X35537D01*
G37*
X109310D02*
G36*
X109310Y109874D02*
X118681Y100502D01*
X143363D01*
X150532Y107670D01*
G75*
G02*
X149342Y109874I2609J2831D01*
G01*
X125009D01*
G75*
G02*
X119691I-2659J469D01*
G01*
X109310D01*
G37*
X147606Y100502D02*
G36*
X147606Y100502D02*
X149291D01*
Y100502D01*
G75*
G02*
X153141Y104352I3850J0D01*
G01*
G75*
G02*
X156991Y100502I0J-3850D01*
G01*
Y100502D01*
X159291D01*
Y100502D01*
G75*
G02*
X163141Y104352I3850J0D01*
G01*
G75*
G02*
X166991Y100502I0J-3850D01*
G01*
Y100502D01*
X169253D01*
Y109874D01*
X166939D01*
G75*
G02*
X163141Y106652I-3798J628D01*
G01*
G75*
G02*
X159342Y109874I0J3850D01*
G01*
X156939D01*
G75*
G02*
X153816Y106712I-3798J628D01*
G01*
X147606Y100502D01*
G37*
X5737Y117800D02*
G36*
X5737Y117800D02*
Y109874D01*
X6963D01*
G75*
G02*
X14037I3537J-2074D01*
G01*
X27230D01*
X19821Y117283D01*
X14567D01*
G75*
G02*
X6400Y117800I-4067J517D01*
G01*
X5737D01*
G37*
X27610D02*
G36*
X27610Y117800D02*
X35537Y109874D01*
X66963D01*
G75*
G02*
X74037I3537J-2074D01*
G01*
X85076D01*
G75*
G02*
X91476I3200J0D01*
G01*
X105067D01*
X97141Y117800D01*
X74600D01*
G75*
G02*
X66400I-4100J0D01*
G01*
X27610D01*
G37*
X101383D02*
G36*
X101383Y117800D02*
X109310Y109874D01*
X119691D01*
G75*
G02*
X119650Y110343I2659J469D01*
G01*
G75*
G02*
Y110348I2715J3D01*
G01*
G75*
G02*
X119680Y110749I2636J0D01*
G01*
X112629Y117800D01*
X101383D01*
G37*
X117154D02*
G36*
X117154Y117800D02*
X121943Y113012D01*
G75*
G02*
X125050Y110343I407J-2669D01*
G01*
G75*
G02*
X125009Y109874I-2700J0D01*
G01*
X149342D01*
G75*
G02*
X149291Y110502I3799J628D01*
G01*
G75*
G02*
X153141Y114352I3850J0D01*
G01*
G75*
G02*
X156991Y110502I0J-3850D01*
G01*
G75*
G02*
X156939Y109874I-3850J0D01*
G01*
X159342D01*
G75*
G02*
X159291Y110502I3798J628D01*
G01*
G75*
G02*
X159533Y111846I3851J0D01*
G01*
X157167Y114213D01*
G75*
G02*
X156698Y115344I1132J1131D01*
G01*
Y115344D01*
Y117800D01*
X155883D01*
G75*
G02*
X150398I-2743J2702D01*
G01*
X117154D01*
G37*
X159898Y117602D02*
G36*
X159898Y117602D02*
Y116007D01*
X161794Y114109D01*
G75*
G02*
X166991Y110502I1346J-3607D01*
G01*
Y110502D01*
G75*
G02*
X166939Y109874I-3849J0D01*
G01*
X169253D01*
Y117800D01*
X166550D01*
G75*
G02*
X159898Y117602I-3409J2702D01*
G01*
G37*
X5737Y127800D02*
G36*
X5737Y127800D02*
Y117800D01*
X6400D01*
G75*
G02*
X13763Y120283I4100J0D01*
G01*
X20440D01*
G75*
G02*
X20987Y120180I2J-1502D01*
G01*
X14868Y126300D01*
X14316D01*
G75*
G02*
X6400Y127800I-3816J1500D01*
G01*
X5737D01*
G37*
X23126Y125660D02*
G36*
X23126Y125660D02*
Y125660D01*
G75*
G02*
X23983Y127800I3099J0D01*
G01*
X17610D01*
X27610Y117800D01*
X66400D01*
G75*
G02*
X74600I4100J0D01*
G01*
X97141D01*
X87141Y127800D01*
X74600D01*
G75*
G02*
X66400I-4100J0D01*
G01*
X28469D01*
G75*
G02*
X29326Y125660I-2242J-2140D01*
G01*
Y125660D01*
G75*
G02*
X23126I-3100J0D01*
G01*
G37*
X97940Y127800D02*
G36*
X97940Y127800D02*
X91383D01*
X101383Y117800D01*
X112629D01*
X107307Y123121D01*
X103284D01*
G75*
G02*
X102150Y123590I-3J1599D01*
G01*
X97940Y127800D01*
G37*
X102466D02*
G36*
X102466Y127800D02*
X103944Y126321D01*
X107970D01*
G75*
G02*
X109103Y125851I0J-1599D01*
G01*
X117154Y117800D01*
X150398D01*
G75*
G02*
X149291Y120502I2743J2702D01*
G01*
G75*
G02*
X156698Y121973I3850J0D01*
G01*
Y127800D01*
X102466D01*
G37*
X155883Y117800D02*
G36*
X155883Y117800D02*
X156698D01*
Y119031D01*
G75*
G02*
X155883Y117800I-3558J1471D01*
G01*
G37*
X159898Y127800D02*
G36*
X159898Y127800D02*
Y123402D01*
G75*
G02*
X167491Y120502I3242J-2900D01*
G01*
Y120502D01*
G75*
G02*
X166550Y117800I-4350J0D01*
G01*
X169253D01*
Y127800D01*
X159898D01*
G37*
X5737Y135195D02*
G36*
X5737Y135195D02*
Y127800D01*
X6400D01*
G75*
G02*
X14316Y129300I4100J0D01*
G01*
X15487D01*
G75*
G02*
X16550Y128861I2J-1501D01*
G01*
X17610Y127800D01*
X23983D01*
G75*
G02*
X24626Y128315I2242J-2140D01*
G01*
Y133787D01*
Y133788D01*
G75*
G02*
X25096Y134920I1599J0D01*
G01*
X25370Y135195D01*
X14598D01*
Y133702D01*
X6402D01*
Y135195D01*
X5737D01*
G37*
X27826Y133125D02*
G36*
X27826Y133125D02*
Y128315D01*
G75*
G02*
X28469Y127800I-1599J-2655D01*
G01*
X66400D01*
G75*
G02*
X74600I4100J0D01*
G01*
X87141D01*
X79746Y135195D01*
X73666D01*
G75*
G02*
X67334I-3166J2605D01*
G01*
X29896D01*
X27826Y133125D01*
G37*
X88788Y135195D02*
G36*
X88788Y135195D02*
X83989D01*
X91383Y127800D01*
X97940D01*
X94629Y131111D01*
G75*
G02*
X88788Y135195I-1493J4083D01*
G01*
G37*
X97484D02*
G36*
X97484Y135195D02*
G75*
G02*
X97022Y133244I-4346J0D01*
G01*
X102466Y127800D01*
X156698D01*
Y128905D01*
X150408Y135195D01*
X137354D01*
Y130347D01*
X127657D01*
Y135195D01*
X127011D01*
G75*
G02*
X122663Y130847I-4348J0D01*
G01*
G75*
G02*
X118315Y135195I0J4348D01*
G01*
X117169D01*
G75*
G02*
X112821Y130847I-4348J0D01*
G01*
G75*
G02*
X108473Y135195I0J4348D01*
G01*
X107326D01*
G75*
G02*
X102978Y130847I-4348J0D01*
G01*
G75*
G02*
X98630Y135195I0J4348D01*
G01*
X97484D01*
G37*
X154933D02*
G36*
X154933Y135195D02*
X159428Y130700D01*
G75*
G02*
X159898Y129568I-1129J-1132D01*
G01*
Y129567D01*
Y127800D01*
X169253D01*
Y135195D01*
X154933D01*
G37*
X5737Y144429D02*
G36*
X5737Y144429D02*
Y135195D01*
X6402D01*
Y141898D01*
X12209D01*
X13599Y143288D01*
G75*
G02*
X14662Y143728I1061J-1061D01*
G01*
X74832D01*
G75*
G02*
X75895Y143288I2J-1501D01*
G01*
X83989Y135195D01*
X88788D01*
G75*
G02*
X94863Y139185I4348J0D01*
G01*
X99661Y143983D01*
G75*
G02*
X100520Y144429I1132J-1129D01*
G01*
X5737D01*
G37*
X14598Y140045D02*
G36*
X14598Y140045D02*
Y135195D01*
X25370D01*
X29106Y138930D01*
G75*
G02*
X30238Y139400I1132J-1129D01*
G01*
X66725D01*
G75*
G02*
X67630Y140728I3775J-1600D01*
G01*
X15281D01*
X14598Y140045D01*
G37*
X30901Y136200D02*
G36*
X30901Y136200D02*
X29896Y135195D01*
X67334D01*
G75*
G02*
X66725Y136200I3166J2606D01*
G01*
X30901D01*
G37*
X74213Y140728D02*
G36*
X74213Y140728D02*
X73370D01*
G75*
G02*
X74600Y137801I-2868J-2926D01*
G01*
G75*
G02*
Y137800I-4511J0D01*
G01*
G75*
G02*
X73666Y135195I-4100J0D01*
G01*
X79746D01*
X74213Y140728D01*
G37*
X97484Y135195D02*
G36*
X97484Y135195D02*
X98630D01*
G75*
G02*
X102978Y139543I4348J0D01*
G01*
G75*
G02*
X107326Y135195I0J-4348D01*
G01*
X108473D01*
G75*
G02*
X112821Y139543I4348J0D01*
G01*
G75*
G02*
X117169Y135195I0J-4348D01*
G01*
X118315D01*
G75*
G02*
X122663Y139543I4348J0D01*
G01*
G75*
G02*
X127011Y135195I0J-4348D01*
G01*
X127657D01*
Y140044D01*
X137354D01*
Y135195D01*
X150408D01*
X145726Y139877D01*
G75*
G02*
X142202Y141253I-869J2976D01*
G01*
X101456D01*
X97126Y136922D01*
G75*
G02*
X97484Y135195I-3989J-1727D01*
G01*
G37*
X147957Y142852D02*
G36*
X147957Y142852D02*
G75*
G02*
X147894Y142234I-3100J0D01*
G01*
X154933Y135195D01*
X169253D01*
Y144429D01*
X147526D01*
G75*
G02*
X147957Y142852I-2670J-1576D01*
G01*
G37*
D02*
D11*
X8000Y7800D02*
X5900D01*
X10500Y10300D02*
Y12400D01*
X13000Y7800D02*
X15100D01*
X43100Y101121D02*
X41000D01*
X44200Y100021D02*
Y97921D01*
Y102221D02*
Y104321D01*
X45300Y101121D02*
X47400D01*
X70500Y137800D02*
X30238D01*
X26226Y133787D01*
Y125660D01*
X87176Y109874D02*
X85076D01*
X88276Y108774D02*
Y106674D01*
Y110974D02*
Y113074D01*
X89376Y109874D02*
X91476D01*
X93136Y135195D02*
X100794Y142853D01*
X144857D01*
X93136Y135195D02*
X92809D01*
X103282Y124722D01*
X107970D01*
X122350Y110343D01*
X114685Y90336D02*
X112585D01*
X115785Y91436D02*
Y93536D01*
X116885Y90336D02*
X118985D01*
X117811Y63765D02*
X115711D01*
X118911Y62665D02*
Y60565D01*
Y64865D02*
Y66965D01*
X120011Y63765D02*
X122111D01*
X129758Y135195D02*
X127657D01*
X132506Y132447D02*
Y130347D01*
Y137943D02*
Y140044D01*
X135254Y135195D02*
X137354D01*
X144857Y142853D02*
X145013D01*
X158298Y129567D01*
Y115344D01*
X163141Y110499D01*
Y110502D01*
X154385Y44853D02*
X152285D01*
X155485Y43753D02*
Y41653D01*
Y45953D02*
Y48053D01*
X156585Y44853D02*
X158685D01*
X160891Y80502D02*
X158791D01*
X163141Y78252D02*
Y76152D01*
Y82752D02*
Y84852D01*
Y118252D02*
Y116152D01*
Y122752D02*
Y124852D01*
X165391Y80502D02*
X167491D01*
X165391Y120502D02*
X167491D01*
D02*
D13*
X26226Y125660D03*
X144857Y142853D03*
D02*
D14*
X33728Y97800D03*
X43106Y69702D03*
X44200Y101121D03*
X61862Y69705D03*
X88276Y109874D03*
X94997Y46104D03*
X95466Y52668D03*
X97185Y42040D03*
X97342Y38289D03*
X97811Y34225D03*
X98436Y29223D03*
X99530Y58764D03*
X99843Y62733D03*
X101093Y25785D03*
X103125Y92368D03*
X103750Y22033D03*
X106407Y89867D03*
X106876Y15625D03*
X109689Y12030D03*
X110002Y87054D03*
X115785Y90336D03*
X118911Y63765D03*
X122350Y110343D03*
X128383Y91587D03*
X155485Y44853D03*
D02*
D15*
X10500Y17800D02*
X58593D01*
X64363Y12030D01*
X109689D01*
X10500Y37800D02*
X11397D01*
X17004Y32193D01*
X54516D01*
X64675Y22033D01*
X103750D01*
X10500Y57800D02*
Y56515D01*
X25757Y41258D01*
X54672D01*
X63894Y32037D01*
X95622D01*
X98436Y29223D01*
X10500Y67800D02*
Y67673D01*
X34883Y43290D01*
X56548D01*
X66238Y33600D01*
X97811D01*
Y34225D01*
X10500Y77800D02*
Y76052D01*
X28570Y57982D01*
X31383D01*
X41856Y47510D01*
X59205D01*
X64675Y42040D01*
X91871D01*
X95622Y38289D01*
X97342D01*
X10500Y87800D02*
Y87775D01*
X20130Y78145D01*
Y73612D01*
X43419Y50324D01*
X59830D01*
X66551Y43603D01*
X95622D01*
X97185Y42040D01*
X10500Y107800D02*
X10596D01*
X22318Y96078D01*
Y77676D01*
X47951Y52043D01*
X75087D01*
X81026Y46104D01*
X94997D01*
X10500Y117800D02*
Y118783D01*
X20443D01*
X28883Y110343D01*
Y74193D01*
X49469Y53606D01*
X94685D01*
X95466Y52824D01*
Y52668D01*
X33728Y97800D02*
Y71893D01*
X43575Y62046D01*
X76375D01*
X79657Y58764D01*
X99530D01*
X99843Y62733D02*
X80400D01*
X79524Y63609D01*
X44356D01*
X38886Y69080D01*
Y104403D01*
X15489Y127800D01*
X10500D01*
X101093Y25785D02*
X83119D01*
X80930Y23596D01*
X67332D01*
X53891Y37038D01*
X21068D01*
X10500Y47606D01*
Y47800D01*
X103125Y92368D02*
X93278Y82521D01*
X55922D01*
X43262Y69861D01*
X43106D01*
Y69702D01*
X106407Y89867D02*
X95310Y78770D01*
X85776D01*
X79836Y72831D01*
X64675D01*
X61862Y70017D01*
Y69705D01*
X106876Y15625D02*
X104844Y13593D01*
X67020D01*
X55454Y25159D01*
X13096D01*
X10456Y27800D01*
X10500D01*
X110002Y87054D02*
X132037D01*
X153141Y108157D01*
Y110502D01*
X128383Y91587D02*
X125476D01*
X74835Y142228D01*
X14659D01*
X10500Y138068D01*
Y137800D01*
D02*
D18*
X132506Y135195D03*
D02*
D19*
X93136D03*
X102978D03*
X112821D03*
X122663D03*
D02*
D20*
X10500Y7800D03*
Y17800D03*
Y27800D03*
Y37800D03*
Y47800D03*
Y57800D03*
Y67800D03*
Y77800D03*
Y87800D03*
Y97800D03*
Y107800D03*
Y117800D03*
Y127800D03*
X70500Y7800D03*
Y17800D03*
Y27800D03*
Y37800D03*
Y47800D03*
Y57800D03*
Y67800D03*
Y77800D03*
Y87800D03*
Y97800D03*
Y107800D03*
Y117800D03*
Y127800D03*
Y137800D03*
D02*
D21*
X10500D03*
D02*
D83*
X153141Y80502D03*
Y90502D03*
Y100502D03*
Y110502D03*
Y120502D03*
X163141Y80502D03*
Y90502D03*
Y100502D03*
Y110502D03*
Y120502D03*
D02*
D86*
X162987Y70643D03*
D02*
D87*
Y39146D03*
Y47020D03*
Y54894D03*
Y62769D03*
X0Y0D02*
M02*
