G04 DesignSpark PCB Gerber Version 11.0 Build 5877*
%FSLAX35Y35*%
%MOIN*%
%ADD101C,0.00300*%
%ADD10C,0.01200*%
X0Y0D02*
D02*
D10*
X2937Y2652D02*
X114222D01*
Y33756D01*
X172053D01*
Y147229D01*
X2937D01*
Y2652D01*
D02*
D101*
X37480Y132693D02*
X38105Y132381D01*
X38417Y131756D01*
Y130506D01*
X38105Y129881D01*
X37480Y129568D01*
X36855Y129881D01*
X36542Y130506D01*
Y131756D01*
X36230Y132381D01*
X35605Y132693D01*
X34980Y132381D01*
X34667Y131756D01*
Y130506D01*
X34980Y129881D01*
X35605Y129568D01*
X38417Y127693D02*
X34667D01*
X36542D02*
Y126756D01*
X34667Y124568D01*
X36542Y126756D02*
X38417Y124568D01*
X36855Y120506D02*
Y119568D01*
X37167D01*
X37792Y119881D01*
X38105Y120193D01*
X38417Y120818D01*
Y121443D01*
X38105Y122068D01*
X37792Y122381D01*
X37167Y122693D01*
X35917D01*
X35292Y122381D01*
X34980Y122068D01*
X34667Y121443D01*
Y120818D01*
X34980Y120193D01*
X35292Y119881D01*
X35917Y119568D01*
X37792Y114568D02*
X38105Y114881D01*
X38417Y115506D01*
Y116443D01*
X38105Y117068D01*
X37792Y117381D01*
X37167Y117693D01*
X35917D01*
X35292Y117381D01*
X34980Y117068D01*
X34667Y116443D01*
Y115506D01*
X34980Y114881D01*
X35292Y114568D01*
X38417Y112693D02*
Y109568D01*
Y107693D02*
X34667Y106131D01*
X38417Y104568D01*
X36855Y107068D02*
Y105193D01*
Y100193D02*
X36230Y100506D01*
X35917Y101131D01*
Y101756D01*
X36230Y102381D01*
X36855Y102693D01*
X37480D01*
X38105Y102381D01*
X38417Y101756D01*
Y101131D01*
X38105Y100506D01*
X37480Y100193D01*
X38417D02*
X34667D01*
X36855Y95193D02*
X36230Y95506D01*
X35917Y96131D01*
Y96756D01*
X36230Y97381D01*
X36855Y97693D01*
X37480D01*
X38105Y97381D01*
X38417Y96756D01*
Y96131D01*
X38105Y95506D01*
X37480Y95193D01*
X38417D02*
X34667D01*
X38417Y92693D02*
X35917D01*
X36855D02*
X36230Y92381D01*
X35917Y91756D01*
Y91131D01*
X36230Y90506D01*
X38417Y87693D02*
Y84568D01*
X37792Y79568D02*
X38105Y79881D01*
X38417Y80506D01*
Y81443D01*
X38105Y82068D01*
X37792Y82381D01*
X37167Y82693D01*
X35917D01*
X35292Y82381D01*
X34980Y82068D01*
X34667Y81443D01*
Y80506D01*
X34980Y79881D01*
X35292Y79568D01*
X37480Y77693D02*
X38105Y77381D01*
X38417Y76756D01*
Y76131D01*
X38105Y75506D01*
X37480Y75193D01*
X36855D01*
X36230Y75506D01*
X35917Y76131D01*
Y76756D01*
X36230Y77381D01*
X36855Y77693D01*
X37480D01*
X38417Y72693D02*
X35917D01*
X36855D02*
X36230Y72381D01*
X35917Y71756D01*
Y71131D01*
X36230Y70506D01*
X36855Y70193D01*
X38417D01*
X35917Y67693D02*
X38417Y66443D01*
X35917Y65193D01*
X38105Y60193D02*
X38417Y60506D01*
Y61131D01*
Y61756D01*
X38105Y62381D01*
X37480Y62693D01*
X36542D01*
X36230Y62381D01*
X35917Y61756D01*
Y61131D01*
X36230Y60506D01*
X36542Y60193D01*
X36855D01*
X37167Y60506D01*
X37480Y61131D01*
Y61756D01*
X37167Y62381D01*
X36855Y62693D01*
X38417Y57693D02*
X35917D01*
X36855D02*
X36230Y57381D01*
X35917Y56756D01*
Y56131D01*
X36230Y55506D01*
X35917Y52172D02*
Y50714D01*
X35292Y51443D02*
X38105D01*
X38417Y51131D01*
Y50818D01*
X38105Y50506D01*
X44417Y132693D02*
X40667D01*
X42542Y131131D01*
X40667Y129568D01*
X44417D01*
X40667Y127693D02*
Y124568D01*
X44417Y127693D01*
Y124568D01*
X43167Y122693D02*
Y120193D01*
X42542Y116756D02*
Y116131D01*
X42230Y115506D01*
X41605Y115193D01*
X40980Y115506D01*
X40667Y116131D01*
Y116756D01*
X40980Y117381D01*
X41605Y117693D01*
X42230Y117381D01*
X42542Y116756D01*
X42855Y117381D01*
X43480Y117693D01*
X44105Y117381D01*
X44417Y116756D01*
Y116131D01*
X44105Y115506D01*
X43480Y115193D01*
X42855Y115506D01*
X42542Y116131D01*
X44105Y112381D02*
X44417Y111756D01*
Y111131D01*
X44105Y110506D01*
X43480Y110193D01*
X41605D01*
X40980Y110506D01*
X40667Y111131D01*
Y111756D01*
X40980Y112381D01*
X41605Y112693D01*
X43480D01*
X44105Y112381D01*
X40980Y110506D01*
X42542Y105506D02*
X42855Y104881D01*
X43480Y104568D01*
X44105Y104881D01*
X44417Y105506D01*
Y107693D01*
X40667D01*
Y105506D01*
X40980Y104881D01*
X41605Y104568D01*
X42230Y104881D01*
X42542Y105506D01*
Y107693D01*
X41917Y97172D02*
Y95714D01*
X41292Y96443D02*
X44105D01*
X44417Y96131D01*
Y95818D01*
X44105Y95506D01*
X43480Y92693D02*
X44105Y92381D01*
X44417Y91756D01*
Y91131D01*
X44105Y90506D01*
X43480Y90193D01*
X42855D01*
X42230Y90506D01*
X41917Y91131D01*
Y91756D01*
X42230Y92381D01*
X42855Y92693D01*
X43480D01*
X44417Y82693D02*
X40667D01*
X42542Y81131D01*
X40667Y79568D01*
X44417D01*
X40667Y77693D02*
Y74568D01*
X44417Y77693D01*
Y74568D01*
X43167Y72693D02*
Y70193D01*
X44417Y65193D02*
Y67693D01*
X42230Y65506D01*
X41605Y65193D01*
X40980Y65506D01*
X40667Y66131D01*
Y67068D01*
X40980Y67693D01*
X44417Y60193D02*
Y62693D01*
X42230Y60506D01*
X41605Y60193D01*
X40980Y60506D01*
X40667Y61131D01*
Y62068D01*
X40980Y62693D01*
X44105Y57381D02*
X44417Y56756D01*
Y56131D01*
X44105Y55506D01*
X43480Y55193D01*
X41605D01*
X40980Y55506D01*
X40667Y56131D01*
Y56756D01*
X40980Y57381D01*
X41605Y57693D01*
X43480D01*
X44105Y57381D01*
X40980Y55506D01*
X44105Y52381D02*
X44417Y51756D01*
Y51131D01*
X44105Y50506D01*
X43480Y50193D01*
X41605D01*
X40980Y50506D01*
X40667Y51131D01*
Y51756D01*
X40980Y52381D01*
X41605Y52693D01*
X43480D01*
X44105Y52381D01*
X40980Y50506D01*
X41917Y42693D02*
X45355D01*
X43480D02*
X44105Y42381D01*
X44417Y41756D01*
Y41131D01*
X44105Y40506D01*
X43480Y40193D01*
X42855D01*
X42230Y40506D01*
X41917Y41131D01*
Y41756D01*
X42230Y42381D01*
X42855Y42693D01*
X43480D01*
X44417Y37693D02*
X41917D01*
X42855D02*
X42230Y37381D01*
X41917Y36756D01*
Y36131D01*
X42230Y35506D01*
X43480Y32693D02*
X44105Y32381D01*
X44417Y31756D01*
Y31131D01*
X44105Y30506D01*
X43480Y30193D01*
X42855D01*
X42230Y30506D01*
X41917Y31131D01*
Y31756D01*
X42230Y32381D01*
X42855Y32693D01*
X43480D01*
X45042Y27381D02*
X45355Y26756D01*
X45042Y26131D01*
X44417Y25818D01*
X41917D01*
X40980D02*
X44105Y20193D02*
X44417Y20506D01*
Y21131D01*
Y21756D01*
X44105Y22381D01*
X43480Y22693D01*
X42542D01*
X42230Y22381D01*
X41917Y21756D01*
Y21131D01*
X42230Y20506D01*
X42542Y20193D01*
X42855D01*
X43167Y20506D01*
X43480Y21131D01*
Y21756D01*
X43167Y22381D01*
X42855Y22693D01*
X42230Y15193D02*
X41917Y15818D01*
Y16756D01*
X42230Y17381D01*
X42855Y17693D01*
X43480D01*
X44105Y17381D01*
X44417Y16756D01*
Y15818D01*
X44105Y15193D01*
X41917Y12172D02*
Y10714D01*
X41292Y11443D02*
X44105D01*
X44417Y11131D01*
Y10818D01*
X44105Y10506D01*
X50417Y130506D02*
X49480Y131131D01*
X47292D01*
X46667Y130506D01*
X48230Y125193D02*
X47917Y125818D01*
Y126756D01*
X48230Y127381D01*
X48855Y127693D01*
X49480D01*
X50105Y127381D01*
X50417Y126756D01*
Y125818D01*
X50105Y125193D01*
X50417Y121756D02*
X49480Y121131D01*
X47292D01*
X46667Y121756D01*
X50417Y110193D02*
Y112693D01*
X48230Y110506D01*
X47605Y110193D01*
X46980Y110506D01*
X46667Y111131D01*
Y112068D01*
X46980Y112693D01*
X50105Y107381D02*
X50417Y106756D01*
Y106131D01*
X50105Y105506D01*
X49480Y105193D01*
X47605D01*
X46980Y105506D01*
X46667Y106131D01*
Y106756D01*
X46980Y107381D01*
X47605Y107693D01*
X49480D01*
X50105Y107381D01*
X46980Y105506D01*
X50417Y100193D02*
Y102693D01*
X48230Y100506D01*
X47605Y100193D01*
X46980Y100506D01*
X46667Y101131D01*
Y102068D01*
X46980Y102693D01*
X50105Y97693D02*
X50417Y97068D01*
Y96131D01*
X50105Y95506D01*
X49480Y95193D01*
X49167D01*
X48542Y95506D01*
X48230Y96131D01*
Y97693D01*
X46667D01*
Y95193D01*
X50417Y91443D02*
X50105Y91131D01*
X49792D01*
X50417Y81131D02*
X46667D01*
Y82693D02*
Y79568D01*
X48230Y77693D02*
X47917Y77068D01*
Y76131D01*
X48230Y75506D01*
X48855Y75193D01*
X49792D01*
X50105Y75506D01*
X50417Y76131D01*
Y76756D01*
X50105Y77381D01*
X49792Y77693D01*
X49480D01*
X49167Y77381D01*
X48855Y76756D01*
Y76131D01*
X49167Y75506D01*
X49480Y75193D01*
X49792D02*
X50417D01*
Y72693D02*
X46667D01*
X49167D02*
Y71756D01*
X47917Y70193D01*
X49167Y71756D02*
X50417Y70193D01*
X47917Y67693D02*
X49480D01*
X50105Y67381D01*
X50417Y66756D01*
Y66131D01*
X50105Y65506D01*
X49480Y65193D01*
X47917D02*
X50417D01*
X47917Y62693D02*
X49167Y62381D01*
X49792Y61756D01*
Y61131D01*
X49167Y60506D01*
X47917Y60193D01*
X49167Y60506D02*
X50417Y60818D01*
X51042Y61131D01*
X51355Y61756D01*
X51042Y62381D01*
X48230Y57693D02*
X47917Y57068D01*
Y56131D01*
X48230Y55506D01*
X48855Y55193D01*
X49792D01*
X50105Y55506D01*
X50417Y56131D01*
Y56756D01*
X50105Y57381D01*
X49792Y57693D01*
X49480D01*
X49167Y57381D01*
X48855Y56756D01*
Y56131D01*
X49167Y55506D01*
X49480Y55193D01*
X49792D02*
X50417D01*
Y47693D02*
X46667D01*
Y44568D01*
X48542Y45193D02*
Y47693D01*
X47917Y42693D02*
X49480D01*
X50105Y42381D01*
X50417Y41756D01*
Y41131D01*
X50105Y40506D01*
X49480Y40193D01*
X47917D02*
X50417D01*
Y37693D02*
X46667D01*
X49167D02*
Y36756D01*
X47917Y35193D01*
X49167Y36756D02*
X50417Y35193D01*
X47917Y32693D02*
X49480D01*
X50105Y32381D01*
X50417Y31756D01*
Y31131D01*
X50105Y30506D01*
X49480Y30193D01*
X47917D02*
X50417D01*
X48855Y25193D02*
X48230Y25506D01*
X47917Y26131D01*
Y26756D01*
X48230Y27381D01*
X48855Y27693D01*
X49480D01*
X50105Y27381D01*
X50417Y26756D01*
Y26131D01*
X50105Y25506D01*
X49480Y25193D01*
X50417D02*
X46667D01*
X48230Y22693D02*
X47917Y22068D01*
Y21131D01*
X48230Y20506D01*
X48855Y20193D01*
X49792D01*
X50105Y20506D01*
X50417Y21131D01*
Y21756D01*
X50105Y22381D01*
X49792Y22693D01*
X49480D01*
X49167Y22381D01*
X48855Y21756D01*
Y21131D01*
X49167Y20506D01*
X49480Y20193D01*
X49792D02*
X50417D01*
Y16443D02*
X50105Y16131D01*
X49792D01*
X56105Y129881D02*
X56417Y130506D01*
Y131756D01*
X56105Y132381D01*
X55480Y132693D01*
X53605D01*
X52980Y132381D01*
X52667Y131756D01*
Y130818D01*
X52980Y130193D01*
X53605Y129881D01*
X55167D01*
X55480Y130193D01*
X55167Y130506D01*
X53917D01*
X53605Y130818D01*
Y131756D01*
X53917Y132068D01*
X55167D01*
X55480Y131756D01*
Y130818D01*
X55167Y130506D01*
X56417Y127693D02*
X52667D01*
X55167D02*
Y126756D01*
X53917Y125193D01*
X55167Y126756D02*
X56417Y125193D01*
Y121443D02*
X53917D01*
X52980D02*
X53917Y117172D02*
Y115714D01*
X53292Y116443D02*
X56105D01*
X56417Y116131D01*
Y115818D01*
X56105Y115506D01*
X54230Y112693D02*
X53917Y112068D01*
Y111131D01*
X54230Y110506D01*
X54855Y110193D01*
X55792D01*
X56105Y110506D01*
X56417Y111131D01*
Y111756D01*
X56105Y112381D01*
X55792Y112693D01*
X55480D01*
X55167Y112381D01*
X54855Y111756D01*
Y111131D01*
X55167Y110506D01*
X55480Y110193D01*
X55792D02*
X56417D01*
Y107693D02*
X52667D01*
X54855D02*
X54230Y107381D01*
X53917Y106756D01*
Y106131D01*
X54230Y105506D01*
X54855Y105193D01*
X56417D01*
X56105Y100193D02*
X56417Y100506D01*
Y101131D01*
Y101756D01*
X56105Y102381D01*
X55480Y102693D01*
X54542D01*
X54230Y102381D01*
X53917Y101756D01*
Y101131D01*
X54230Y100506D01*
X54542Y100193D01*
X54855D01*
X55167Y100506D01*
X55480Y101131D01*
Y101756D01*
X55167Y102381D01*
X54855Y102693D01*
X56417Y96443D02*
X53917D01*
X52980D02*
X54542Y91756D02*
Y91131D01*
X54230Y90506D01*
X53605Y90193D01*
X52980Y90506D01*
X52667Y91131D01*
Y91756D01*
X52980Y92381D01*
X53605Y92693D01*
X54230Y92381D01*
X54542Y91756D01*
X54855Y92381D01*
X55480Y92693D01*
X56105Y92381D01*
X56417Y91756D01*
Y91131D01*
X56105Y90506D01*
X55480Y90193D01*
X54855Y90506D01*
X54542Y91131D01*
Y86756D02*
Y86131D01*
X54230Y85506D01*
X53605Y85193D01*
X52980Y85506D01*
X52667Y86131D01*
Y86756D01*
X52980Y87381D01*
X53605Y87693D01*
X54230Y87381D01*
X54542Y86756D01*
X54855Y87381D01*
X55480Y87693D01*
X56105Y87381D01*
X56417Y86756D01*
Y86131D01*
X56105Y85506D01*
X55480Y85193D01*
X54855Y85506D01*
X54542Y86131D01*
X0Y0D02*
M02*
