G04 DesignSpark PCB Gerber Version 11.0 Build 5877*
%FSLAX35Y35*%
%MOIN*%
%ADD137R,0.02362X0.05906*%
%ADD90R,0.03937X0.03937*%
%ADD132R,0.05900X0.05900*%
%ADD91R,0.06000X0.06000*%
%ADD116R,0.06496X0.06496*%
%ADD96R,0.07972X0.07972*%
%ADD85C,0.00800*%
%ADD81C,0.01000*%
%ADD10C,0.01200*%
%ADD82C,0.01500*%
%ADD84C,0.03200*%
%ADD83C,0.04000*%
%ADD134R,0.05709X0.01772*%
%ADD136R,0.05906X0.02362*%
%ADD88R,0.03937X0.03937*%
%ADD133C,0.05900*%
%ADD87C,0.06000*%
%ADD117C,0.06496*%
%ADD95C,0.07972*%
%ADD135R,0.06299X0.22441*%
X0Y0D02*
D02*
D10*
X87779Y25765D02*
Y387128D01*
X242514D01*
Y353055D01*
X189685D01*
Y124858D01*
X242514D01*
Y25765D01*
X87779D01*
X90179Y223977D02*
Y28165D01*
X240114D01*
Y122458D01*
X189685D01*
G75*
G02*
X188821Y122619I0J2400D01*
G01*
Y96136D01*
G75*
G02*
X190071Y93598I-1950J-2537D01*
G01*
G75*
G02*
X184334Y91648I-3200J0D01*
G01*
X178474D01*
Y90150D01*
X172136D01*
Y91589D01*
X170246D01*
Y88268D01*
X171131Y87383D01*
X208091D01*
X208719Y88012D01*
Y93914D01*
G75*
G02*
X209189Y95047I1600J0D01*
G01*
X214185Y100043D01*
G75*
G02*
X215007Y100482I1133J-1130D01*
G01*
G75*
G02*
X219744Y107165I3127J2804D01*
G01*
X222000Y109420D01*
G75*
G02*
X223133Y109891I1133J-1130D01*
G01*
X225662D01*
G75*
G02*
X223934Y113286I2472J3395D01*
G01*
G75*
G02*
X232334I4200J0D01*
G01*
G75*
G02*
X230607Y109891I-4200J0D01*
G01*
X234386D01*
G75*
G02*
X235519Y109420I0J-1600D01*
G01*
X238017Y106922D01*
G75*
G02*
X238487Y105790I-1130J-1133D01*
G01*
Y89847D01*
G75*
G02*
X238017Y88715I-1600J0D01*
G01*
X227704Y78402D01*
G75*
G02*
X226571Y77931I-1133J1130D01*
G01*
X159050D01*
G75*
G02*
X157917Y78402I0J1600D01*
G01*
X156104Y80215D01*
G75*
G02*
X155859Y80528I1130J1133D01*
G01*
X154558D01*
G75*
G02*
X156223Y77969I-1135J-2560D01*
G01*
G75*
G02*
X150623I-2800J0D01*
G01*
G75*
G02*
X150648Y78340I2801J-1D01*
G01*
X150558Y78429D01*
G75*
G02*
X145608Y76222I-2762J-461D01*
G01*
G75*
G02*
X140620Y77969I-2188J1747D01*
G01*
G75*
G02*
X142285Y80528I2800J0D01*
G01*
X135955D01*
Y82933D01*
X135715D01*
G75*
G02*
X130617Y84533I-2298J1600D01*
G01*
G75*
G02*
X135715Y86133I2800J0D01*
G01*
X135955D01*
Y88009D01*
X128474D01*
Y88690D01*
X125333D01*
Y83446D01*
X125730D01*
Y76308D01*
X118596D01*
Y83446D01*
X118994D01*
Y84870D01*
X117545D01*
G75*
G02*
X116341Y85369I-2J1700D01*
G01*
X113550Y88159D01*
X109947Y84556D01*
Y70190D01*
X101246D01*
Y95028D01*
X109947D01*
Y89364D01*
X112175Y91592D01*
G75*
G02*
X113208Y92081I1202J-1202D01*
G01*
X109395Y95894D01*
G75*
G02*
X108897Y97096I1202J1202D01*
G01*
Y104442D01*
X101246D01*
Y129280D01*
X109947D01*
Y112121D01*
X111302Y110767D01*
X118994D01*
Y112190D01*
X118596D01*
Y119328D01*
X125730D01*
Y112190D01*
X125333D01*
Y104688D01*
X128474D01*
Y114179D01*
X127285Y115368D01*
G75*
G02*
X126815Y116501I1130J1133D01*
G01*
Y125759D01*
X122751Y129823D01*
X99141D01*
G75*
G02*
X95317Y129075I-2298J1600D01*
G01*
Y58000D01*
X100319Y52998D01*
X174643D01*
X179023Y57378D01*
G75*
G02*
X177612Y58752I2847J4335D01*
G01*
Y56127D01*
X166441D01*
Y67300D01*
X177612D01*
Y64675D01*
G75*
G02*
X187056Y61713I4257J-2961D01*
G01*
G75*
G02*
X182778Y56607I-5186J0D01*
G01*
X176438Y50268D01*
G75*
G02*
X175305Y49798I-1133J1130D01*
G01*
X99656D01*
G75*
G02*
X98524Y50268I0J1600D01*
G01*
X92587Y56204D01*
G75*
G02*
X92117Y57337I1130J1133D01*
G01*
Y134549D01*
G75*
G02*
X92587Y135681I1600J0D01*
G01*
X101024Y144119D01*
G75*
G02*
X102157Y144589I1133J-1130D01*
G01*
X107434D01*
X110187Y147342D01*
G75*
G02*
X105889Y149865I-468J4124D01*
G01*
X103548D01*
G75*
G02*
X95569Y151465I-3829J1600D01*
G01*
G75*
G02*
X103548Y153065I4150J0D01*
G01*
X105889D01*
G75*
G02*
X113842Y150997I3829J-1601D01*
G01*
X141289Y178444D01*
G75*
G02*
X141245Y178938I2756J493D01*
G01*
G75*
G02*
X146842Y179069I2800J0D01*
G01*
G75*
G02*
X150094Y178037I954J-2632D01*
G01*
X157380D01*
G75*
G02*
X155569Y181465I2339J3428D01*
G01*
G75*
G02*
X163548Y183065I4150J0D01*
G01*
X165889D01*
G75*
G02*
X173869Y181465I3829J-1600D01*
G01*
G75*
G02*
X172057Y178037I-4150J0D01*
G01*
X174993D01*
G75*
G02*
X176125Y177567I0J-1600D01*
G01*
X183312Y170380D01*
G75*
G02*
X183782Y169247I-1130J-1133D01*
G01*
Y129031D01*
G75*
G02*
X184921Y127315I-1600J-2298D01*
G01*
Y199495D01*
X173371D01*
G75*
G02*
X166055Y199515I-3652J1970D01*
G01*
X163382D01*
G75*
G02*
X159557Y197319I-3663J1950D01*
G01*
X155373Y193135D01*
Y190817D01*
G75*
G02*
X154802Y189438I-1950J0D01*
G01*
X152614Y187250D01*
G75*
G02*
X151235Y186678I-1379J1379D01*
G01*
X127165D01*
G75*
G02*
X125786Y187250I0J1950D01*
G01*
X118596Y194439D01*
G75*
G02*
X118025Y195818I1379J1379D01*
G01*
Y201623D01*
X115518D01*
Y210020D01*
X118055D01*
G75*
G02*
X118340Y210382I1665J-1018D01*
G01*
X123598Y215640D01*
G75*
G02*
X124977Y216211I1378J-1379D01*
G01*
X127261D01*
X133143Y222093D01*
X127974Y227262D01*
G75*
G02*
X127894Y227347I1377J1381D01*
G01*
X126195D01*
Y226950D01*
X119057D01*
Y230774D01*
X113293Y225010D01*
G75*
G02*
X112472Y224571I-1133J1130D01*
G01*
G75*
G02*
X113869Y221465I-2753J-3106D01*
G01*
G75*
G02*
X105889Y219865I-4150J0D01*
G01*
X103548D01*
G75*
G02*
X95895Y219851I-3829J1600D01*
G01*
X94967D01*
G75*
G02*
X93835Y220321I0J1600D01*
G01*
X90179Y223977D01*
X213534Y113286D02*
G75*
G02*
X222734I4600J0D01*
G01*
G75*
G02*
X213534I-4600J0D01*
G01*
X165315Y72342D02*
G75*
G02*
X170915I2800J0D01*
G01*
G75*
G02*
X167622Y69585I-2800J0D01*
G01*
X158619Y60583D01*
G75*
G02*
X157486Y60113I-1133J1130D01*
G01*
X147873D01*
G75*
G02*
X139274Y61713I-4150J1600D01*
G01*
G75*
G02*
X147873Y63313I4448J0D01*
G01*
X156824D01*
X165359Y71848D01*
G75*
G02*
X165315Y72342I2756J493D01*
G01*
X221691Y64678D02*
G75*
G02*
X231132Y61713I4255J-2965D01*
G01*
G75*
G02*
X221691Y58748I-5186J0D01*
G01*
Y56127D01*
X210518D01*
Y67300D01*
X221691D01*
Y64678D01*
X126153Y73905D02*
G75*
G02*
X132553I3200J0D01*
G01*
G75*
G02*
X126153I-3200J0D01*
G01*
X133880Y66161D02*
G75*
G02*
X138328Y61713I0J-4448D01*
G01*
G75*
G02*
X133880Y57265I-4448J0D01*
G01*
G75*
G02*
X129432Y61713I0J4448D01*
G01*
G75*
G02*
X133880Y66161I4448J0D01*
G01*
X124037D02*
G75*
G02*
X128485Y61713I0J-4448D01*
G01*
G75*
G02*
X124037Y57265I-4448J0D01*
G01*
G75*
G02*
X119589Y61713I0J4448D01*
G01*
G75*
G02*
X124037Y66161I4448J0D01*
G01*
X109348Y66560D02*
X119041D01*
Y56863D01*
X109348D01*
Y66560D01*
X118026Y125796D02*
G75*
G02*
X124426I3200J0D01*
G01*
G75*
G02*
X118026I-3200J0D01*
G01*
X165889Y193065D02*
G75*
G02*
X173869Y191465I3829J-1600D01*
G01*
G75*
G02*
X165889Y189865I-4150J0D01*
G01*
X163548D01*
G75*
G02*
X155569Y191465I-3829J1600D01*
G01*
G75*
G02*
X163548Y193065I4150J0D01*
G01*
X165889D01*
X127091Y177375D02*
G75*
G02*
X133491I3200J0D01*
G01*
G75*
G02*
X127091I-3200J0D01*
G01*
X116463Y219888D02*
G75*
G02*
X122863I3200J0D01*
G01*
G75*
G02*
X116463I-3200J0D01*
G01*
X105569Y211465D02*
G75*
G02*
X113869I4150J0D01*
G01*
G75*
G02*
X105569I-4150J0D01*
G01*
X105889Y163065D02*
G75*
G02*
X113869Y161465I3829J-1600D01*
G01*
G75*
G02*
X105889Y159865I-4150J0D01*
G01*
X103548D01*
G75*
G02*
X95569Y161465I-3829J1600D01*
G01*
G75*
G02*
X103548Y163065I4150J0D01*
G01*
X105889D01*
Y173065D02*
G75*
G02*
X113869Y171465I3829J-1600D01*
G01*
G75*
G02*
X105889Y169865I-4150J0D01*
G01*
X103548D01*
G75*
G02*
X95569Y171465I-3829J1600D01*
G01*
G75*
G02*
X103548Y173065I4150J0D01*
G01*
X105889D01*
Y183065D02*
G75*
G02*
X113869Y181465I3829J-1600D01*
G01*
G75*
G02*
X105889Y179865I-4150J0D01*
G01*
X103548D01*
G75*
G02*
X95569Y181465I-3829J1600D01*
G01*
G75*
G02*
X103548Y183065I4150J0D01*
G01*
X105889D01*
Y193065D02*
G75*
G02*
X113869Y191465I3829J-1600D01*
G01*
G75*
G02*
X105889Y189865I-4150J0D01*
G01*
X103548D01*
G75*
G02*
X95569Y191465I-3829J1600D01*
G01*
G75*
G02*
X103548Y193065I4150J0D01*
G01*
X105889D01*
Y203065D02*
G75*
G02*
X113869Y201465I3829J-1600D01*
G01*
G75*
G02*
X105889Y199865I-4150J0D01*
G01*
X103548D01*
G75*
G02*
X95569Y201465I-3829J1600D01*
G01*
G75*
G02*
X103548Y203065I4150J0D01*
G01*
X105889D01*
X95569Y211465D02*
G75*
G02*
X103869I4150J0D01*
G01*
G75*
G02*
X95569I-4150J0D01*
G01*
X90779Y61713D02*
G36*
X90779Y61713D02*
Y28765D01*
X239514D01*
Y61713D01*
X231132D01*
G75*
G02*
X221691Y58748I-5186J1D01*
G01*
Y56127D01*
X210518D01*
Y61713D01*
X187056D01*
G75*
G02*
X182778Y56607I-5187J1D01*
G01*
X176438Y50268D01*
G75*
G02*
X175305Y49798I-1132J1129D01*
G01*
X99656D01*
G75*
G02*
X98524Y50268I0J1599D01*
G01*
X92587Y56204D01*
G75*
G02*
X92117Y57337I1129J1132D01*
G01*
Y57337D01*
Y61713D01*
X90779D01*
G37*
X95317D02*
G36*
X95317Y61713D02*
Y58000D01*
X100319Y52998D01*
X174643D01*
X179023Y57378D01*
G75*
G02*
X177612Y58752I2844J4331D01*
G01*
Y56127D01*
X166441D01*
Y61713D01*
X159749D01*
X158619Y60583D01*
G75*
G02*
X157486Y60113I-1132J1129D01*
G01*
X147873D01*
G75*
G02*
X139274Y61712I-4150J1600D01*
G01*
Y61713D01*
X138328D01*
G75*
G02*
X133880Y57265I-4448J0D01*
G01*
G75*
G02*
X129432Y61713I0J4448D01*
G01*
X128485D01*
G75*
G02*
X124037Y57265I-4448J0D01*
G01*
G75*
G02*
X119589Y61713I0J4448D01*
G01*
X119041D01*
Y56863D01*
X109348D01*
Y61713D01*
X95317D01*
G37*
X90779Y66203D02*
G36*
X90779Y66203D02*
Y61713D01*
X92117D01*
Y66203D01*
X90779D01*
G37*
X95317D02*
G36*
X95317Y66203D02*
Y61713D01*
X109348D01*
Y66203D01*
X95317D01*
G37*
X119041D02*
G36*
X119041Y66203D02*
Y61713D01*
X119589D01*
G75*
G02*
X124037Y66161I4448J0D01*
G01*
G75*
G02*
X128485Y61713I0J-4448D01*
G01*
X129432D01*
G75*
G02*
X133880Y66161I4448J0D01*
G01*
G75*
G02*
X138328Y61713I0J-4448D01*
G01*
X139274D01*
Y61713D01*
G75*
G02*
X147873Y63313I4448J0D01*
G01*
X156824D01*
X159714Y66203D01*
X119041D01*
G37*
X164240D02*
G36*
X164240Y66203D02*
X159749Y61713D01*
X166441D01*
Y66203D01*
X164240D01*
G37*
X177612D02*
G36*
X177612Y66203D02*
Y64675D01*
G75*
G02*
X179274Y66203I4257J-2962D01*
G01*
X177612D01*
G37*
X187056Y61713D02*
G36*
X187056Y61713D02*
X210518Y61713D01*
Y66203D01*
X184465D01*
G75*
G02*
X187056Y61713I-2596J-4490D01*
G01*
G37*
X221691Y66203D02*
G36*
X221691Y66203D02*
Y64678D01*
G75*
G02*
X223350Y66203I4255J-2965D01*
G01*
X221691D01*
G37*
X231132Y61713D02*
G36*
X231132Y61713D02*
X239514Y61713D01*
Y66203D01*
X228542D01*
G75*
G02*
X231132Y61713I-2596J-4490D01*
G01*
G37*
X90779Y73905D02*
G36*
X90779Y73905D02*
Y66203D01*
X92117D01*
Y73905D01*
X90779D01*
G37*
X95317D02*
G36*
X95317Y73905D02*
Y66203D01*
X109348D01*
Y66560D01*
X119041D01*
Y66203D01*
X159714D01*
X165359Y71848D01*
G75*
G02*
X165315Y72342I2782J495D01*
G01*
G75*
G02*
X165792Y73905I2800J0D01*
G01*
X132553D01*
G75*
G02*
X126153I-3200J0D01*
G01*
X109947D01*
Y70190D01*
X101246D01*
Y73905D01*
X95317D01*
G37*
X164240Y66203D02*
G36*
X164240Y66203D02*
X166441D01*
Y67300D01*
X177612D01*
Y66203D01*
X179274D01*
G75*
G02*
X184465I2596J-4490D01*
G01*
X210518D01*
Y67300D01*
X221691D01*
Y66203D01*
X223350D01*
G75*
G02*
X228542I2596J-4490D01*
G01*
X239514D01*
Y73905D01*
X170439D01*
G75*
G02*
X170915Y72342I-2323J-1563D01*
G01*
Y72341D01*
G75*
G02*
X167622Y69585I-2800J0D01*
G01*
X164240Y66203D01*
G37*
X90779Y113286D02*
G36*
X90779Y113286D02*
Y73905D01*
X92117D01*
Y113286D01*
X90779D01*
G37*
X95317D02*
G36*
X95317Y113286D02*
Y73905D01*
X101246D01*
Y95028D01*
X109947D01*
Y89364D01*
X112175Y91592D01*
G75*
G02*
X113208Y92081I1202J-1202D01*
G01*
X109395Y95894D01*
G75*
G02*
X108897Y97096I1203J1203D01*
G01*
Y104442D01*
X101246D01*
Y113286D01*
X95317D01*
G37*
X109947Y84556D02*
G36*
X109947Y84556D02*
Y73905D01*
X126153D01*
G75*
G02*
X132553I3200J0D01*
G01*
X165792D01*
G75*
G02*
X170439I2323J-1563D01*
G01*
X239514D01*
Y113286D01*
X232334D01*
G75*
G02*
X230607Y109891I-4200J0D01*
G01*
X234386D01*
G75*
G02*
X235519Y109420I0J-1599D01*
G01*
X238017Y106922D01*
G75*
G02*
X238487Y105790I-1129J-1132D01*
G01*
Y105790D01*
Y89847D01*
Y89847D01*
G75*
G02*
X238017Y88715I-1599J0D01*
G01*
X227704Y78402D01*
G75*
G02*
X226571Y77931I-1132J1129D01*
G01*
X159050D01*
G75*
G02*
X157917Y78402I0J1599D01*
G01*
X156104Y80215D01*
G75*
G02*
X155859Y80528I1117J1123D01*
G01*
X154558D01*
G75*
G02*
X156223Y77969I-1136J-2561D01*
G01*
G75*
G02*
X150623I-2800J0D01*
G01*
G75*
G02*
X150648Y78340I2827J-2D01*
G01*
X150558Y78429D01*
G75*
G02*
X150596Y77969I-2762J-461D01*
G01*
G75*
G02*
X145608Y76222I-2800J0D01*
G01*
G75*
G02*
X140620Y77969I-2188J1747D01*
G01*
G75*
G02*
X142285Y80528I2801J-1D01*
G01*
X135955D01*
Y82933D01*
X135715D01*
G75*
G02*
X130617Y84533I-2298J1600D01*
G01*
G75*
G02*
X135715Y86133I2800J0D01*
G01*
X135955D01*
Y88009D01*
X128474D01*
Y88690D01*
X125333D01*
Y83446D01*
X125730D01*
Y76308D01*
X118596D01*
Y83446D01*
X118994D01*
Y84870D01*
X117545D01*
G75*
G02*
X116341Y85369I-2J1700D01*
G01*
X113550Y88159D01*
X109947Y84556D01*
G37*
Y113286D02*
G36*
X109947Y113286D02*
Y112121D01*
X111302Y110767D01*
X118994D01*
Y112190D01*
X118596D01*
Y113286D01*
X109947D01*
G37*
X125333Y112190D02*
G36*
X125333Y112190D02*
Y104688D01*
X128474D01*
Y113286D01*
X125730D01*
Y112190D01*
X125333D01*
G37*
X170246Y91589D02*
G36*
X170246Y91589D02*
Y88268D01*
X171131Y87383D01*
X208091D01*
X208719Y88012D01*
Y93914D01*
Y93915D01*
G75*
G02*
X209189Y95047I1599J0D01*
G01*
X214185Y100043D01*
G75*
G02*
X215007Y100482I1133J-1130D01*
G01*
G75*
G02*
X213934Y103286I3127J2804D01*
G01*
G75*
G02*
X219744Y107165I4200J0D01*
G01*
X222000Y109420D01*
G75*
G02*
X223133Y109891I1132J-1129D01*
G01*
X225662D01*
G75*
G02*
X223934Y113286I2473J3395D01*
G01*
X222734D01*
G75*
G02*
X213534I-4600J0D01*
G01*
X188821D01*
Y96136D01*
G75*
G02*
X190071Y93598I-1952J-2538D01*
G01*
G75*
G02*
X184334Y91648I-3200J0D01*
G01*
X178474D01*
Y90150D01*
X172136D01*
Y91589D01*
X170246D01*
G37*
X90779Y125796D02*
G36*
X90779Y125796D02*
Y113286D01*
X92117D01*
Y125796D01*
X90779D01*
G37*
X95317D02*
G36*
X95317Y125796D02*
Y113286D01*
X101246D01*
Y125796D01*
X95317D01*
G37*
X109947D02*
G36*
X109947Y125796D02*
Y113286D01*
X118596D01*
Y119328D01*
X125730D01*
Y113286D01*
X128474D01*
Y114179D01*
X127285Y115368D01*
G75*
G02*
X126815Y116500I1129J1132D01*
G01*
Y116501D01*
Y125759D01*
X126778Y125796D01*
X124426D01*
G75*
G02*
X118026I-3200J0D01*
G01*
X109947D01*
G37*
X188821Y122619D02*
G36*
X188821Y122619D02*
Y113286D01*
X213534D01*
G75*
G02*
X222734I4600J0D01*
G01*
X223934D01*
G75*
G02*
X232334I4200J0D01*
G01*
X239514D01*
Y122458D01*
X189685D01*
G75*
G02*
X188821Y122619I1J2405D01*
G01*
G37*
X90779Y161465D02*
G36*
X90779Y161465D02*
Y125796D01*
X92117D01*
Y134549D01*
Y134549D01*
G75*
G02*
X92587Y135681I1599J0D01*
G01*
X101024Y144119D01*
G75*
G02*
X102157Y144589I1132J-1129D01*
G01*
X107434D01*
X110187Y147342D01*
G75*
G02*
X105889Y149865I-469J4123D01*
G01*
X103548D01*
G75*
G02*
X95569Y151465I-3829J1600D01*
G01*
G75*
G02*
X103548Y153065I4150J0D01*
G01*
X105889D01*
G75*
G02*
X113869Y151465I3829J-1601D01*
G01*
G75*
G02*
X113842Y150997I-4150J0D01*
G01*
X124310Y161465D01*
X113869D01*
G75*
G02*
X105889Y159865I-4150J0D01*
G01*
X103548D01*
G75*
G02*
X95569Y161465I-3829J1600D01*
G01*
X90779D01*
G37*
X95317Y129075D02*
G36*
X95317Y129075D02*
Y125796D01*
X101246D01*
Y129280D01*
X109947D01*
Y125796D01*
X118026D01*
G75*
G02*
X124426I3200J0D01*
G01*
X126778D01*
X122751Y129823D01*
X99141D01*
G75*
G02*
X95317Y129075I-2298J1600D01*
G01*
G37*
X183782Y161465D02*
G36*
X183782Y161465D02*
Y129031D01*
G75*
G02*
X184921Y127315I-1600J-2298D01*
G01*
Y161465D01*
X183782D01*
G37*
X90779Y171465D02*
G36*
X90779Y171465D02*
Y161465D01*
X95569D01*
G75*
G02*
X103548Y163065I4150J0D01*
G01*
X105889D01*
G75*
G02*
X113869Y161465I3829J-1600D01*
G01*
X124310D01*
X134310Y171465D01*
X113869D01*
G75*
G02*
X105889Y169865I-4150J0D01*
G01*
X103548D01*
G75*
G02*
X95569Y171465I-3829J1600D01*
G01*
X90779D01*
G37*
X182227D02*
G36*
X182227Y171465D02*
X183312Y170380D01*
G75*
G02*
X183782Y169248I-1129J-1132D01*
G01*
Y169247D01*
Y161465D01*
X184921D01*
Y171465D01*
X182227D01*
G37*
X90779Y177375D02*
G36*
X90779Y177375D02*
Y171465D01*
X95569D01*
G75*
G02*
X103548Y173065I4150J0D01*
G01*
X105889D01*
G75*
G02*
X113869Y171465I3829J-1600D01*
G01*
X134310D01*
X140219Y177375D01*
X133491D01*
G75*
G02*
X127091I-3200J0D01*
G01*
X110418D01*
G75*
G02*
X109019I-699J4091D01*
G01*
X100418D01*
G75*
G02*
X99019I-699J4091D01*
G01*
X90779D01*
G37*
X176317D02*
G36*
X176317Y177375D02*
X182227Y171465D01*
X184921D01*
Y177375D01*
X176317D01*
G37*
X90779Y181465D02*
G36*
X90779Y181465D02*
Y177375D01*
X99019D01*
G75*
G02*
X95569Y181465I699J4091D01*
G01*
X90779D01*
G37*
X103548Y179865D02*
G36*
X103548Y179865D02*
G75*
G02*
X100418Y177375I-3829J1600D01*
G01*
X109019D01*
G75*
G02*
X105889Y179865I699J4091D01*
G01*
X103548D01*
G37*
X113869Y181465D02*
G36*
X113869Y181465D02*
G75*
G02*
X110418Y177375I-4150J0D01*
G01*
X127091D01*
G75*
G02*
X133491I3200J0D01*
G01*
X140219D01*
X141289Y178444D01*
G75*
G02*
X141245Y178938I2782J495D01*
G01*
G75*
G02*
X142841Y181465I2800J0D01*
G01*
X113869D01*
G37*
X145250D02*
G36*
X145250Y181465D02*
G75*
G02*
X146842Y179069I-1205J-2528D01*
G01*
G75*
G02*
X150094Y178037I954J-2633D01*
G01*
X157380D01*
G75*
G02*
X155569Y181465I2339J3429D01*
G01*
X145250D01*
G37*
X173869D02*
G36*
X173869Y181465D02*
G75*
G02*
X172057Y178037I-4151J0D01*
G01*
X174993D01*
G75*
G02*
X176125Y177567I0J-1599D01*
G01*
X176317Y177375D01*
X184921D01*
Y181465D01*
X173869D01*
G37*
X90779Y191465D02*
G36*
X90779Y191465D02*
Y181465D01*
X95569D01*
G75*
G02*
X103548Y183065I4150J0D01*
G01*
X105889D01*
G75*
G02*
X113869Y181465I3829J-1600D01*
G01*
X142841D01*
G75*
G02*
X145250I1205J-2528D01*
G01*
X155569D01*
G75*
G02*
X163548Y183065I4150J0D01*
G01*
X165889D01*
G75*
G02*
X173869Y181465I3829J-1600D01*
G01*
X184921D01*
Y191465D01*
X173869D01*
G75*
G02*
X165889Y189865I-4150J0D01*
G01*
X163548D01*
G75*
G02*
X155569Y191465I-3829J1600D01*
G01*
X155373D01*
Y190817D01*
G75*
G02*
X154802Y189438I-1950J0D01*
G01*
X152614Y187250D01*
G75*
G02*
X151235Y186678I-1379J1378D01*
G01*
X127165D01*
G75*
G02*
X125786Y187250I0J1950D01*
G01*
X121570Y191465D01*
X113869D01*
G75*
G02*
X105889Y189865I-4150J0D01*
G01*
X103548D01*
G75*
G02*
X95569Y191465I-3829J1600D01*
G01*
X90779D01*
G37*
Y201465D02*
G36*
X90779Y201465D02*
Y191465D01*
X95569D01*
G75*
G02*
X103548Y193065I4150J0D01*
G01*
X105889D01*
G75*
G02*
X113869Y191465I3829J-1600D01*
G01*
X121570D01*
X118596Y194439D01*
G75*
G02*
X118025Y195818I1378J1379D01*
G01*
Y201465D01*
X113869D01*
G75*
G02*
X105889Y199865I-4150J0D01*
G01*
X103548D01*
G75*
G02*
X95569Y201465I-3829J1600D01*
G01*
X90779D01*
G37*
X155373Y193135D02*
G36*
X155373Y193135D02*
Y191465D01*
X155569D01*
G75*
G02*
X163548Y193065I4150J0D01*
G01*
X165889D01*
G75*
G02*
X173869Y191465I3829J-1600D01*
G01*
X184921D01*
Y199495D01*
X173371D01*
G75*
G02*
X166055Y199515I-3652J1970D01*
G01*
X163382D01*
G75*
G02*
X159557Y197319I-3663J1949D01*
G01*
X155373Y193135D01*
G37*
X90779Y211465D02*
G36*
X90779Y211465D02*
Y201465D01*
X95569D01*
G75*
G02*
X103548Y203065I4150J0D01*
G01*
X105889D01*
G75*
G02*
X113869Y201465I3829J-1600D01*
G01*
X118025D01*
Y201623D01*
X115518D01*
Y210020D01*
X118055D01*
G75*
G02*
X118340Y210382I1670J-1023D01*
G01*
X119423Y211465D01*
X113869D01*
G75*
G02*
X105569I-4150J0D01*
G01*
X103869D01*
G75*
G02*
X95569I-4150J0D01*
G01*
X90779D01*
G37*
Y219888D02*
G36*
X90779Y219888D02*
Y211465D01*
X95569D01*
G75*
G02*
X103869I4150J0D01*
G01*
X105569D01*
G75*
G02*
X113869I4150J0D01*
G01*
X119423D01*
X123598Y215640D01*
G75*
G02*
X124977Y216211I1379J-1381D01*
G01*
X127261D01*
X130939Y219888D01*
X122863D01*
G75*
G02*
X116463I-3200J0D01*
G01*
X113557D01*
G75*
G02*
X105889Y219865I-3839J1577D01*
G01*
X103548D01*
G75*
G02*
X95895Y219851I-3829J1600D01*
G01*
X94967D01*
G75*
G02*
X94625Y219888I0J1598D01*
G01*
X90779D01*
G37*
Y223377D02*
G36*
X90779Y223377D02*
Y219888D01*
X94625D01*
G75*
G02*
X93835Y220321I342J1562D01*
G01*
X90779Y223377D01*
G37*
X113293Y225010D02*
G36*
X113293Y225010D02*
G75*
G02*
X112472Y224571I-1133J1131D01*
G01*
G75*
G02*
X113869Y221465I-2754J-3106D01*
G01*
G75*
G02*
X113557Y219888I-4150J0D01*
G01*
X116463D01*
G75*
G02*
X122863I3200J0D01*
G01*
X130939D01*
X133143Y222093D01*
X127974Y227262D01*
G75*
G02*
X127894Y227347I1076J1097D01*
G01*
X126195D01*
Y226950D01*
X119057D01*
Y230174D01*
X118457D01*
X113293Y225010D01*
G37*
X90179Y384728D02*
Y368348D01*
X101650Y379818D01*
G75*
G02*
X102782Y380288I1133J-1130D01*
G01*
X115489D01*
G75*
G02*
X120587Y378688I2298J-1600D01*
G01*
G75*
G02*
X115489Y377088I-2800J0D01*
G01*
X103445D01*
X91878Y365522D01*
Y360981D01*
X94460Y363563D01*
G75*
G02*
X95593Y364033I1133J-1130D01*
G01*
X174017D01*
X177381Y367398D01*
G75*
G02*
X181058Y374350I3676J2504D01*
G01*
G75*
G02*
Y365454I0J-4448D01*
G01*
G75*
G02*
X180074Y365564I0J4447D01*
G01*
X175813Y361303D01*
G75*
G02*
X174680Y360833I-1133J1130D01*
G01*
X96255D01*
X93754Y358332D01*
Y307527D01*
X95951Y309725D01*
G75*
G02*
X103058Y313929I3767J1741D01*
G01*
Y316756D01*
X101887Y317927D01*
G75*
G02*
X95569Y321465I-2169J3538D01*
G01*
G75*
G02*
X103869I4150J0D01*
G01*
G75*
G02*
X103770Y320569I-4151J0D01*
G01*
X105788Y318552D01*
G75*
G02*
X106258Y317419I-1130J-1133D01*
G01*
Y313756D01*
G75*
G02*
X112123Y314848I3461J-2291D01*
G01*
Y317694D01*
X111889Y317928D01*
G75*
G02*
X107339Y324865I-2170J3537D01*
G01*
X104658D01*
G75*
G02*
X103525Y325335I0J1600D01*
G01*
X101252Y327609D01*
G75*
G02*
X95569Y331465I-1533J3856D01*
G01*
G75*
G02*
X103869I4150J0D01*
G01*
G75*
G02*
X103540Y329846I-4150J0D01*
G01*
X105320Y328065D01*
X107339D01*
G75*
G02*
Y334865I2380J3400D01*
G01*
X104719D01*
G75*
G02*
X103441Y335503I0J1600D01*
G01*
X101628Y337316D01*
X95569D01*
Y345615D01*
X103868D01*
Y339600D01*
X105403Y338065D01*
X105569D01*
Y345615D01*
X113868D01*
Y343065D01*
X119232D01*
G75*
G02*
X119520Y343089I274J-1578D01*
G01*
X121538D01*
G75*
G02*
X122671Y342619I0J-1600D01*
G01*
X128547Y336743D01*
G75*
G02*
X131841Y333987I493J-2756D01*
G01*
G75*
G02*
X126241I-2800J0D01*
G01*
G75*
G02*
X126284Y334480I2799J1D01*
G01*
X120876Y339889D01*
X119757D01*
G75*
G02*
X119469Y339865I-274J1578D01*
G01*
X113868D01*
Y337316D01*
X112969D01*
X119855Y330430D01*
G75*
G02*
X120325Y329298I-1130J-1133D01*
G01*
Y326020D01*
X122040D01*
G75*
G02*
X122073Y326054I1162J-1102D01*
G01*
X125821Y329802D01*
G75*
G02*
X126954Y330272I1133J-1130D01*
G01*
X129869D01*
G75*
G02*
X134967Y328672I2298J-1600D01*
G01*
G75*
G02*
X134093Y326641I-2800J0D01*
G01*
G75*
G02*
X130759Y322188I-1926J-2032D01*
G01*
X129212Y320642D01*
G75*
G02*
X129070Y320415I-1423J732D01*
G01*
X137371D01*
G75*
G02*
X142179Y320056I2298J-1600D01*
G01*
Y325729D01*
X135939D01*
Y332867D01*
X143077D01*
Y332465D01*
X144773D01*
G75*
G02*
X144856Y332553I1459J-1291D01*
G01*
X150481Y338179D01*
G75*
G02*
X151861Y338750I1379J-1379D01*
G01*
X156580D01*
G75*
G02*
X155569Y341465I3138J2716D01*
G01*
G75*
G02*
X163548Y343065I4150J0D01*
G01*
X165889D01*
G75*
G02*
X171256Y345320I3829J-1600D01*
G01*
G75*
G02*
X175267Y347778I2799J-67D01*
G01*
X192616Y365126D01*
G75*
G02*
X193748Y365596I1133J-1130D01*
G01*
X199626D01*
G75*
G02*
X200743Y374350I1117J4306D01*
G01*
G75*
G02*
X201860Y365596I0J-4448D01*
G01*
X204027D01*
X206522Y368092D01*
G75*
G02*
X210585Y374350I4063J1810D01*
G01*
G75*
G02*
Y365454I0J-4448D01*
G01*
G75*
G02*
X208789Y365833I0J4448D01*
G01*
X205822Y362866D01*
G75*
G02*
X204689Y362396I-1133J1130D01*
G01*
X194411D01*
X176818Y344803D01*
G75*
G02*
X175802Y343065I-2763J450D01*
G01*
X182206D01*
G75*
G02*
X183339Y342595I0J-1600D01*
G01*
X183877Y342057D01*
G75*
G02*
X187170Y339301I493J-2756D01*
G01*
G75*
G02*
X183958Y336531I-2800J0D01*
G01*
X187285Y333205D01*
Y353055D01*
G75*
G02*
X189685Y355455I2400J0D01*
G01*
X240114D01*
Y384728D01*
X90179D01*
X131845Y374350D02*
G75*
G02*
Y365454I0J-4448D01*
G01*
G75*
G02*
X127397Y369902I0J4448D01*
G01*
G75*
G02*
X131845Y374350I4448J0D01*
G01*
X141688D02*
G75*
G02*
Y365454I0J-4448D01*
G01*
G75*
G02*
X137240Y369902I0J4448D01*
G01*
G75*
G02*
X141688Y374350I4448J0D01*
G01*
X151530D02*
G75*
G02*
Y365454I0J-4448D01*
G01*
G75*
G02*
X147082Y369902I0J4448D01*
G01*
G75*
G02*
X151530Y374350I4448J0D01*
G01*
X161373D02*
G75*
G02*
Y365454I0J-4448D01*
G01*
G75*
G02*
X156925Y369902I0J4448D01*
G01*
G75*
G02*
X161373Y374350I4448J0D01*
G01*
X171215D02*
G75*
G02*
Y365454I0J-4448D01*
G01*
G75*
G02*
X166767Y369902I0J4448D01*
G01*
G75*
G02*
X171215Y374350I4448J0D01*
G01*
X190900D02*
G75*
G02*
X192295Y365678I0J-4448D01*
G01*
G75*
G02*
X192030Y365330I-1395J785D01*
G01*
X182377Y355676D01*
G75*
G02*
X181244Y355206I-1133J1130D01*
G01*
X100580D01*
G75*
G02*
X95293Y356494I-2487J1287D01*
G01*
G75*
G02*
X100138Y358406I2800J0D01*
G01*
X180582D01*
X188399Y366224D01*
G75*
G02*
X190900Y374350I2502J3678D01*
G01*
X136156Y338050D02*
G75*
G02*
X142556I3200J0D01*
G01*
G75*
G02*
X136156I-3200J0D01*
G01*
X220428Y374350D02*
G75*
G02*
Y365454I0J-4448D01*
G01*
G75*
G02*
X215980Y369902I0J4448D01*
G01*
G75*
G02*
X220428Y374350I4448J0D01*
G01*
X122003D02*
G75*
G02*
Y365454I0J-4448D01*
G01*
G75*
G02*
X117555Y369902I0J4448D01*
G01*
G75*
G02*
X122003Y374350I4448J0D01*
G01*
X107313Y374749D02*
X117010D01*
Y365052D01*
X107313D01*
Y374749D01*
X93754Y338050D02*
G36*
X93754Y338050D02*
Y308127D01*
X94354D01*
X95951Y309725D01*
G75*
G02*
X95569Y311465I3768J1741D01*
G01*
G75*
G02*
X103058Y313929I4150J0D01*
G01*
Y316756D01*
X101887Y317927D01*
G75*
G02*
X95569Y321465I-2169J3538D01*
G01*
G75*
G02*
X103869I4150J0D01*
G01*
G75*
G02*
Y321463I-3948J-1D01*
G01*
G75*
G02*
X103770Y320569I-4122J0D01*
G01*
X105788Y318552D01*
G75*
G02*
X106258Y317419I-1129J-1132D01*
G01*
Y317419D01*
Y313756D01*
G75*
G02*
X112123Y314848I3461J-2291D01*
G01*
Y317694D01*
X111889Y317928D01*
G75*
G02*
X105569Y321465I-2170J3537D01*
G01*
G75*
G02*
X107339Y324865I4150J0D01*
G01*
X104658D01*
G75*
G02*
X103525Y325335I0J1599D01*
G01*
X101252Y327609D01*
G75*
G02*
X95569Y331465I-1533J3856D01*
G01*
G75*
G02*
X103869I4150J0D01*
G01*
G75*
G02*
X103540Y329846I-4153J0D01*
G01*
X105320Y328065D01*
X107339D01*
G75*
G02*
X105569Y331465I2380J3400D01*
G01*
G75*
G02*
X107339Y334865I4150J0D01*
G01*
X104719D01*
G75*
G02*
X103441Y335503I0J1599D01*
G01*
X101628Y337316D01*
X95569D01*
Y338050D01*
X93754D01*
G37*
X113868Y337316D02*
G36*
X113868Y337316D02*
X112969D01*
X119855Y330430D01*
G75*
G02*
X120325Y329298I-1129J-1132D01*
G01*
Y329298D01*
Y326020D01*
X122040D01*
G75*
G02*
X122073Y326054I719J-670D01*
G01*
X125821Y329802D01*
G75*
G02*
X126954Y330272I1132J-1129D01*
G01*
X129869D01*
G75*
G02*
X134967Y328672I2298J-1600D01*
G01*
Y328672D01*
G75*
G02*
X134093Y326641I-2799J0D01*
G01*
G75*
G02*
X134967Y324609I-1926J-2032D01*
G01*
G75*
G02*
X130759Y322188I-2800J0D01*
G01*
X129212Y320642D01*
G75*
G02*
X129070Y320415I-1395J715D01*
G01*
X137371D01*
G75*
G02*
X142179Y320056I2298J-1600D01*
G01*
Y325729D01*
X135939D01*
Y332867D01*
X143077D01*
Y332465D01*
X144773D01*
G75*
G02*
X144856Y332553I1393J-1230D01*
G01*
X150353Y338050D01*
X142556D01*
G75*
G02*
X136156I-3200J0D01*
G01*
X127240D01*
X128547Y336743D01*
G75*
G02*
X131841Y333987I493J-2756D01*
G01*
Y333987D01*
G75*
G02*
X126241I-2800J0D01*
G01*
G75*
G02*
X126284Y334480I2826J-2D01*
G01*
X122714Y338050D01*
X113868D01*
Y337316D01*
G37*
X186876Y338050D02*
G36*
X186876Y338050D02*
G75*
G02*
X183958Y336531I-2506J1250D01*
G01*
X187285Y333205D01*
Y338050D01*
X186876D01*
G37*
X90779Y369902D02*
G36*
X90779Y369902D02*
Y368948D01*
X91733Y369902D01*
X90779D01*
G37*
X91878Y365522D02*
G36*
X91878Y365522D02*
Y360981D01*
X94460Y363563D01*
G75*
G02*
X95593Y364033I1132J-1129D01*
G01*
X174017D01*
X177381Y367398D01*
G75*
G02*
X176609Y369902I3676J2504D01*
G01*
X175663D01*
G75*
G02*
X171215Y365454I-4448J0D01*
G01*
G75*
G02*
X166767Y369902I0J4448D01*
G01*
X165821D01*
G75*
G02*
X161373Y365454I-4448J0D01*
G01*
G75*
G02*
X156925Y369902I0J4448D01*
G01*
X155978D01*
G75*
G02*
X151530Y365454I-4448J0D01*
G01*
G75*
G02*
X147082Y369902I0J4448D01*
G01*
X146136D01*
G75*
G02*
X141688Y365454I-4448J0D01*
G01*
G75*
G02*
X137240Y369902I0J4448D01*
G01*
X136293D01*
G75*
G02*
X131845Y365454I-4448J0D01*
G01*
G75*
G02*
X127397Y369902I0J4448D01*
G01*
X126451D01*
G75*
G02*
X122003Y365454I-4448J0D01*
G01*
G75*
G02*
X117555Y369902I0J4448D01*
G01*
X117010D01*
Y365052D01*
X107313D01*
Y369902D01*
X96258D01*
X91878Y365522D01*
G37*
X93754Y358332D02*
G36*
X93754Y358332D02*
Y338050D01*
X95569D01*
Y345615D01*
X103868D01*
Y339600D01*
X105403Y338065D01*
X105569D01*
Y345615D01*
X113868D01*
Y343065D01*
X119232D01*
G75*
G02*
X119520Y343089I270J-1531D01*
G01*
X121538D01*
G75*
G02*
X122671Y342619I0J-1599D01*
G01*
X127240Y338050D01*
X136156D01*
G75*
G02*
X142556I3200J0D01*
G01*
X150353D01*
X150481Y338179D01*
G75*
G02*
X151861Y338750I1379J-1378D01*
G01*
X156580D01*
G75*
G02*
X155569Y341465I3136J2715D01*
G01*
G75*
G02*
X163548Y343065I4150J1D01*
G01*
X165889D01*
G75*
G02*
X171256Y345320I3829J-1600D01*
G01*
G75*
G02*
X175267Y347778I2800J-67D01*
G01*
X192616Y365126D01*
G75*
G02*
X193748Y365596I1132J-1129D01*
G01*
X199626D01*
G75*
G02*
X196295Y369902I1117J4306D01*
G01*
X195348D01*
G75*
G02*
X192295Y365678I-4448J0D01*
G01*
G75*
G02*
X192030Y365330I-1396J786D01*
G01*
X182377Y355676D01*
G75*
G02*
X181244Y355206I-1132J1129D01*
G01*
X100580D01*
G75*
G02*
X95293Y356494I-2487J1287D01*
G01*
G75*
G02*
X100138Y358406I2800J0D01*
G01*
X180582D01*
X188399Y366224D01*
G75*
G02*
X186452Y369902I2502J3678D01*
G01*
X185506D01*
G75*
G02*
X181058Y365454I-4448J0D01*
G01*
G75*
G02*
X180074Y365564I-2J4434D01*
G01*
X175813Y361303D01*
G75*
G02*
X174680Y360833I-1132J1129D01*
G01*
X96255D01*
X93754Y358332D01*
G37*
X113868Y339865D02*
G36*
X113868Y339865D02*
Y338050D01*
X122714D01*
X120876Y339889D01*
X119757D01*
G75*
G02*
X119469Y339865I-270J1531D01*
G01*
X113868D01*
G37*
X176818Y344803D02*
G36*
X176818Y344803D02*
G75*
G02*
X175802Y343065I-2766J452D01*
G01*
X182206D01*
G75*
G02*
X183339Y342595I0J-1599D01*
G01*
X183877Y342057D01*
G75*
G02*
X187170Y339301I493J-2756D01*
G01*
Y339301D01*
Y339300D01*
G75*
G02*
X186876Y338050I-2800J0D01*
G01*
X187285D01*
Y353055D01*
G75*
G02*
X189685Y355455I2400J0D01*
G01*
X239514D01*
Y369902D01*
X224876D01*
G75*
G02*
X220428Y365454I-4448J0D01*
G01*
G75*
G02*
X215980Y369902I0J4448D01*
G01*
X215033D01*
G75*
G02*
X210585Y365454I-4448J0D01*
G01*
G75*
G02*
X208789Y365833I-1J4442D01*
G01*
X205822Y362866D01*
G75*
G02*
X204689Y362396I-1132J1129D01*
G01*
X194411D01*
X176818Y344803D01*
G37*
X201860Y365596D02*
G36*
X201860Y365596D02*
X204027D01*
X206522Y368092D01*
G75*
G02*
X206137Y369902I4063J1810D01*
G01*
X205191D01*
G75*
G02*
X201860Y365596I-4448J0D01*
G01*
G37*
X90779Y384128D02*
G36*
X90779Y384128D02*
Y369902D01*
X91733D01*
X101650Y379818D01*
G75*
G02*
X102782Y380288I1132J-1129D01*
G01*
X115489D01*
G75*
G02*
X120587Y378688I2298J-1600D01*
G01*
G75*
G02*
X115489Y377088I-2800J0D01*
G01*
X103445D01*
X96258Y369902D01*
X107313D01*
Y374749D01*
X117010D01*
Y369902D01*
X117555D01*
G75*
G02*
X122003Y374350I4448J0D01*
G01*
G75*
G02*
X126451Y369902I0J-4448D01*
G01*
X127397D01*
G75*
G02*
X131845Y374350I4448J0D01*
G01*
G75*
G02*
X136293Y369902I0J-4448D01*
G01*
X137240D01*
G75*
G02*
X141688Y374350I4448J0D01*
G01*
G75*
G02*
X146136Y369902I0J-4448D01*
G01*
X147082D01*
G75*
G02*
X151530Y374350I4448J0D01*
G01*
G75*
G02*
X155978Y369902I0J-4448D01*
G01*
X156925D01*
G75*
G02*
X161373Y374350I4448J0D01*
G01*
G75*
G02*
X165821Y369902I0J-4448D01*
G01*
X166767D01*
G75*
G02*
X171215Y374350I4448J0D01*
G01*
G75*
G02*
X175663Y369902I0J-4448D01*
G01*
X176609D01*
G75*
G02*
X181058Y374350I4448J0D01*
G01*
G75*
G02*
X185506Y369902I0J-4448D01*
G01*
X186452D01*
G75*
G02*
X190900Y374350I4448J0D01*
G01*
G75*
G02*
X195348Y369902I0J-4448D01*
G01*
X196295D01*
G75*
G02*
X200743Y374350I4448J0D01*
G01*
G75*
G02*
X205191Y369902I0J-4448D01*
G01*
X206137D01*
G75*
G02*
X210585Y374350I4448J0D01*
G01*
G75*
G02*
X215033Y369902I0J-4448D01*
G01*
X215980D01*
G75*
G02*
X220428Y374350I4448J0D01*
G01*
G75*
G02*
X224876Y369902I0J-4448D01*
G01*
X239514D01*
Y384128D01*
X90779D01*
G37*
X95630Y279470D02*
Y272174D01*
G75*
G02*
X103548Y273065I4089J-709D01*
G01*
X105889D01*
G75*
G02*
X112436Y274602I3829J-1600D01*
G01*
Y277816D01*
G75*
G02*
X106760Y284922I-2717J3650D01*
G01*
G75*
G02*
X106026Y285342I399J1550D01*
G01*
X103528Y287840D01*
G75*
G02*
X103058Y288972I1130J1133D01*
G01*
Y289002D01*
G75*
G02*
X95630Y290756I-3339J2464D01*
G01*
Y283461D01*
G75*
G02*
X104269Y281465I4089J-1996D01*
G01*
G75*
G02*
X95630Y279470I-4550J0D01*
G01*
G36*
X95630Y279470D02*
Y272174D01*
G75*
G02*
X103548Y273065I4089J-709D01*
G01*
X105889D01*
G75*
G02*
X112436Y274602I3829J-1600D01*
G01*
Y277816D01*
G75*
G02*
X106760Y284922I-2717J3650D01*
G01*
G75*
G02*
X106026Y285342I399J1550D01*
G01*
X103528Y287840D01*
G75*
G02*
X103058Y288972I1130J1133D01*
G01*
Y289002D01*
G75*
G02*
X95630Y290756I-3339J2464D01*
G01*
Y283461D01*
G75*
G02*
X104269Y281465I4089J-1996D01*
G01*
G75*
G02*
X95630Y279470I-4550J0D01*
G01*
G37*
X112297Y107367D02*
Y97800D01*
X116050Y94048D01*
X118596D01*
Y99820D01*
X118994D01*
Y107367D01*
X112297D01*
G36*
X112297Y107367D02*
Y97800D01*
X116050Y94048D01*
X118596D01*
Y99820D01*
X118994D01*
Y107367D01*
X112297D01*
G37*
X115323Y293451D02*
Y289322D01*
X116729Y287917D01*
G75*
G02*
X117199Y286784I-1130J-1133D01*
G01*
Y280355D01*
X117713D01*
Y281157D01*
G75*
G02*
X118284Y282536I1950J0D01*
G01*
X122381Y286633D01*
G75*
G02*
X123760Y287205I1379J-1379D01*
G01*
X131456D01*
X128254Y290407D01*
G75*
G02*
X127800Y291119I1379J1379D01*
G01*
X126508D01*
Y290717D01*
X119372D01*
Y291234D01*
G75*
G02*
X115323Y293451I-960J3053D01*
G01*
G36*
X115323Y293451D02*
Y289322D01*
X116729Y287917D01*
G75*
G02*
X117199Y286784I-1130J-1133D01*
G01*
Y280355D01*
X117713D01*
Y281157D01*
G75*
G02*
X118284Y282536I1950J0D01*
G01*
X122381Y286633D01*
G75*
G02*
X123760Y287205I1379J-1379D01*
G01*
X131456D01*
X128254Y290407D01*
G75*
G02*
X127800Y291119I1379J1379D01*
G01*
X126508D01*
Y290717D01*
X119372D01*
Y291234D01*
G75*
G02*
X115323Y293451I-960J3053D01*
G01*
G37*
Y305741D02*
Y295122D01*
G75*
G02*
X119372Y297339I3089J-835D01*
G01*
Y297855D01*
X126508D01*
Y297454D01*
X129904D01*
Y301124D01*
G75*
G02*
X127656Y301078I-1176J2541D01*
G01*
Y298414D01*
X118750D01*
Y302315D01*
X115323Y305741D01*
G36*
X115323Y305741D02*
Y295122D01*
G75*
G02*
X119372Y297339I3089J-835D01*
G01*
Y297855D01*
X126508D01*
Y297454D01*
X129904D01*
Y301124D01*
G75*
G02*
X127656Y301078I-1176J2541D01*
G01*
Y298414D01*
X118750D01*
Y302315D01*
X115323Y305741D01*
G37*
X121925Y201623D02*
Y196626D01*
X127973Y190578D01*
X145256D01*
G75*
G02*
X145131Y192612I2541J1176D01*
G01*
G75*
G02*
X141245Y195193I-1086J2581D01*
G01*
G75*
G02*
X146343Y196793I2800J0D01*
G01*
X146509D01*
X150937Y201221D01*
X145120D01*
Y210422D01*
X150936D01*
X146979Y214379D01*
G75*
G02*
X146509Y215512I1130J1133D01*
G01*
Y219568D01*
X140250D01*
Y220785D01*
X139711D01*
Y219568D01*
X136133D01*
X129448Y212882D01*
G75*
G02*
X128069Y212311I-1379J1378D01*
G01*
X125784D01*
X123494Y210020D01*
X123919D01*
Y201623D01*
X121925D01*
X135518Y210020D02*
X143919D01*
Y201623D01*
X135518D01*
Y210020D01*
X125518D02*
X133919D01*
Y201623D01*
X125518D01*
Y210020D01*
X127091Y194880D02*
G75*
G02*
X133491I3200J0D01*
G01*
G75*
G02*
X127091I-3200J0D01*
G01*
G36*
X127091Y194880D02*
X123671D01*
X127373Y191178D01*
X145056D01*
G75*
G02*
X144996Y191754I2738J576D01*
G01*
G75*
G02*
X145131Y192612I2796J0D01*
G01*
G75*
G02*
X141263Y194880I-1086J2581D01*
G01*
X133491D01*
G75*
G02*
X127091I-3200J0D01*
G01*
G37*
X122525Y201623D02*
G36*
X122525Y201623D02*
Y196026D01*
X123671Y194880D01*
X127091D01*
G75*
G02*
X133491I3200J0D01*
G01*
X141263D01*
G75*
G02*
X141245Y195193I2783J311D01*
G01*
Y195193D01*
G75*
G02*
X146343Y196793I2800J0D01*
G01*
X146509D01*
X150337Y200621D01*
Y201221D01*
X145120D01*
Y205822D01*
X143919D01*
Y201623D01*
X135518D01*
Y205822D01*
X133919D01*
Y201623D01*
X125518D01*
Y205822D01*
X123919D01*
Y201623D01*
X122525D01*
G37*
X123919Y210020D02*
G36*
X123919Y210020D02*
Y205822D01*
X125518D01*
Y210020D01*
X133919D01*
Y205822D01*
X135518D01*
Y210020D01*
X143919D01*
Y205822D01*
X145120D01*
Y210422D01*
X150337D01*
Y211021D01*
X146979Y214379D01*
G75*
G02*
X146509Y215511I1129J1132D01*
G01*
Y215512D01*
Y219568D01*
X140250D01*
Y220185D01*
X139711D01*
Y219568D01*
X136133D01*
X129448Y212882D01*
G75*
G02*
X128069Y212311I-1379J1378D01*
G01*
X125784D01*
X123494Y210020D01*
X123919D01*
G37*
Y280355D02*
Y272792D01*
X125518D01*
Y280355D01*
X133919D01*
Y272792D01*
X135518D01*
Y280355D01*
X143919D01*
Y271957D01*
X143499D01*
X145822Y269635D01*
X149079D01*
Y270032D01*
X155824D01*
G75*
G02*
X163548Y273065I3895J1433D01*
G01*
X165889D01*
G75*
G02*
X173869Y271465I3829J-1600D01*
G01*
G75*
G02*
X165889Y269865I-4150J0D01*
G01*
X163548D01*
G75*
G02*
X156215Y269242I-3829J1600D01*
G01*
Y263689D01*
G75*
G02*
X163548Y263065I3504J-2224D01*
G01*
X165889D01*
G75*
G02*
X173869Y261465I3829J-1600D01*
G01*
G75*
G02*
X165889Y259865I-4150J0D01*
G01*
X163548D01*
G75*
G02*
X155824Y262898I-3829J1600D01*
G01*
X149079D01*
Y263296D01*
X148213D01*
Y262560D01*
X150289D01*
Y251839D01*
X153423D01*
G75*
G02*
X154516Y251408I0J-1600D01*
G01*
G75*
G02*
X155597Y250980I-468J-2761D01*
G01*
G75*
G02*
X155569Y251465I4123J484D01*
G01*
G75*
G02*
X163548Y253065I4150J0D01*
G01*
X165889D01*
G75*
G02*
X173869Y251465I3829J-1600D01*
G01*
G75*
G02*
X165889Y249865I-4150J0D01*
G01*
X163548D01*
G75*
G02*
X156843Y248473I-3829J1600D01*
G01*
G75*
G02*
X154374Y245866I-2795J174D01*
G01*
X155491Y244749D01*
G75*
G02*
X155961Y243617I-1130J-1133D01*
G01*
Y243227D01*
G75*
G02*
X163548Y243065I3757J-1762D01*
G01*
X165889D01*
G75*
G02*
X173869Y241465I3829J-1600D01*
G01*
G75*
G02*
X165889Y239865I-4150J0D01*
G01*
X163548D01*
G75*
G02*
X159399Y237328I-3829J1600D01*
G01*
G75*
G02*
X159662Y236143I-2537J-1185D01*
G01*
G75*
G02*
X159611Y235614I-2801J-1D01*
G01*
G75*
G02*
X163548Y233065I107J-4148D01*
G01*
X165889D01*
G75*
G02*
X173869Y231465I3829J-1600D01*
G01*
G75*
G02*
X169206Y227347I-4150J0D01*
G01*
G75*
G02*
X169215Y225585I-2653J-895D01*
G01*
G75*
G02*
X173869Y221465I504J-4119D01*
G01*
G75*
G02*
X165889Y219865I-4150J0D01*
G01*
X163548D01*
G75*
G02*
X155569Y221465I-3829J1600D01*
G01*
G75*
G02*
X157839Y225165I4150J0D01*
G01*
X156549D01*
G75*
G02*
X155417Y225635I0J1600D01*
G01*
X150730Y230322D01*
G75*
G02*
X150260Y231454I1130J1133D01*
G01*
Y235359D01*
X149709D01*
Y218797D01*
G75*
G02*
X154035Y216450I1526J-2348D01*
G01*
G75*
G02*
X154027Y216233I-2798J-1D01*
G01*
X156359Y213901D01*
G75*
G02*
X163548Y213065I3360J-2436D01*
G01*
X165889D01*
G75*
G02*
X173869Y211465I3829J-1600D01*
G01*
G75*
G02*
X165889Y209865I-4150J0D01*
G01*
X163548D01*
G75*
G02*
X157211Y208158I-3829J1600D01*
G01*
Y204772D01*
G75*
G02*
X163382Y203415I2507J-3307D01*
G01*
X166055D01*
G75*
G02*
X173393Y203395I3663J-1950D01*
G01*
X184921D01*
Y330053D01*
X182654Y332320D01*
G75*
G02*
X177696Y329846I-2660J-874D01*
G01*
X173539D01*
G75*
G02*
X166963Y328363I-3821J1620D01*
G01*
X163954Y325354D01*
G75*
G02*
X162822Y324884I-1133J1130D01*
G01*
X162071D01*
G75*
G02*
X163869Y321465I-2352J-3419D01*
G01*
G75*
G02*
X163867Y321373I-4147J7D01*
G01*
X165090Y322595D01*
G75*
G02*
X165874Y323027I1133J-1130D01*
G01*
G75*
G02*
X173548Y323065I3845J-1561D01*
G01*
X177696D01*
G75*
G02*
X182794Y321465I2298J-1600D01*
G01*
G75*
G02*
X177696Y319865I-2800J0D01*
G01*
X173548D01*
G75*
G02*
X166233Y319213I-3829J1600D01*
G01*
X162643Y315624D01*
G75*
G02*
X161615Y315157I-1133J1130D01*
G01*
G75*
G02*
X162116Y308078I-1896J-3692D01*
G01*
X165265D01*
X166300Y309113D01*
G75*
G02*
X165569Y311465I3419J2352D01*
G01*
G75*
G02*
X173869I4150J0D01*
G01*
G75*
G02*
X169077Y307365I-4150J0D01*
G01*
X167060Y305348D01*
G75*
G02*
X165927Y304878I-1133J1130D01*
G01*
X162080D01*
G75*
G02*
X163548Y303065I-2361J-3413D01*
G01*
X165889D01*
G75*
G02*
X173869Y301465I3829J-1600D01*
G01*
G75*
G02*
X165889Y299865I-4150J0D01*
G01*
X163548D01*
G75*
G02*
X155569Y301465I-3829J1600D01*
G01*
G75*
G02*
X157357Y304878I4150J0D01*
G01*
X156346D01*
G75*
G02*
X151292Y306971I-2298J1600D01*
G01*
X151285Y306979D01*
X150289D01*
Y299571D01*
G75*
G02*
X152785Y296787I-305J-2783D01*
G01*
G75*
G02*
X147185I-2800J0D01*
G01*
G75*
G02*
X147209Y297159I2801J-1D01*
G01*
X145552Y298816D01*
X143654D01*
X145488Y296982D01*
G75*
G02*
X145958Y295850I-1130J-1133D01*
G01*
Y295115D01*
X147526D01*
Y288780D01*
X141191D01*
Y295115D01*
X142758D01*
Y295187D01*
X138004Y299941D01*
G75*
G02*
X138143Y299288I-1460J-653D01*
G01*
Y295115D01*
X139711D01*
Y288780D01*
X135396D01*
X135754Y288422D01*
X139711D01*
Y287205D01*
X141191D01*
Y288422D01*
X147526D01*
Y282087D01*
X141191D01*
Y283305D01*
X139711D01*
Y282087D01*
X133376D01*
Y283305D01*
X124568D01*
X121619Y280355D01*
X123919D01*
X165889Y283065D02*
G75*
G02*
X173869Y281465I3829J-1600D01*
G01*
G75*
G02*
X165889Y279865I-4150J0D01*
G01*
X163548D01*
G75*
G02*
X155569Y281465I-3829J1600D01*
G01*
G75*
G02*
X163548Y283065I4150J0D01*
G01*
X165889D01*
Y293065D02*
G75*
G02*
X173869Y291465I3829J-1600D01*
G01*
G75*
G02*
X165889Y289865I-4150J0D01*
G01*
X163548D01*
G75*
G02*
X155569Y291465I-3829J1600D01*
G01*
G75*
G02*
X163548Y293065I4150J0D01*
G01*
X165889D01*
X145120Y280757D02*
X154317D01*
Y271556D01*
X145120D01*
Y280757D01*
X123919Y276156D02*
G36*
X123919Y276156D02*
Y272792D01*
X125518D01*
Y276156D01*
X123919D01*
G37*
X133919D02*
G36*
X133919Y276156D02*
Y272792D01*
X135518D01*
Y276156D01*
X133919D01*
G37*
X143919Y271957D02*
G36*
X143919Y271957D02*
X143499D01*
X145822Y269635D01*
X149079D01*
Y270032D01*
X155824D01*
G75*
G02*
X155569Y271465I3895J1433D01*
G01*
G75*
G02*
X163548Y273065I4150J0D01*
G01*
X165889D01*
G75*
G02*
X173869Y271465I3829J-1600D01*
G01*
G75*
G02*
X165889Y269865I-4150J0D01*
G01*
X163548D01*
G75*
G02*
X156215Y269242I-3829J1600D01*
G01*
Y263689D01*
G75*
G02*
X163548Y263065I3504J-2224D01*
G01*
X165889D01*
G75*
G02*
X173869Y261465I3829J-1600D01*
G01*
G75*
G02*
X165889Y259865I-4150J0D01*
G01*
X163548D01*
G75*
G02*
X155569Y261466I-3829J1600D01*
G01*
G75*
G02*
X155824Y262898I4150J0D01*
G01*
X149079D01*
Y263296D01*
X148213D01*
Y262560D01*
X150289D01*
Y251839D01*
X153423D01*
G75*
G02*
X154516Y251408I0J-1601D01*
G01*
G75*
G02*
X155597Y250980I-464J-2750D01*
G01*
G75*
G02*
X155569Y251465I4135J485D01*
G01*
Y251465D01*
G75*
G02*
X163548Y253065I4150J0D01*
G01*
X165889D01*
G75*
G02*
X173869Y251465I3829J-1600D01*
G01*
G75*
G02*
X165889Y249865I-4150J0D01*
G01*
X163548D01*
G75*
G02*
X156843Y248473I-3829J1600D01*
G01*
G75*
G02*
X154374Y245866I-2795J174D01*
G01*
X155491Y244749D01*
G75*
G02*
X155961Y243617I-1129J-1132D01*
G01*
Y243617D01*
Y243227D01*
G75*
G02*
X163548Y243065I3757J-1761D01*
G01*
X165889D01*
G75*
G02*
X173869Y241465I3829J-1600D01*
G01*
G75*
G02*
X165889Y239865I-4150J0D01*
G01*
X163548D01*
G75*
G02*
X159399Y237328I-3830J1601D01*
G01*
G75*
G02*
X159662Y236144I-2533J-1184D01*
G01*
Y236143D01*
G75*
G02*
X159611Y235614I-2806J0D01*
G01*
G75*
G02*
X163548Y233065I107J-4148D01*
G01*
X165889D01*
G75*
G02*
X173869Y231465I3829J-1600D01*
G01*
Y231465D01*
G75*
G02*
X169206Y227347I-4150J0D01*
G01*
G75*
G02*
X169352Y226452I-2653J-895D01*
G01*
G75*
G02*
X169215Y225585I-2800J0D01*
G01*
G75*
G02*
X173869Y221465I504J-4120D01*
G01*
G75*
G02*
X165889Y219865I-4150J0D01*
G01*
X163548D01*
G75*
G02*
X155569Y221465I-3829J1600D01*
G01*
G75*
G02*
X157839Y225165I4151J0D01*
G01*
X156549D01*
G75*
G02*
X155417Y225635I0J1599D01*
G01*
X150730Y230322D01*
G75*
G02*
X150260Y231454I1129J1132D01*
G01*
Y231454D01*
Y235359D01*
X149709D01*
Y218797D01*
G75*
G02*
X154035Y216450I1526J-2348D01*
G01*
G75*
G02*
Y216444I-2690J-2D01*
G01*
G75*
G02*
X154027Y216233I-2696J0D01*
G01*
X156359Y213901D01*
G75*
G02*
X163548Y213065I3360J-2436D01*
G01*
X165889D01*
G75*
G02*
X173869Y211465I3829J-1600D01*
G01*
G75*
G02*
X165889Y209865I-4150J0D01*
G01*
X163548D01*
G75*
G02*
X157211Y208158I-3829J1600D01*
G01*
Y204772D01*
G75*
G02*
X163009Y203995I2507J-3307D01*
G01*
X166428D01*
G75*
G02*
X173008I3290J-2530D01*
G01*
X184321D01*
Y276156D01*
X154317D01*
Y271556D01*
X145120D01*
Y276156D01*
X143919D01*
Y271957D01*
G37*
X122219Y280955D02*
G36*
X122219Y280955D02*
Y280355D01*
X123919D01*
Y276156D01*
X125518D01*
Y280355D01*
X133919D01*
Y276156D01*
X135518D01*
Y280355D01*
X143919D01*
Y276156D01*
X145120D01*
Y280757D01*
X154317D01*
Y276156D01*
X184321D01*
Y281465D01*
X173869D01*
G75*
G02*
X165889Y279865I-4150J0D01*
G01*
X163548D01*
G75*
G02*
X155569Y281465I-3829J1600D01*
G01*
X122729D01*
X122219Y280955D01*
G37*
X124568Y283305D02*
G36*
X124568Y283305D02*
X122729Y281465D01*
X155569D01*
G75*
G02*
X163548Y283065I4150J0D01*
G01*
X165889D01*
G75*
G02*
X173869Y281465I3829J-1600D01*
G01*
X184321D01*
Y291465D01*
X173869D01*
G75*
G02*
X165889Y289865I-4150J0D01*
G01*
X163548D01*
G75*
G02*
X155569Y291465I-3829J1600D01*
G01*
X147526D01*
Y288780D01*
X141191D01*
Y291465D01*
X139711D01*
Y288780D01*
X135396D01*
X135754Y288422D01*
X139711D01*
Y287205D01*
X141191D01*
Y288422D01*
X147526D01*
Y282087D01*
X141191D01*
Y283305D01*
X139711D01*
Y282087D01*
X133376D01*
Y283305D01*
X124568D01*
G37*
X138143Y299288D02*
G36*
X138143Y299288D02*
Y295115D01*
X139711D01*
Y291465D01*
X141191D01*
Y295115D01*
X142758D01*
Y295187D01*
X138004Y299941D01*
G75*
G02*
X138143Y299288I-1467J-654D01*
G01*
G37*
X143654Y298816D02*
G36*
X143654Y298816D02*
X145488Y296982D01*
G75*
G02*
X145958Y295850I-1129J-1132D01*
G01*
Y295850D01*
Y295115D01*
X147526D01*
Y291465D01*
X155569D01*
G75*
G02*
X163548Y293065I4150J0D01*
G01*
X165889D01*
G75*
G02*
X173869Y291465I3829J-1600D01*
G01*
X184321D01*
Y330653D01*
X183254Y331720D01*
X182780D01*
G75*
G02*
X182794Y331446I-2787J-278D01*
G01*
G75*
G02*
X177696Y329846I-2800J0D01*
G01*
X173539D01*
G75*
G02*
X166963Y328363I-3821J1619D01*
G01*
X163954Y325354D01*
G75*
G02*
X162822Y324884I-1132J1129D01*
G01*
X162071D01*
G75*
G02*
X163869Y321466I-2352J-3419D01*
G01*
Y321465D01*
G75*
G02*
X163867Y321373I-5392J23D01*
G01*
X165090Y322595D01*
G75*
G02*
X165874Y323027I1132J-1129D01*
G01*
G75*
G02*
X173548Y323065I3845J-1561D01*
G01*
X177696D01*
G75*
G02*
X182794Y321465I2298J-1600D01*
G01*
G75*
G02*
X177696Y319865I-2800J0D01*
G01*
X173548D01*
G75*
G02*
X166233Y319213I-3829J1600D01*
G01*
X162643Y315624D01*
G75*
G02*
X161615Y315157I-1131J1128D01*
G01*
G75*
G02*
X163869Y311465I-1896J-3692D01*
G01*
G75*
G02*
X162116Y308078I-4150J0D01*
G01*
X165265D01*
X166300Y309113D01*
G75*
G02*
X165569Y311465I3420J2353D01*
G01*
G75*
G02*
X173869I4150J0D01*
G01*
G75*
G02*
X169077Y307365I-4150J0D01*
G01*
X167060Y305348D01*
G75*
G02*
X165927Y304878I-1132J1129D01*
G01*
X162080D01*
G75*
G02*
X163548Y303065I-2363J-3414D01*
G01*
X165889D01*
G75*
G02*
X173869Y301465I3829J-1600D01*
G01*
G75*
G02*
X165889Y299865I-4150J0D01*
G01*
X163548D01*
G75*
G02*
X155569Y301465I-3829J1600D01*
G01*
G75*
G02*
X157357Y304878I4151J-1D01*
G01*
X156346D01*
G75*
G02*
X151248Y306478I-2298J1600D01*
G01*
G75*
G02*
X151292Y306971I2800J0D01*
G01*
X151285Y306979D01*
X150289D01*
Y299571D01*
G75*
G02*
X152785Y296788I-304J-2783D01*
G01*
G75*
G02*
Y296787I-3222J0D01*
G01*
G75*
G02*
X147185I-2800J0D01*
G01*
G75*
G02*
X147209Y297159I2827J-2D01*
G01*
X145552Y298816D01*
X143654D01*
G37*
X136781Y97056D02*
Y88835D01*
X139078D01*
G75*
G02*
X138744Y90160I2467J1324D01*
G01*
G75*
G02*
X144344I2800J0D01*
G01*
G75*
G02*
X144011Y88835I-2800J0D01*
G01*
X161939D01*
Y91648D01*
X155299D01*
G75*
G02*
X153920Y92220I0J1950D01*
G01*
X147870Y98269D01*
G75*
G02*
X141470Y98287I-3200J18D01*
G01*
G75*
G02*
X143016Y101026I3200J0D01*
G01*
X137179D01*
Y97056D01*
X136781D01*
G36*
X136781Y97056D02*
Y88835D01*
X139078D01*
G75*
G02*
X138744Y90160I2467J1324D01*
G01*
G75*
G02*
X144344I2800J0D01*
G01*
G75*
G02*
X144011Y88835I-2800J0D01*
G01*
X161939D01*
Y91648D01*
X155299D01*
G75*
G02*
X153920Y92220I0J1950D01*
G01*
X147870Y98269D01*
G75*
G02*
X141470Y98287I-3200J18D01*
G01*
G75*
G02*
X143016Y101026I3200J0D01*
G01*
X137179D01*
Y97056D01*
X136781D01*
G37*
Y108142D02*
Y104926D01*
X145920D01*
G75*
G02*
X147300Y104355I0J-1950D01*
G01*
X156107Y95548D01*
X161939D01*
Y100206D01*
X161537D01*
Y105769D01*
X161939D01*
Y113993D01*
X146941D01*
G75*
G02*
X147470Y112354I-2270J-1639D01*
G01*
G75*
G02*
X141870I-2800J0D01*
G01*
G75*
G02*
X142400Y113993I2800J0D01*
G01*
X138919D01*
G75*
G02*
X139081Y113292I-1438J-701D01*
G01*
Y111104D01*
G75*
G02*
X138611Y109971I-1600J0D01*
G01*
X136781Y108142D01*
X148035Y107978D02*
G75*
G02*
X154435I3200J0D01*
G01*
G75*
G02*
X148035I-3200J0D01*
G01*
X137381D02*
G36*
X137381Y107978D02*
Y104926D01*
X145920D01*
G75*
G02*
X147300Y104355I0J-1950D01*
G01*
X155507Y96148D01*
X161339D01*
Y107978D01*
X154435D01*
G75*
G02*
X148035I-3200J0D01*
G01*
X137381D01*
G37*
Y108742D02*
G36*
X137381Y108742D02*
Y107978D01*
X148035D01*
G75*
G02*
X154435I3200J0D01*
G01*
X161339D01*
Y113393D01*
X147270D01*
G75*
G02*
X147470Y112354I-2603J-1040D01*
G01*
G75*
G02*
X141870I-2800J0D01*
G01*
G75*
G02*
X142070Y113393I2803J-1D01*
G01*
X139078D01*
G75*
G02*
X139081Y113292I-1596J-100D01*
G01*
Y111104D01*
Y111104D01*
G75*
G02*
X138611Y109971I-1599J0D01*
G01*
X137381Y108742D01*
G37*
X161137Y147565D02*
G75*
G02*
X162431Y144684I-1461J-2388D01*
G01*
X171746Y135369D01*
G75*
G02*
X172216Y134236I-1130J-1133D01*
G01*
Y110850D01*
G75*
G02*
X171747Y109719I-1600J0D01*
G01*
X170246Y108219D01*
Y105769D01*
X170644D01*
Y100206D01*
X170246D01*
Y95489D01*
X172136D01*
Y96444D01*
X171738D01*
Y103580D01*
X178872D01*
Y96444D01*
X178474D01*
Y95548D01*
X184334D01*
G75*
G02*
X184921Y96136I2538J-1951D01*
G01*
Y109952D01*
G75*
G02*
X179607Y112354I-2114J2402D01*
G01*
G75*
G02*
X184921Y114757I3200J0D01*
G01*
Y126152D01*
G75*
G02*
X179382Y126734I-2739J581D01*
G01*
G75*
G02*
X180582Y129031I2800J0D01*
G01*
Y153907D01*
G75*
G02*
X177072Y154830I-1213J2524D01*
G01*
X172148D01*
G75*
G02*
X173869Y151465I-2430J-3365D01*
G01*
G75*
G02*
X165569I-4150J0D01*
G01*
G75*
G02*
X167289Y154830I4150J0D01*
G01*
X162148D01*
G75*
G02*
X161137Y147565I-2430J-3365D01*
G01*
G36*
X161137Y147565D02*
G75*
G02*
X162431Y144684I-1461J-2388D01*
G01*
X171746Y135369D01*
G75*
G02*
X172216Y134236I-1130J-1133D01*
G01*
Y110850D01*
G75*
G02*
X171747Y109719I-1600J0D01*
G01*
X170246Y108219D01*
Y105769D01*
X170644D01*
Y100206D01*
X170246D01*
Y95489D01*
X172136D01*
Y96444D01*
X171738D01*
Y103580D01*
X178872D01*
Y96444D01*
X178474D01*
Y95548D01*
X184334D01*
G75*
G02*
X184921Y96136I2538J-1951D01*
G01*
Y109952D01*
G75*
G02*
X179607Y112354I-2114J2402D01*
G01*
G75*
G02*
X184921Y114757I3200J0D01*
G01*
Y126152D01*
G75*
G02*
X179382Y126734I-2739J581D01*
G01*
G75*
G02*
X180582Y129031I2800J0D01*
G01*
Y153907D01*
G75*
G02*
X177072Y154830I-1213J2524D01*
G01*
X172148D01*
G75*
G02*
X173869Y151465I-2430J-3365D01*
G01*
G75*
G02*
X165569I-4150J0D01*
G01*
G75*
G02*
X167289Y154830I4150J0D01*
G01*
X162148D01*
G75*
G02*
X161137Y147565I-2430J-3365D01*
G01*
G37*
D02*
D81*
X99719Y279015D02*
Y276915D01*
Y283915D02*
Y286015D01*
X102169Y281465D02*
X104269D01*
X105596Y116861D02*
Y114068D01*
X110597Y109067D01*
X107269Y281465D02*
X105169D01*
X109412Y369902D02*
X107313D01*
X109719Y279015D02*
Y276915D01*
X110597Y109067D02*
X122163D01*
X111447Y61713D02*
X109348D01*
X112160Y367154D02*
Y365052D01*
Y372650D02*
Y374749D01*
X113723Y90390D02*
X113377D01*
X105596Y82609D01*
X114195Y58965D02*
Y56863D01*
Y64461D02*
Y66560D01*
X114908Y369902D02*
X117010D01*
X116943Y61713D02*
X119041D01*
X118412Y293187D02*
Y291087D01*
Y295387D02*
Y297487D01*
X118563Y219888D02*
X116463D01*
X119663Y218788D02*
Y216688D01*
Y220988D02*
Y223088D01*
X120126Y125796D02*
X118026D01*
X120695Y79878D02*
X118596D01*
X120695Y96250D02*
X118596D01*
X120695Y115759D02*
X118596D01*
X120763Y219888D02*
X122863D01*
X120848Y300902D02*
X118750D01*
X121158Y230517D02*
X119057D01*
X121226Y124696D02*
Y122596D01*
Y126896D02*
Y128996D01*
X122163Y78409D02*
Y76308D01*
Y86570D02*
X117543D01*
X113723Y90390D01*
X122163Y117228D02*
Y119328D01*
X122326Y125796D02*
X124426D01*
X122627Y229048D02*
Y226950D01*
X122939Y292818D02*
Y290717D01*
Y295755D02*
Y297855D01*
X123203Y237444D02*
X123152D01*
X122476Y236769D01*
Y230667D01*
X122627Y230517D01*
X123203Y300516D02*
Y298414D01*
X123632Y79878D02*
X125730D01*
X123632Y115759D02*
X125730D01*
X125557Y300902D02*
X127656D01*
X128253Y73905D02*
X126153D01*
X129191Y177375D02*
X127091D01*
X129191Y194880D02*
X127091D01*
X129353Y72805D02*
Y70705D01*
Y75005D02*
Y77105D01*
X130291Y176275D02*
Y174175D01*
Y178475D02*
Y180575D01*
Y193780D02*
Y191680D01*
Y195980D02*
Y198080D01*
X130453Y73905D02*
X132553D01*
X131391Y177375D02*
X133491D01*
X131391Y194880D02*
X133491D01*
X132627Y90390D02*
X113723D01*
X132627Y93539D02*
X128356D01*
X127165Y92348D01*
X115345D01*
X110597Y97096D01*
Y109067D01*
X132627Y99839D02*
X143119D01*
X144670Y98287D01*
X132627Y99839D02*
X128728D01*
X125139Y96250D01*
X122163D01*
X132627Y102988D02*
X122209D01*
X122163Y102943D01*
X135080Y99839D02*
X137179D01*
X138039Y329298D02*
X135939D01*
X138256Y338050D02*
X136156D01*
X139356Y336950D02*
Y334850D01*
Y339150D02*
Y341250D01*
X139507Y327829D02*
Y325729D01*
Y330766D02*
Y332867D01*
X140456Y338050D02*
X142556D01*
X141485Y84681D02*
Y90472D01*
X141544D01*
Y90160D01*
X143570Y98287D02*
X141470D01*
X144635Y118146D02*
X144522D01*
X144670Y117998D01*
Y112354D01*
Y97187D02*
Y95087D01*
X146234Y300902D02*
Y300538D01*
X149985Y296787D01*
X147219Y205821D02*
X145120D01*
X147219Y276156D02*
X145120D01*
X149719Y203321D02*
Y201221D01*
Y208321D02*
Y210422D01*
Y273656D02*
Y271556D01*
Y278656D02*
Y280757D01*
X150135Y107978D02*
X148035D01*
X151235Y106878D02*
Y104778D01*
Y109078D02*
Y111178D01*
X152219Y276156D02*
X154317D01*
X152335Y107978D02*
X154435D01*
X152647Y264997D02*
Y262898D01*
Y267934D02*
Y270032D01*
X153423Y77969D02*
X150934Y80457D01*
Y84681D01*
X154116Y266465D02*
X156215D01*
X163639Y102988D02*
X161537D01*
X168541Y61713D02*
X166441D01*
X168544Y102988D02*
X170644D01*
X172027Y58227D02*
Y56127D01*
Y65200D02*
Y67300D01*
X173837Y100012D02*
X171738D01*
X175305Y93319D02*
Y93598D01*
Y101481D02*
Y103580D01*
X176774Y100012D02*
X178872D01*
X181707Y112354D02*
X179607D01*
X182807Y111254D02*
Y109154D01*
Y113454D02*
Y115554D01*
X212617Y61713D02*
X210518D01*
X215634Y113286D02*
X213534D01*
X216104Y58227D02*
Y56127D01*
Y65200D02*
Y67300D01*
X218134Y110786D02*
Y108686D01*
Y115786D02*
Y117886D01*
X220634Y113286D02*
X222734D01*
D02*
D82*
X119719Y205821D02*
Y209003D01*
X124977Y214261D01*
X128069D01*
X136543Y222735D01*
X119719Y205821D02*
X119975D01*
Y195818D01*
X127165Y188628D01*
X151235D01*
X153423Y190817D01*
Y193943D01*
X158737Y199257D01*
X159675Y200215D01*
X159719D01*
Y201465D01*
X119719Y276156D02*
Y273968D01*
X122844Y270842D01*
X141857D01*
X146233Y266465D01*
X145954D01*
X128728Y245209D02*
Y245121D01*
X123203D01*
X128728Y245209D02*
Y255212D01*
X133992Y260476D01*
X146234D01*
X129320Y230517D02*
Y233609D01*
X128728Y234201D01*
Y245209D01*
X129632Y294287D02*
X129666D01*
X131854Y296475D01*
Y304915D01*
X128415Y308354D01*
X123203D01*
Y308579D01*
X132627Y102988D02*
Y102976D01*
X145921D01*
X155299Y93598D01*
X166092D01*
Y93539D01*
X136543Y222735D02*
Y222702D01*
X135293D01*
X129353Y228641D01*
Y230517D01*
X129320D01*
X136543Y285255D02*
X144358D01*
X136543D02*
X123760D01*
X119663Y281157D01*
Y276156D01*
X119719D01*
X143420Y222735D02*
X136543D01*
X144358Y285255D02*
X136163D01*
X129632Y291786D01*
Y294287D01*
X146234Y260476D02*
X146233D01*
Y266465D01*
X145954D01*
X146234Y323933D02*
Y331174D01*
X151860Y336800D01*
X180932D01*
X186871Y330861D01*
Y201445D01*
X146234Y323933D02*
X146200D01*
Y329298D01*
X159719Y201465D02*
X169719D01*
X166092Y93539D02*
X176243D01*
Y93598D01*
X175305D01*
X169719Y201465D02*
Y201445D01*
X186871D01*
X175305Y93598D02*
X186871D01*
Y201445D02*
Y93598D01*
D02*
D83*
D03*
D02*
D84*
X96843Y131423D03*
X98093Y356494D03*
X114974Y257087D03*
X117787Y378688D03*
X118412Y264539D03*
Y294287D03*
X119663Y219888D03*
X121226Y125796D03*
X128728Y303665D03*
X129041Y313355D03*
Y333987D03*
X129353Y73905D03*
X130291Y177375D03*
Y194880D03*
X132167Y242708D03*
Y324609D03*
Y328672D03*
X133417Y84533D03*
X134355Y124546D03*
Y307728D03*
X136543Y255212D03*
X137168Y303665D03*
X139356Y338050D03*
X139669Y251773D03*
Y314293D03*
Y318815D03*
X140607Y238019D03*
X141544Y90160D03*
X143420Y77969D03*
X144045Y178938D03*
Y195193D03*
X144670Y98287D03*
Y112354D03*
X145296Y123608D03*
X145608Y127672D03*
X147796Y77969D03*
Y176437D03*
Y191754D03*
X149047Y131110D03*
X149985Y296787D03*
X151235Y107978D03*
Y216450D03*
X152173Y140801D03*
X153423Y77969D03*
X154048Y248647D03*
Y306478D03*
X155381Y131735D03*
X156862Y236143D03*
X159675Y145177D03*
X160926Y139550D03*
X166552Y226453D03*
X168115Y72342D03*
X174055Y345254D03*
X179369Y156431D03*
Y166434D03*
X179994Y321465D03*
Y331446D03*
X182182Y126734D03*
X182807Y112354D03*
X184370Y339301D03*
D02*
D85*
X99719Y151465D02*
X109719D01*
X99719Y161465D02*
X109719D01*
X99719Y171465D02*
X109719D01*
X99719Y181465D02*
X109719D01*
X99719Y191465D02*
X109719D01*
X99719Y201465D02*
X109719D01*
X99719Y241465D02*
X100274D01*
X105283Y236456D01*
X112160D01*
X114661Y238957D01*
Y242395D01*
X119946Y247680D01*
X123203D01*
X99719Y251465D02*
X109719D01*
X99719Y261465D02*
X109719D01*
X99719Y271465D02*
X109719D01*
X99719Y321465D02*
X100611D01*
X104658Y317419D01*
Y288972D01*
X107159Y286472D01*
X110910D01*
X114036Y283346D01*
Y262918D01*
X119037Y257917D01*
X123203D01*
X99719Y341465D02*
X99741D01*
X104719Y336487D01*
Y336465D01*
X111557D01*
X118725Y329298D01*
Y312076D01*
X119663Y311138D01*
X123203D01*
X109719Y221465D02*
X99719D01*
X109719Y231465D02*
X109961D01*
X109659Y231454D01*
X110597D01*
X116849Y237706D01*
Y239582D01*
X119830Y242562D01*
X123203D01*
X109719Y321465D02*
Y321483D01*
X110597D01*
X113723Y318357D01*
Y288660D01*
X115599Y286784D01*
Y269591D01*
X118412Y266778D01*
Y264539D01*
X109719Y331465D02*
X111243D01*
X117162Y325546D01*
Y308979D01*
X120121Y306020D01*
X123203D01*
X109719Y341465D02*
X119483D01*
X119506Y341489D01*
X121538D01*
X129041Y333987D01*
X117787Y378688D02*
X102782D01*
X90278Y366184D01*
Y226140D01*
X94967Y221451D01*
X96607D01*
X96621Y221465D01*
X99719D01*
X118412Y264539D02*
X119139D01*
X123203Y260476D01*
Y240003D02*
X120396D01*
X118725Y238331D01*
Y232705D01*
X112160Y226140D01*
X104970D01*
X99719Y231392D01*
Y231465D01*
X123203Y250239D02*
Y250210D01*
X115970D01*
X110031Y244271D01*
Y241465D01*
X109719D01*
X123203Y252798D02*
Y252711D01*
X115286D01*
X111848Y256150D01*
X97468D01*
X94030Y259588D01*
Y305540D01*
X99656Y311167D01*
X99719D01*
Y311465D01*
X123203Y255357D02*
X118412D01*
X116682Y257087D01*
X114974D01*
X123203Y303461D02*
Y303352D01*
X119975D01*
X115599Y307728D01*
Y324609D01*
X113742Y326465D01*
X104658D01*
X99719Y331405D01*
Y331465D01*
X123203Y306020D02*
Y305853D01*
X126540D01*
X128728Y303665D01*
X123203Y318815D02*
X139669D01*
X123203Y323933D02*
Y324921D01*
X126954Y328672D01*
X132167D01*
X129041Y313355D02*
X128728Y313668D01*
Y313697D01*
X123203D01*
X132167Y324609D02*
X130916D01*
X127790Y321483D01*
Y321374D01*
X123203D01*
X132627Y109287D02*
Y109228D01*
X135605D01*
X137481Y111104D01*
Y113292D01*
X130916Y119857D01*
Y143927D01*
X153423Y166434D01*
X179369D01*
X132627Y112437D02*
X132479D01*
X128415Y116501D01*
Y126421D01*
X123414Y131423D01*
X96843D01*
X134355Y124546D02*
X138336Y120565D01*
Y118146D01*
X134355Y307728D02*
Y301476D01*
X136543Y299288D01*
Y291948D01*
Y229428D02*
Y233955D01*
X132167Y238331D01*
Y242708D01*
X137168Y303665D02*
Y303039D01*
X144358Y295850D01*
Y291948D01*
X137168Y303665D02*
X146234D01*
Y303461D01*
X138336Y84681D02*
Y84533D01*
X133417D01*
X139669Y314293D02*
X136318D01*
X134355Y316256D01*
X123203D01*
X140607Y238019D02*
X140919Y238331D01*
X141232D01*
X143107Y240207D01*
X146234D01*
Y240003D01*
X141485Y118146D02*
Y146115D01*
X151860Y156490D01*
Y156431D01*
X179369D01*
X143420Y229428D02*
Y230829D01*
X140607Y233643D01*
Y238019D01*
X144045Y178938D02*
X108096Y142989D01*
X102157D01*
X93717Y134549D01*
Y57337D01*
X99656Y51398D01*
X175305D01*
X181870Y57962D01*
Y61713D01*
X144635Y84681D02*
Y79183D01*
X143420Y77969D01*
X145296Y123608D02*
X147785Y121119D01*
Y118146D01*
X146234Y237444D02*
Y237443D01*
X148109Y235569D01*
Y215512D01*
X154048Y209572D01*
Y202070D01*
X147171Y195193D01*
X144045D01*
X146234Y242562D02*
X132167D01*
Y242708D01*
X146234Y247680D02*
X150297D01*
X154361Y243617D01*
Y239894D01*
X156862Y237394D01*
Y236143D01*
X146234Y250239D02*
X153423D01*
X154048Y249614D01*
Y248647D01*
X146234Y252798D02*
Y252711D01*
X139669D01*
Y251773D01*
X146234Y255357D02*
X136543D01*
Y255212D01*
X146234Y306020D02*
X142628D01*
X140919Y307728D01*
X134355D01*
X146234Y311138D02*
Y311167D01*
X157174D01*
X157487Y311480D01*
X159719D01*
Y311465D01*
X147785Y84681D02*
Y77969D01*
X147796D01*
X150934Y118146D02*
Y122346D01*
X145608Y127672D01*
X151235Y216450D02*
Y216762D01*
X155611Y212386D01*
Y200507D01*
X147796Y192692D01*
Y191754D01*
X152173Y140801D02*
Y130798D01*
X157233Y125737D01*
Y118146D01*
X154048Y306478D02*
X151948Y308579D01*
X146234D01*
X154084Y118146D02*
Y126073D01*
X149047Y131110D01*
X159719Y161465D02*
X169719D01*
X159719Y171465D02*
X169719D01*
X159719Y181465D02*
X169719D01*
X159719Y191465D02*
X169719D01*
X159719Y211465D02*
X169719D01*
X159719Y221465D02*
X169719D01*
X159719Y231465D02*
X169719D01*
X159719Y241465D02*
X169719D01*
X159719Y251465D02*
X169719D01*
X159719Y261465D02*
X169719D01*
X159719Y271465D02*
X169719D01*
X159719Y281465D02*
X169719D01*
X159719Y291465D02*
X169719D01*
X159719Y301465D02*
X169719D01*
X159719Y321465D02*
X156549D01*
X151252Y316169D01*
X146234D01*
Y316256D01*
X159719Y331465D02*
X159988D01*
Y331486D01*
X149876Y321374D01*
X146234D01*
X159719Y341465D02*
X169719D01*
X160383Y118146D02*
Y126734D01*
X155381Y131735D01*
X160926Y139550D02*
Y139238D01*
X166092Y134072D01*
Y112437D01*
Y109287D02*
X169053D01*
X170616Y110850D01*
Y134236D01*
X159675Y145177D01*
X166552Y226453D02*
Y226765D01*
X156549D01*
X151860Y231454D01*
Y242620D01*
X149359Y245121D01*
X146234D01*
X168115Y72342D02*
X157486Y61713D01*
X143722D01*
X169719Y311465D02*
Y310269D01*
X165927Y306478D01*
X154048D01*
X169719Y321465D02*
X179994D01*
X169719D02*
X166222D01*
X161511Y316754D01*
X157134D01*
X154078Y313697D01*
X146234D01*
X169719Y331465D02*
X167803D01*
X162822Y326484D01*
X157800D01*
X150130Y318815D01*
X146234D01*
X169719Y341465D02*
X182206D01*
X184370Y339301D01*
X179994Y331446D02*
X169719D01*
Y331465D01*
X181058Y369902D02*
Y368685D01*
X180932D01*
X174680Y362433D01*
X95593D01*
X92154Y358994D01*
Y250835D01*
X96530Y246459D01*
X104970D01*
X109719Y241711D01*
Y241465D01*
X182182Y126734D02*
Y169247D01*
X174993Y176437D01*
X147796D01*
X190900Y369902D02*
Y366462D01*
X181244Y356806D01*
X99031D01*
X98719Y356494D01*
X98093D01*
X210585Y369902D02*
Y369892D01*
X204689Y363996D01*
X193748D01*
X175006Y345254D01*
X174055D01*
X218134Y103286D02*
Y103292D01*
X223133Y108291D01*
X234386D01*
X236887Y105790D01*
Y89847D01*
X226571Y79531D01*
X159050D01*
X157233Y81348D01*
Y84681D01*
X228134Y93286D02*
X228447D01*
X218131Y82970D01*
X162094D01*
X160383Y84681D01*
X228134Y103286D02*
X223761Y98913D01*
X215318D01*
X210319Y93914D01*
Y87350D01*
X208753Y85783D01*
X170468D01*
X166092Y90160D01*
Y90390D01*
D02*
D87*
X218134Y93286D03*
Y103286D03*
Y113286D03*
X228134Y93286D03*
Y103286D03*
Y113286D03*
D02*
D88*
X122627Y230517D03*
X122939Y294287D03*
X129320Y230517D03*
X129632Y294287D03*
X139507Y329298D03*
X145954Y266465D03*
X146200Y329298D03*
X152647Y266465D03*
D02*
D90*
X122163Y79878D03*
Y86570D03*
Y96250D03*
Y102943D03*
Y109067D03*
Y115759D03*
X136543Y222735D03*
Y229428D03*
Y285255D03*
Y291948D03*
X143420Y222735D03*
Y229428D03*
X144358Y285255D03*
Y291948D03*
X175305Y93319D03*
Y100012D03*
D02*
D91*
X119719Y205821D03*
Y276156D03*
X129719Y205821D03*
Y276156D03*
X139719Y205821D03*
Y276156D03*
X149719Y205821D03*
Y276156D03*
D02*
D95*
X181870Y61713D03*
X225946D03*
D02*
D96*
X172027D03*
X216104D03*
D02*
D116*
X112160Y369902D03*
X114195Y61713D03*
D02*
D117*
X122003Y369902D03*
X124037Y61713D03*
X131845Y369902D03*
X133880Y61713D03*
X141688Y369902D03*
X143722Y61713D03*
X151530Y369902D03*
X161373D03*
X171215D03*
X181058D03*
X190900D03*
X200743D03*
X210585D03*
X220428D03*
D02*
D132*
X99719Y341465D03*
X109719D03*
D02*
D133*
X99719Y151465D03*
Y161465D03*
Y171465D03*
Y181465D03*
Y191465D03*
Y201465D03*
Y211465D03*
Y221465D03*
Y231465D03*
Y241465D03*
Y251465D03*
Y261465D03*
Y271465D03*
Y281465D03*
Y291465D03*
Y301465D03*
Y311465D03*
Y321465D03*
Y331465D03*
X109719Y151465D03*
Y161465D03*
Y171465D03*
Y181465D03*
Y191465D03*
Y201465D03*
Y211465D03*
Y221465D03*
Y231465D03*
Y241465D03*
Y251465D03*
Y261465D03*
Y271465D03*
Y281465D03*
Y291465D03*
Y301465D03*
Y311465D03*
Y321465D03*
Y331465D03*
X159719Y151465D03*
Y161465D03*
Y171465D03*
Y181465D03*
Y191465D03*
Y201465D03*
Y211465D03*
Y221465D03*
Y231465D03*
Y241465D03*
Y251465D03*
Y261465D03*
Y271465D03*
Y281465D03*
Y291465D03*
Y301465D03*
Y311465D03*
Y321465D03*
Y331465D03*
Y341465D03*
X169719Y151465D03*
Y161465D03*
Y171465D03*
Y181465D03*
Y191465D03*
Y201465D03*
Y211465D03*
Y221465D03*
Y231465D03*
Y241465D03*
Y251465D03*
Y261465D03*
Y271465D03*
Y281465D03*
Y291465D03*
Y301465D03*
Y311465D03*
Y321465D03*
Y331465D03*
Y341465D03*
D02*
D134*
X123203Y237444D03*
Y240003D03*
Y242562D03*
Y245121D03*
Y247680D03*
Y250239D03*
Y252798D03*
Y255357D03*
Y257917D03*
Y260476D03*
Y300902D03*
Y303461D03*
Y306020D03*
Y308579D03*
Y311138D03*
Y313697D03*
Y316256D03*
Y318815D03*
Y321374D03*
Y323933D03*
X146234Y237444D03*
Y240003D03*
Y242562D03*
Y245121D03*
Y247680D03*
Y250239D03*
Y252798D03*
Y255357D03*
Y257917D03*
Y260476D03*
Y300902D03*
Y303461D03*
Y306020D03*
Y308579D03*
Y311138D03*
Y313697D03*
Y316256D03*
Y318815D03*
Y321374D03*
Y323933D03*
D02*
D135*
X105596Y82609D03*
Y116861D03*
D02*
D136*
X132627Y90390D03*
Y93539D03*
Y96689D03*
Y99839D03*
Y102988D03*
Y106138D03*
Y109287D03*
Y112437D03*
X166092Y90390D03*
Y93539D03*
Y96689D03*
Y99839D03*
Y102988D03*
Y106138D03*
Y109287D03*
Y112437D03*
D02*
D137*
X138336Y84681D03*
Y118146D03*
X141485Y84681D03*
Y118146D03*
X144635Y84681D03*
Y118146D03*
X147785Y84681D03*
Y118146D03*
X150934Y84681D03*
Y118146D03*
X154084Y84681D03*
Y118146D03*
X157233Y84681D03*
Y118146D03*
X160383Y84681D03*
Y118146D03*
X0Y0D02*
M02*
