G04 DesignSpark PCB Gerber Version 11.0 Build 5877*
%FSLAX35Y35*%
%MOIN*%
%ADD16R,0.05900X0.05900*%
%ADD21R,0.06000X0.06000*%
%ADD18R,0.06496X0.06496*%
%ADD70R,0.07972X0.07972*%
%ADD15C,0.00800*%
%ADD11C,0.01000*%
%ADD10C,0.01200*%
%ADD12C,0.01500*%
%ADD14C,0.03200*%
%ADD13C,0.04000*%
%ADD17C,0.05900*%
%ADD20C,0.06000*%
%ADD19C,0.06496*%
%ADD71C,0.07972*%
X0Y0D02*
D02*
D10*
X87779Y25765D02*
Y387128D01*
X242514D01*
Y353055D01*
X189685D01*
Y124858D01*
X242514D01*
Y25765D01*
X87779D01*
X90179Y239919D02*
Y28165D01*
X240114D01*
Y122458D01*
X189685D01*
G75*
G02*
X187285Y124858I0J2400D01*
G01*
Y353055D01*
G75*
G02*
X189685Y355455I2400J0D01*
G01*
X240114D01*
Y384728D01*
X90179D01*
Y350842D01*
X95337Y356000D01*
G75*
G02*
X95293Y356494I2756J493D01*
G01*
G75*
G02*
X100893I2800J0D01*
G01*
G75*
G02*
X97600Y353737I-2800J0D01*
G01*
X91878Y348016D01*
Y347540D01*
X94460Y350121D01*
G75*
G02*
X95593Y350591I1133J-1130D01*
G01*
X97118D01*
X103996Y357469D01*
Y374312D01*
G75*
G02*
X104466Y375444I1600J0D01*
G01*
X112591Y383569D01*
G75*
G02*
X113723Y384039I1133J-1130D01*
G01*
X210316D01*
G75*
G02*
X211449Y383569I0J-1600D01*
G01*
X220676Y374343D01*
G75*
G02*
X220428Y365454I-248J-4441D01*
G01*
G75*
G02*
X217365Y373128I0J4448D01*
G01*
X209654Y380839D01*
X119580D01*
G75*
G02*
X120085Y380288I-1793J-2150D01*
G01*
X191839D01*
G75*
G02*
X192972Y379818I0J-1600D01*
G01*
X198859Y373931D01*
G75*
G02*
X205191Y369902I1884J-4030D01*
G01*
G75*
G02*
X196295I-4448J0D01*
G01*
G75*
G02*
X196641Y371623I4448J0D01*
G01*
X191176Y377088D01*
X120085D01*
G75*
G02*
X114987Y378688I-2298J1600D01*
G01*
G75*
G02*
X115995Y380839I2800J0D01*
G01*
X114386D01*
X108295Y374749D01*
X117010D01*
Y367171D01*
X117937Y368098D01*
G75*
G02*
X122003Y374350I4066J1803D01*
G01*
G75*
G02*
Y365454I0J-4448D01*
G01*
G75*
G02*
X120200Y365835I0J4448D01*
G01*
X111319Y356955D01*
Y345615D01*
X112436D01*
Y346237D01*
G75*
G02*
X112906Y347370I1600J0D01*
G01*
X130245Y364709D01*
Y365751D01*
G75*
G02*
X131845Y374350I1600J4150D01*
G01*
G75*
G02*
X133445Y365751I0J-4448D01*
G01*
Y364046D01*
G75*
G02*
X132975Y362914I-1600J0D01*
G01*
X115636Y345574D01*
Y345350D01*
X137882Y367599D01*
G75*
G02*
X141688Y374350I3806J2303D01*
G01*
G75*
G02*
X146136Y369902I0J-4448D01*
G01*
G75*
G02*
X146125Y369589I-4450J0D01*
G01*
X147138Y370602D01*
G75*
G02*
X155978Y369902I4393J-700D01*
G01*
G75*
G02*
X148114Y367053I-4448J0D01*
G01*
X118762Y337700D01*
Y322733D01*
G75*
G02*
X118292Y321600I-1600J0D01*
G01*
X111767Y315075D01*
G75*
G02*
X108359Y307544I-2048J-3609D01*
G01*
X105850Y305035D01*
G75*
G02*
X104717Y304565I-1133J1130D01*
G01*
X102478D01*
G75*
G02*
X103548Y303065I-2759J-3100D01*
G01*
X105889D01*
G75*
G02*
X113869Y301465I3829J-1600D01*
G01*
G75*
G02*
X105889Y299865I-4150J0D01*
G01*
X103548D01*
G75*
G02*
X95630Y300756I-3829J1600D01*
G01*
Y292174D01*
G75*
G02*
X103548Y293065I4089J-709D01*
G01*
X105889D01*
G75*
G02*
X113869Y291465I3829J-1600D01*
G01*
G75*
G02*
X105889Y289865I-4150J0D01*
G01*
X103548D01*
G75*
G02*
X95630Y290756I-3829J1600D01*
G01*
Y283461D01*
G75*
G02*
X104269Y281465I4089J-1996D01*
G01*
G75*
G02*
X95630Y279470I-4550J0D01*
G01*
Y272174D01*
G75*
G02*
X103869Y271465I4089J-709D01*
G01*
G75*
G02*
X95630Y270756I-4150J0D01*
G01*
Y262174D01*
G75*
G02*
X103869Y261465I4089J-709D01*
G01*
G75*
G02*
X103057Y259000I-4150J0D01*
G01*
X106380D01*
G75*
G02*
X105569Y261465I3338J2466D01*
G01*
G75*
G02*
X113869I4150J0D01*
G01*
G75*
G02*
X113260Y259302I-4150J0D01*
G01*
G75*
G02*
X116812Y259199I1714J-2214D01*
G01*
Y262242D01*
G75*
G02*
X115612Y264539I1600J2298D01*
G01*
G75*
G02*
X121212I2800J0D01*
G01*
G75*
G02*
X120012Y262242I-2800J0D01*
G01*
Y256462D01*
G75*
G02*
X119542Y255330I-1600J0D01*
G01*
X117199Y252986D01*
Y221930D01*
G75*
G02*
X122439Y221479I2464J-2042D01*
G01*
Y271957D01*
X115518D01*
Y280355D01*
X122439D01*
Y298976D01*
G75*
G02*
X122909Y300108I1600J0D01*
G01*
X125972Y303171D01*
G75*
G02*
X129941Y306188I2756J493D01*
G01*
Y310704D01*
G75*
G02*
X127441Y315653I-901J2651D01*
G01*
Y331689D01*
G75*
G02*
X126241Y333987I1600J2298D01*
G01*
G75*
G02*
X131841I2800J0D01*
G01*
G75*
G02*
X130641Y331689I-2800J0D01*
G01*
Y331020D01*
G75*
G02*
X134967Y328672I1526J-2348D01*
G01*
G75*
G02*
X134958Y328456I-2798J-1D01*
G01*
X137985Y325429D01*
G75*
G02*
X138456Y324296I-1130J-1133D01*
G01*
Y321339D01*
G75*
G02*
X142439Y318409I1213J-2524D01*
G01*
X156911D01*
G75*
G02*
X155569Y321465I2808J3056D01*
G01*
G75*
G02*
X163869I4150J0D01*
G01*
G75*
G02*
X162307Y318222I-4150J0D01*
G01*
G75*
G02*
X162693Y317936I-757J-1428D01*
G01*
X166520Y314109D01*
G75*
G02*
X172455Y314585I3198J-2644D01*
G01*
Y318345D01*
G75*
G02*
X165569Y321465I-2736J3120D01*
G01*
G75*
G02*
X172455Y324585I4150J0D01*
G01*
Y328345D01*
G75*
G02*
X165569Y331465I-2736J3120D01*
G01*
G75*
G02*
X172455Y334585I4150J0D01*
G01*
Y338345D01*
G75*
G02*
X165569Y341465I-2736J3120D01*
G01*
G75*
G02*
X171256Y345320I4150J0D01*
G01*
G75*
G02*
X175268Y347777I2799J-67D01*
G01*
Y350830D01*
X160571Y365526D01*
G75*
G02*
X161373Y374350I802J4375D01*
G01*
G75*
G02*
X164176Y366448I0J-4448D01*
G01*
X177456Y353167D01*
Y355519D01*
X170111Y362863D01*
G75*
G02*
X169641Y363996I1130J1133D01*
G01*
Y365741D01*
G75*
G02*
X171215Y374350I1574J4160D01*
G01*
G75*
G02*
X172841Y365761I0J-4448D01*
G01*
Y364659D01*
X180186Y357314D01*
G75*
G02*
X180656Y356181I-1130J-1133D01*
G01*
Y342114D01*
G75*
G02*
X180186Y340981I-1600J0D01*
G01*
X178781Y339576D01*
Y333969D01*
G75*
G02*
X182770Y331809I1213J-2524D01*
G01*
Y337003D01*
G75*
G02*
X181570Y339301I1600J2298D01*
G01*
G75*
G02*
X187170I2800J0D01*
G01*
G75*
G02*
X185970Y337003I-2800J0D01*
G01*
Y140488D01*
G75*
G02*
X185500Y139356I-1600J0D01*
G01*
X180969Y134824D01*
Y129257D01*
G75*
G02*
X183868Y124498I1213J-2524D01*
G01*
X186909Y121455D01*
X221561D01*
G75*
G02*
X222694Y120987I2J-1600D01*
G01*
X226519Y117163D01*
G75*
G02*
X232334Y113286I1615J-3877D01*
G01*
G75*
G02*
X223934I-4200J0D01*
G01*
G75*
G02*
X224257Y114900I4200J0D01*
G01*
X220901Y118255D01*
X186248D01*
G75*
G02*
X185114Y118724I-2J1600D01*
G01*
X181051Y122789D01*
G75*
G02*
X180969Y122878I1131J1129D01*
G01*
Y114973D01*
G75*
G02*
X186007Y112354I1839J-2619D01*
G01*
G75*
G02*
X180969Y109735I-3200J0D01*
G01*
Y79219D01*
G75*
G02*
X180499Y78086I-1600J0D01*
G01*
X169713Y67300D01*
X177612D01*
Y64675D01*
G75*
G02*
X187056Y61713I4257J-2961D01*
G01*
G75*
G02*
X177612Y58752I-5186J0D01*
G01*
Y56127D01*
X166441D01*
Y64028D01*
X154869Y52456D01*
G75*
G02*
X153736Y51986I-1133J1130D01*
G01*
X131854D01*
G75*
G02*
X130721Y52456I0J1600D01*
G01*
X125621Y57556D01*
G75*
G02*
X119589Y61713I-1583J4157D01*
G01*
G75*
G02*
X124037Y66161I4448J0D01*
G01*
G75*
G02*
X128004Y59699I0J-4448D01*
G01*
X132517Y55186D01*
X153073D01*
X167498Y69611D01*
G75*
G02*
X166515Y74639I617J2731D01*
G01*
Y79148D01*
X164206Y76839D01*
G75*
G02*
X163074Y76369I-1133J1130D01*
G01*
X155721D01*
G75*
G02*
X150623Y77969I-2298J1600D01*
G01*
G75*
G02*
X155721Y79569I2800J0D01*
G01*
X162411D01*
X164015Y81172D01*
Y95050D01*
X158307Y89343D01*
G75*
G02*
X157174Y88872I-1133J1130D01*
G01*
X144031D01*
G75*
G02*
X138744Y90160I-2487J1287D01*
G01*
G75*
G02*
X143589Y92072I2800J0D01*
G01*
X156512D01*
X162139Y97700D01*
Y137027D01*
G75*
G02*
X159712I-1213J2524D01*
G01*
Y130172D01*
G75*
G02*
X159242Y129040I-1600J0D01*
G01*
X152680Y122478D01*
G75*
G02*
X151548Y122008I-1133J1130D01*
G01*
X147593D01*
G75*
G02*
X146083Y120921I-2298J1600D01*
G01*
G75*
G02*
X146270Y120169I-1413J-752D01*
G01*
Y114652D01*
G75*
G02*
X147470Y112354I-1600J-2298D01*
G01*
G75*
G02*
X141870I-2800J0D01*
G01*
G75*
G02*
X143070Y114652I2800J0D01*
G01*
Y118570D01*
G75*
G02*
X141975Y119039I37J1600D01*
G01*
X137086Y123928D01*
G75*
G02*
X131598Y125039I-2731J618D01*
G01*
X122909Y133729D01*
G75*
G02*
X122439Y134861I1130J1133D01*
G01*
Y201623D01*
X117199D01*
Y97700D01*
X128765Y86133D01*
X131119D01*
G75*
G02*
X136217Y84533I2298J-1600D01*
G01*
G75*
G02*
X131119Y82933I-2800J0D01*
G01*
X128103D01*
G75*
G02*
X126970Y83403I0J1600D01*
G01*
X115637Y94736D01*
Y90822D01*
X126890Y79569D01*
X141123D01*
G75*
G02*
X145608Y79715I2297J-1601D01*
G01*
G75*
G02*
X150596Y77969I2188J-1747D01*
G01*
G75*
G02*
X149396Y75671I-2800J0D01*
G01*
Y66724D01*
G75*
G02*
X148926Y65592I-1600J0D01*
G01*
X147459Y64125D01*
G75*
G02*
X143722Y57265I-3737J-2412D01*
G01*
G75*
G02*
X139274Y61713I0J4448D01*
G01*
G75*
G02*
X144830Y66020I4448J0D01*
G01*
X146196Y67387D01*
Y75671D01*
G75*
G02*
X145608Y76222I1600J2298D01*
G01*
G75*
G02*
X141122Y76369I-2188J1747D01*
G01*
X131394D01*
G75*
G02*
X132553Y73905I-2041J-2465D01*
G01*
G75*
G02*
X126153I-3200J0D01*
G01*
G75*
G02*
X127312Y76369I3200J0D01*
G01*
X126230D01*
G75*
G02*
X125096Y76838I-3J1600D01*
G01*
X112906Y89028D01*
G75*
G02*
X112437Y90160I1131J1131D01*
G01*
Y148330D01*
G75*
G02*
X106258Y149175I-2719J3135D01*
G01*
Y140801D01*
G75*
G02*
X105788Y139668I-1600J0D01*
G01*
X101881Y135762D01*
Y90822D01*
X122826Y69878D01*
X127478D01*
G75*
G02*
X128610Y69408I0J-1600D01*
G01*
X132191Y65828D01*
G75*
G02*
X138328Y61713I1689J-4115D01*
G01*
G75*
G02*
X133880Y57265I-4448J0D01*
G01*
G75*
G02*
X129865Y63628I0J4448D01*
G01*
X126815Y66678D01*
X122163D01*
G75*
G02*
X121031Y67148I0J1600D01*
G01*
X99152Y89027D01*
G75*
G02*
X98681Y90160I1130J1133D01*
G01*
Y129311D01*
G75*
G02*
X98443Y129125I-1837J2112D01*
G01*
Y58000D01*
X105633Y50809D01*
X219344D01*
X224346Y55811D01*
Y56780D01*
G75*
G02*
X221691Y58748I1600J4933D01*
G01*
Y56127D01*
X210518D01*
Y67300D01*
X221691D01*
Y64678D01*
G75*
G02*
X231132Y61713I4255J-2965D01*
G01*
G75*
G02*
X227546Y56780I-5186J0D01*
G01*
Y55149D01*
G75*
G02*
X227076Y54016I-1600J0D01*
G01*
X221139Y48080D01*
G75*
G02*
X220007Y47609I-1133J1130D01*
G01*
X104970D01*
G75*
G02*
X103838Y48080I0J1600D01*
G01*
X95713Y56204D01*
G75*
G02*
X95243Y57337I1130J1133D01*
G01*
Y129125D01*
G75*
G02*
X94043Y131423I1600J2298D01*
G01*
G75*
G02*
X98681Y133535I2800J0D01*
G01*
Y136424D01*
G75*
G02*
X99152Y137557I1600J0D01*
G01*
X103058Y141463D01*
Y149002D01*
G75*
G02*
X95569Y151465I-3339J2464D01*
G01*
G75*
G02*
X103058Y153929I4150J0D01*
G01*
Y159002D01*
G75*
G02*
X95569Y161465I-3339J2464D01*
G01*
G75*
G02*
X103058Y163929I4150J0D01*
G01*
Y169002D01*
G75*
G02*
X95569Y171465I-3339J2464D01*
G01*
G75*
G02*
X103058Y173929I4150J0D01*
G01*
Y179002D01*
G75*
G02*
X95569Y181465I-3339J2464D01*
G01*
G75*
G02*
X103058Y183929I4150J0D01*
G01*
Y189002D01*
G75*
G02*
X95569Y191465I-3339J2464D01*
G01*
G75*
G02*
X103058Y193929I4150J0D01*
G01*
Y199002D01*
G75*
G02*
X95569Y201465I-3339J2464D01*
G01*
G75*
G02*
X103058Y203929I4150J0D01*
G01*
Y209002D01*
G75*
G02*
X95569Y211465I-3339J2464D01*
G01*
G75*
G02*
X103411Y213361I4150J0D01*
G01*
X106026D01*
G75*
G02*
X112437Y214601I3692J-1895D01*
G01*
Y218330D01*
G75*
G02*
X105569Y221465I-2719J3135D01*
G01*
G75*
G02*
X112437Y224601I4150J0D01*
G01*
Y228330D01*
G75*
G02*
X105794Y232815I-2719J3135D01*
G01*
X103753Y234856D01*
X102111D01*
G75*
G02*
X103869Y231465I-2393J-3391D01*
G01*
G75*
G02*
X95569I-4150J0D01*
G01*
G75*
G02*
X97326Y234856I4150J0D01*
G01*
X95905D01*
G75*
G02*
X94772Y235326I0J1600D01*
G01*
X90179Y239919D01*
X210585Y374350D02*
G75*
G02*
Y365454I0J-4448D01*
G01*
G75*
G02*
X206137Y369902I0J4448D01*
G01*
G75*
G02*
X210585Y374350I4448J0D01*
G01*
X181058D02*
G75*
G02*
Y365454I0J-4448D01*
G01*
G75*
G02*
X176610Y369902I0J4448D01*
G01*
G75*
G02*
X181058Y374350I4448J0D01*
G01*
X190900D02*
G75*
G02*
Y365454I0J-4448D01*
G01*
G75*
G02*
X186452Y369902I0J4448D01*
G01*
G75*
G02*
X190900Y374350I4448J0D01*
G01*
X155569Y331465D02*
G75*
G02*
X163869I4150J0D01*
G01*
G75*
G02*
X155569I-4150J0D01*
G01*
Y341465D02*
G75*
G02*
X163869I4150J0D01*
G01*
G75*
G02*
X155569I-4150J0D01*
G01*
X136156Y338050D02*
G75*
G02*
X142556I3200J0D01*
G01*
G75*
G02*
X136156I-3200J0D01*
G01*
X115212Y294287D02*
G75*
G02*
X121612I3200J0D01*
G01*
G75*
G02*
X115212I-3200J0D01*
G01*
X105169Y281465D02*
G75*
G02*
X114269I4550J0D01*
G01*
G75*
G02*
X105169I-4550J0D01*
G01*
X105569Y271465D02*
G75*
G02*
X113869I4150J0D01*
G01*
G75*
G02*
X105569I-4150J0D01*
G01*
X223934Y93286D02*
G75*
G02*
X232334I4200J0D01*
G01*
G75*
G02*
X223934I-4200J0D01*
G01*
Y103286D02*
G75*
G02*
X232334I4200J0D01*
G01*
G75*
G02*
X223934I-4200J0D01*
G01*
X213534Y113286D02*
G75*
G02*
X222734I4600J0D01*
G01*
G75*
G02*
X213534I-4600J0D01*
G01*
X213934Y103286D02*
G75*
G02*
X222334I4200J0D01*
G01*
G75*
G02*
X213934I-4200J0D01*
G01*
X214596Y95548D02*
G75*
G02*
X222334Y93286I3539J-2263D01*
G01*
G75*
G02*
X214267Y91648I-4200J0D01*
G01*
X189409D01*
G75*
G02*
X183671Y93598I-2537J1950D01*
G01*
G75*
G02*
X189409Y95548I3200J0D01*
G01*
X214596D01*
X148035Y107978D02*
G75*
G02*
X154435I3200J0D01*
G01*
G75*
G02*
X148035I-3200J0D01*
G01*
X141470Y98287D02*
G75*
G02*
X147870I3200J0D01*
G01*
G75*
G02*
X141470I-3200J0D01*
G01*
X118026Y125796D02*
G75*
G02*
X124426I3200J0D01*
G01*
G75*
G02*
X118026I-3200J0D01*
G01*
X109348Y66560D02*
X119041D01*
Y56863D01*
X109348D01*
Y66560D01*
X95569Y221465D02*
G75*
G02*
X103869I4150J0D01*
G01*
G75*
G02*
X95569I-4150J0D01*
G01*
X90779Y61711D02*
G36*
X90779Y61711D02*
Y28765D01*
X239514D01*
Y61711D01*
X231132D01*
G75*
G02*
X227546Y56780I-5186J2D01*
G01*
Y55149D01*
Y55148D01*
G75*
G02*
X227076Y54016I-1599J0D01*
G01*
X221139Y48080D01*
G75*
G02*
X220007Y47609I-1132J1129D01*
G01*
X104970D01*
G75*
G02*
X103838Y48080I0J1599D01*
G01*
X95713Y56204D01*
G75*
G02*
X95243Y57337I1129J1132D01*
G01*
Y57337D01*
Y61711D01*
X90779D01*
G37*
X98443D02*
G36*
X98443Y61711D02*
Y58000D01*
X105633Y50809D01*
X219344D01*
X224346Y55811D01*
Y56780D01*
G75*
G02*
X221691Y58748I1600J4933D01*
G01*
Y56127D01*
X210518D01*
Y61711D01*
X187056D01*
G75*
G02*
X177612Y58752I-5186J2D01*
G01*
Y56127D01*
X166441D01*
Y61711D01*
X164124D01*
X154869Y52456D01*
G75*
G02*
X153736Y51986I-1132J1129D01*
G01*
X131854D01*
G75*
G02*
X130721Y52456I0J1599D01*
G01*
X125621Y57556D01*
G75*
G02*
X119589Y61711I-1583J4157D01*
G01*
X119041D01*
Y56863D01*
X109348D01*
Y61711D01*
X98443D01*
G37*
X128485D02*
G36*
X128485Y61711D02*
G75*
G02*
X128004Y59699I-4448J1D01*
G01*
X132517Y55186D01*
X153073D01*
X159599Y61711D01*
X148170D01*
G75*
G02*
X143722Y57265I-4448J1D01*
G01*
G75*
G02*
X139274Y61711I0J4448D01*
G01*
X138328D01*
G75*
G02*
X133880Y57265I-4448J1D01*
G01*
G75*
G02*
X129432Y61711I0J4448D01*
G01*
X128485D01*
G37*
X90779Y93286D02*
G36*
X90779Y93286D02*
Y61711D01*
X95243D01*
Y93286D01*
X90779D01*
G37*
X98443D02*
G36*
X98443Y93286D02*
Y61711D01*
X109348D01*
Y66560D01*
X119041D01*
Y61711D01*
X119589D01*
G75*
G02*
Y61713I4834J1D01*
G01*
G75*
G02*
X124037Y66161I4448J0D01*
G01*
G75*
G02*
X128485Y61713I0J-4448D01*
G01*
G75*
G02*
Y61711I-4834J0D01*
G01*
X129432D01*
G75*
G02*
Y61713I5639J1D01*
G01*
G75*
G02*
X129865Y63628I4448J0D01*
G01*
X126815Y66678D01*
X122163D01*
G75*
G02*
X121031Y67148I0J1599D01*
G01*
X99152Y89027D01*
G75*
G02*
X98681Y90159I1129J1132D01*
G01*
Y90160D01*
Y93286D01*
X98443D01*
G37*
X101881D02*
G36*
X101881Y93286D02*
Y90822D01*
X122826Y69878D01*
X127478D01*
G75*
G02*
X128610Y69408I0J-1599D01*
G01*
X132191Y65828D01*
G75*
G02*
X138328Y61713I1689J-4115D01*
G01*
G75*
G02*
Y61711I-5206J0D01*
G01*
X139274D01*
G75*
G02*
Y61713I5206J1D01*
G01*
G75*
G02*
X144830Y66020I4448J0D01*
G01*
X146196Y67387D01*
Y75671D01*
G75*
G02*
X145608Y76222I1584J2281D01*
G01*
G75*
G02*
X141122Y76369I-2188J1747D01*
G01*
X131394D01*
G75*
G02*
X132553Y73905I-2041J-2465D01*
G01*
G75*
G02*
X126153I-3200J0D01*
G01*
G75*
G02*
X127312Y76369I3200J0D01*
G01*
X126230D01*
G75*
G02*
X125096Y76838I-3J1599D01*
G01*
X112906Y89028D01*
G75*
G02*
X112437Y90159I1131J1131D01*
G01*
Y90160D01*
Y93286D01*
X101881D01*
G37*
X115637D02*
G36*
X115637Y93286D02*
Y90822D01*
X126890Y79569D01*
X141123D01*
G75*
G02*
X145608Y79715I2297J-1601D01*
G01*
G75*
G02*
X150596Y77969I2188J-1747D01*
G01*
G75*
G02*
X149396Y75671I-2800J0D01*
G01*
Y66724D01*
Y66724D01*
G75*
G02*
X148926Y65592I-1599J0D01*
G01*
X147459Y64125D01*
G75*
G02*
X148170Y61713I-3737J-2413D01*
G01*
G75*
G02*
Y61711I-4834J0D01*
G01*
X159599D01*
X167498Y69611D01*
G75*
G02*
X165315Y72342I617J2731D01*
G01*
G75*
G02*
X166515Y74639I2800J0D01*
G01*
Y79148D01*
X164206Y76839D01*
G75*
G02*
X163074Y76369I-1132J1129D01*
G01*
X155721D01*
G75*
G02*
X150623Y77969I-2298J1600D01*
G01*
G75*
G02*
X155721Y79569I2800J0D01*
G01*
X162411D01*
X164015Y81172D01*
Y93286D01*
X162250D01*
X158307Y89343D01*
G75*
G02*
X157174Y88872I-1132J1129D01*
G01*
X144031D01*
G75*
G02*
X138744Y90160I-2487J1287D01*
G01*
G75*
G02*
X143589Y92072I2800J0D01*
G01*
X156512D01*
X157725Y93286D01*
X121613D01*
X128765Y86133D01*
X131119D01*
G75*
G02*
X136217Y84533I2298J-1600D01*
G01*
G75*
G02*
X131119Y82933I-2800J0D01*
G01*
X128103D01*
G75*
G02*
X126970Y83403I0J1599D01*
G01*
X117087Y93286D01*
X115637D01*
G37*
X164124Y61711D02*
G36*
X164124Y61711D02*
X166441D01*
Y64028D01*
X164124Y61711D01*
G37*
X177612Y67300D02*
G36*
X177612Y67300D02*
Y64675D01*
G75*
G02*
X187056Y61713I4257J-2961D01*
G01*
G75*
G02*
Y61711I-5371J-1D01*
G01*
X210518D01*
Y67300D01*
X221691D01*
Y64678D01*
G75*
G02*
X231132Y61713I4255J-2965D01*
G01*
Y61713D01*
G75*
G02*
Y61711I-4749J-1D01*
G01*
X239514D01*
Y93286D01*
X232334D01*
G75*
G02*
X223934I-4200J0D01*
G01*
X222334D01*
G75*
G02*
X214267Y91648I-4200J0D01*
G01*
X189409D01*
G75*
G02*
X183687Y93286I-2537J1950D01*
G01*
X180969D01*
Y79219D01*
Y79219D01*
G75*
G02*
X180499Y78086I-1599J0D01*
G01*
X169713Y67300D01*
X177612D01*
G37*
X90779Y98287D02*
G36*
X90779Y98287D02*
Y93286D01*
X95243D01*
Y98287D01*
X90779D01*
G37*
X98443D02*
G36*
X98443Y98287D02*
Y93286D01*
X98681D01*
Y98287D01*
X98443D01*
G37*
X101881D02*
G36*
X101881Y98287D02*
Y93286D01*
X112437D01*
Y98287D01*
X101881D01*
G37*
X115637Y94736D02*
G36*
X115637Y94736D02*
Y93286D01*
X117087D01*
X115637Y94736D01*
G37*
X117199Y98287D02*
G36*
X117199Y98287D02*
Y97700D01*
X121613Y93286D01*
X157725D01*
X162139Y97700D01*
Y98287D01*
X147870D01*
G75*
G02*
X141470I-3200J0D01*
G01*
X117199D01*
G37*
X162250Y93286D02*
G36*
X162250Y93286D02*
X164015D01*
Y95050D01*
X162250Y93286D01*
G37*
X180969Y98287D02*
G36*
X180969Y98287D02*
Y93286D01*
X183687D01*
G75*
G02*
X183671Y93598I3185J313D01*
G01*
G75*
G02*
X189409Y95548I3200J0D01*
G01*
X214596D01*
G75*
G02*
X222334Y93286I3539J-2263D01*
G01*
X223934D01*
G75*
G02*
X232334I4200J0D01*
G01*
X239514D01*
Y98287D01*
X180969D01*
G37*
X90779Y103286D02*
G36*
X90779Y103286D02*
Y98287D01*
X95243D01*
Y103286D01*
X90779D01*
G37*
X98443D02*
G36*
X98443Y103286D02*
Y98287D01*
X98681D01*
Y103286D01*
X98443D01*
G37*
X101881D02*
G36*
X101881Y103286D02*
Y98287D01*
X112437D01*
Y103286D01*
X101881D01*
G37*
X117199D02*
G36*
X117199Y103286D02*
Y98287D01*
X141470D01*
G75*
G02*
X147870I3200J0D01*
G01*
X162139D01*
Y103286D01*
X117199D01*
G37*
X180969D02*
G36*
X180969Y103286D02*
Y98287D01*
X239514D01*
Y103286D01*
X232334D01*
G75*
G02*
X223934I-4200J0D01*
G01*
X222334D01*
G75*
G02*
X213934I-4200J0D01*
G01*
X180969D01*
G37*
X90779Y107978D02*
G36*
X90779Y107978D02*
Y103286D01*
X95243D01*
Y107978D01*
X90779D01*
G37*
X98443D02*
G36*
X98443Y107978D02*
Y103286D01*
X98681D01*
Y107978D01*
X98443D01*
G37*
X101881D02*
G36*
X101881Y107978D02*
Y103286D01*
X112437D01*
Y107978D01*
X101881D01*
G37*
X117199D02*
G36*
X117199Y107978D02*
Y103286D01*
X162139D01*
Y107978D01*
X154435D01*
G75*
G02*
X148035I-3200J0D01*
G01*
X117199D01*
G37*
X180969D02*
G36*
X180969Y107978D02*
Y103286D01*
X213934D01*
G75*
G02*
X222334I4200J0D01*
G01*
X223934D01*
G75*
G02*
X232334I4200J0D01*
G01*
X239514D01*
Y107978D01*
X180969D01*
G37*
X90779Y113286D02*
G36*
X90779Y113286D02*
Y107978D01*
X95243D01*
Y113286D01*
X90779D01*
G37*
X98443D02*
G36*
X98443Y113286D02*
Y107978D01*
X98681D01*
Y113286D01*
X98443D01*
G37*
X101881D02*
G36*
X101881Y113286D02*
Y107978D01*
X112437D01*
Y113286D01*
X101881D01*
G37*
X117199D02*
G36*
X117199Y113286D02*
Y107978D01*
X148035D01*
G75*
G02*
X154435I3200J0D01*
G01*
X162139D01*
Y113286D01*
X147311D01*
G75*
G02*
X147470Y112354I-2641J-931D01*
G01*
G75*
G02*
X141870I-2800J0D01*
G01*
G75*
G02*
X142030Y113286I2800J0D01*
G01*
X117199D01*
G37*
X180969Y109735D02*
G36*
X180969Y109735D02*
Y107978D01*
X239514D01*
Y113286D01*
X232334D01*
G75*
G02*
X223934I-4200J0D01*
G01*
X222734D01*
G75*
G02*
X213534I-4600J0D01*
G01*
X185869D01*
G75*
G02*
X186007Y112355I-3061J-931D01*
G01*
Y112354D01*
Y112354D01*
G75*
G02*
X180969Y109735I-3200J0D01*
G01*
G37*
X90779Y125796D02*
G36*
X90779Y125796D02*
Y113286D01*
X95243D01*
Y125796D01*
X90779D01*
G37*
X98443D02*
G36*
X98443Y125796D02*
Y113286D01*
X98681D01*
Y125796D01*
X98443D01*
G37*
X101881D02*
G36*
X101881Y125796D02*
Y113286D01*
X112437D01*
Y125796D01*
X101881D01*
G37*
X117199D02*
G36*
X117199Y125796D02*
Y113286D01*
X142030D01*
G75*
G02*
X143070Y114652I2641J-932D01*
G01*
Y118570D01*
G75*
G02*
X141975Y119039I38J1601D01*
G01*
X137086Y123928D01*
G75*
G02*
X131555Y124546I-2731J618D01*
G01*
G75*
G02*
X131598Y125039I2800J0D01*
G01*
X130841Y125796D01*
X124426D01*
G75*
G02*
X118026I-3200J0D01*
G01*
X117199D01*
G37*
X146270Y120169D02*
G36*
X146270Y120169D02*
Y114652D01*
G75*
G02*
X147311Y113286I-1600J-2298D01*
G01*
X162139D01*
Y125796D01*
X155998D01*
X152680Y122478D01*
G75*
G02*
X151548Y122008I-1132J1129D01*
G01*
X147593D01*
G75*
G02*
X146083Y120921I-2300J1602D01*
G01*
G75*
G02*
X146270Y120169I-1415J-752D01*
G01*
G37*
X180969Y122878D02*
G36*
X180969Y122878D02*
Y114973D01*
G75*
G02*
X185869Y113286I1839J-2619D01*
G01*
X213534D01*
G75*
G02*
X222734I4600J0D01*
G01*
X223934D01*
G75*
G02*
X224257Y114900I4204J0D01*
G01*
X220901Y118255D01*
X186248D01*
G75*
G02*
X185114Y118724I-3J1599D01*
G01*
X181051Y122789D01*
G75*
G02*
X180969Y122878I1031J1035D01*
G01*
G37*
X184820Y125796D02*
G36*
X184820Y125796D02*
G75*
G02*
X183868Y124498I-2638J938D01*
G01*
X186909Y121455D01*
X221561D01*
G75*
G02*
X222694Y120987I2J-1599D01*
G01*
X226519Y117163D01*
G75*
G02*
X232334Y113286I1615J-3877D01*
G01*
X239514D01*
Y122458D01*
X189685D01*
G75*
G02*
X187285Y124858I0J2400D01*
G01*
Y125796D01*
X184820D01*
G37*
X90779Y221465D02*
G36*
X90779Y221465D02*
Y125796D01*
X95243D01*
Y129125D01*
G75*
G02*
X94043Y131423I1600J2298D01*
G01*
G75*
G02*
X98681Y133535I2800J0D01*
G01*
Y136424D01*
Y136425D01*
G75*
G02*
X99152Y137557I1599J0D01*
G01*
X103058Y141463D01*
Y149002D01*
G75*
G02*
X95569Y151465I-3339J2464D01*
G01*
G75*
G02*
X103058Y153929I4150J0D01*
G01*
Y159002D01*
G75*
G02*
X95569Y161465I-3339J2464D01*
G01*
G75*
G02*
X103058Y163929I4150J0D01*
G01*
Y169002D01*
G75*
G02*
X95569Y171465I-3339J2464D01*
G01*
G75*
G02*
X103058Y173929I4150J0D01*
G01*
Y179002D01*
G75*
G02*
X95569Y181465I-3339J2464D01*
G01*
G75*
G02*
X103058Y183929I4150J0D01*
G01*
Y189002D01*
G75*
G02*
X95569Y191465I-3339J2464D01*
G01*
G75*
G02*
X103058Y193929I4150J0D01*
G01*
Y199002D01*
G75*
G02*
X95569Y201465I-3339J2464D01*
G01*
G75*
G02*
X103058Y203929I4150J0D01*
G01*
Y209002D01*
G75*
G02*
X95569Y211465I-3339J2464D01*
G01*
G75*
G02*
X103411Y213361I4150J0D01*
G01*
X106026D01*
G75*
G02*
X112437Y214601I3692J-1896D01*
G01*
Y218330D01*
G75*
G02*
X105569Y221465I-2719J3136D01*
G01*
X103869D01*
G75*
G02*
X95569I-4150J0D01*
G01*
X90779D01*
G37*
X98443Y129125D02*
G36*
X98443Y129125D02*
Y125796D01*
X98681D01*
Y129311D01*
G75*
G02*
X98443Y129125I-1903J2197D01*
G01*
G37*
X101881Y135762D02*
G36*
X101881Y135762D02*
Y125796D01*
X112437D01*
Y148330D01*
G75*
G02*
X106258Y149175I-2719J3135D01*
G01*
Y140801D01*
Y140800D01*
G75*
G02*
X105788Y139668I-1599J0D01*
G01*
X101881Y135762D01*
G37*
X117199Y201623D02*
G36*
X117199Y201623D02*
Y125796D01*
X118026D01*
G75*
G02*
X124426I3200J0D01*
G01*
X130841D01*
X122909Y133729D01*
G75*
G02*
X122439Y134861I1129J1132D01*
G01*
Y134861D01*
Y201623D01*
X117199D01*
G37*
X159242Y129040D02*
G36*
X159242Y129040D02*
X155998Y125796D01*
X162139D01*
Y137027D01*
G75*
G02*
X159712I-1213J2526D01*
G01*
Y130172D01*
Y130172D01*
G75*
G02*
X159242Y129040I-1599J0D01*
G01*
G37*
X180969Y134824D02*
G36*
X180969Y134824D02*
Y129257D01*
G75*
G02*
X184982Y126734I1213J-2524D01*
G01*
G75*
G02*
X184820Y125796I-2800J0D01*
G01*
X187285D01*
Y221465D01*
X185970D01*
Y140488D01*
Y140488D01*
G75*
G02*
X185500Y139356I-1599J0D01*
G01*
X180969Y134824D01*
G37*
X90779Y239319D02*
G36*
X90779Y239319D02*
Y221465D01*
X95569D01*
G75*
G02*
X103869I4150J0D01*
G01*
X105569D01*
G75*
G02*
X112437Y224601I4150J0D01*
G01*
Y228330D01*
G75*
G02*
X105569Y231465I-2719J3135D01*
G01*
G75*
G02*
X105794Y232815I4150J0D01*
G01*
X103753Y234856D01*
X102111D01*
G75*
G02*
X103869Y231465I-2393J-3391D01*
G01*
G75*
G02*
X95569I-4150J0D01*
G01*
G75*
G02*
X97326Y234856I4150J0D01*
G01*
X95905D01*
G75*
G02*
X94772Y235326I0J1599D01*
G01*
X90779Y239319D01*
G37*
X95630Y270756D02*
G36*
X95630Y270756D02*
Y262174D01*
G75*
G02*
X103869Y261465I4089J-709D01*
G01*
G75*
G02*
X103057Y259000I-4152J1D01*
G01*
X106380D01*
G75*
G02*
X105569Y261465I3340J2466D01*
G01*
G75*
G02*
X113869I4150J0D01*
G01*
G75*
G02*
X113260Y259302I-4151J0D01*
G01*
G75*
G02*
X116812Y259199I1714J-2214D01*
G01*
Y262242D01*
G75*
G02*
X115612Y264539I1600J2298D01*
G01*
G75*
G02*
X121212I2800J0D01*
G01*
G75*
G02*
X120012Y262242I-2800J0D01*
G01*
Y256462D01*
Y256462D01*
G75*
G02*
X119542Y255330I-1599J0D01*
G01*
X117199Y252986D01*
Y221930D01*
G75*
G02*
X122439Y221479I2464J-2042D01*
G01*
Y271465D01*
X113869D01*
G75*
G02*
X105569I-4150J0D01*
G01*
X103869D01*
G75*
G02*
X95630Y270756I-4150J0D01*
G01*
G37*
X185970Y271465D02*
G36*
X185970Y271465D02*
Y221465D01*
X187285D01*
Y271465D01*
X185970D01*
G37*
X95630Y279470D02*
G36*
X95630Y279470D02*
Y272174D01*
G75*
G02*
X103869Y271465I4089J-709D01*
G01*
X105569D01*
G75*
G02*
X113869I4150J0D01*
G01*
X122439D01*
Y271957D01*
X115518D01*
Y280355D01*
X122439D01*
Y281465D01*
X114269D01*
G75*
G02*
X105169I-4550J0D01*
G01*
X104269D01*
G75*
G02*
X95630Y279470I-4550J0D01*
G01*
G37*
X185970Y281465D02*
G36*
X185970Y281465D02*
Y271465D01*
X187285D01*
Y281465D01*
X185970D01*
G37*
X95630Y290756D02*
G36*
X95630Y290756D02*
Y283461D01*
G75*
G02*
X104269Y281465I4089J-1996D01*
G01*
X105169D01*
G75*
G02*
X114269I4550J0D01*
G01*
X122439D01*
Y294287D01*
X121612D01*
G75*
G02*
X115212I-3200J0D01*
G01*
X112762D01*
G75*
G02*
X113869Y291465I-3043J-2822D01*
G01*
G75*
G02*
X105889Y289865I-4150J0D01*
G01*
X103548D01*
G75*
G02*
X95630Y290756I-3829J1600D01*
G01*
G37*
Y294287D02*
G36*
X95630Y294287D02*
Y292174D01*
G75*
G02*
X96675Y294287I4089J-709D01*
G01*
X95630D01*
G37*
X102762D02*
G36*
X102762Y294287D02*
G75*
G02*
X103548Y293065I-3044J-2821D01*
G01*
X105889D01*
G75*
G02*
X106675Y294287I3829J-1600D01*
G01*
X102762D01*
G37*
X185970D02*
G36*
X185970Y294287D02*
Y281465D01*
X187285D01*
Y294287D01*
X185970D01*
G37*
X95630Y300756D02*
G36*
X95630Y300756D02*
Y294287D01*
X96675D01*
G75*
G02*
X102762I3044J-2821D01*
G01*
X106675D01*
G75*
G02*
X112762I3043J-2821D01*
G01*
X115212D01*
G75*
G02*
X121612I3200J0D01*
G01*
X122439D01*
Y298976D01*
Y298976D01*
G75*
G02*
X122909Y300108I1599J0D01*
G01*
X125972Y303171D01*
G75*
G02*
X125928Y303665I2756J493D01*
G01*
G75*
G02*
X129941Y306188I2800J0D01*
G01*
Y310704D01*
G75*
G02*
X126241Y313355I-901J2651D01*
G01*
G75*
G02*
X127441Y315653I2800J0D01*
G01*
Y331465D01*
X118762D01*
Y322733D01*
Y322733D01*
G75*
G02*
X118292Y321600I-1599J0D01*
G01*
X111767Y315075D01*
G75*
G02*
X113869Y311465I-2048J-3609D01*
G01*
G75*
G02*
X108359Y307544I-4150J0D01*
G01*
X105850Y305035D01*
G75*
G02*
X104717Y304565I-1132J1129D01*
G01*
X102478D01*
G75*
G02*
X103548Y303065I-2759J-3100D01*
G01*
X105889D01*
G75*
G02*
X113869Y301465I3829J-1600D01*
G01*
G75*
G02*
X105889Y299865I-4150J0D01*
G01*
X103548D01*
G75*
G02*
X95630Y300756I-3829J1600D01*
G01*
G37*
X130641Y331465D02*
G36*
X130641Y331465D02*
Y331020D01*
G75*
G02*
X131967Y331465I1526J-2348D01*
G01*
X130641D01*
G37*
X134967Y328672D02*
G36*
X134967Y328672D02*
G75*
G02*
Y328667I-2690J-2D01*
G01*
G75*
G02*
X134958Y328456I-2696J0D01*
G01*
X137985Y325429D01*
G75*
G02*
X138456Y324296I-1129J-1132D01*
G01*
Y324296D01*
Y321339D01*
G75*
G02*
X142469Y318815I1213J-2524D01*
G01*
G75*
G02*
X142439Y318409I-2800J0D01*
G01*
X156911D01*
G75*
G02*
X155569Y321465I2808J3056D01*
G01*
G75*
G02*
X163869I4150J0D01*
G01*
Y321465D01*
G75*
G02*
X162307Y318222I-4149J0D01*
G01*
G75*
G02*
X162693Y317936I-754J-1424D01*
G01*
X166520Y314109D01*
G75*
G02*
X172455Y314585I3198J-2644D01*
G01*
Y318345D01*
G75*
G02*
X165569Y321465I-2736J3120D01*
G01*
G75*
G02*
X172455Y324585I4150J0D01*
G01*
Y328345D01*
G75*
G02*
X165569Y331465I-2736J3120D01*
G01*
X163869D01*
G75*
G02*
X155569I-4150J0D01*
G01*
X132366D01*
G75*
G02*
X134967Y328672I-199J-2793D01*
G01*
G37*
X185970Y331465D02*
G36*
X185970Y331465D02*
Y294287D01*
X187285D01*
Y331465D01*
X185970D01*
G37*
X118762Y337700D02*
G36*
X118762Y337700D02*
Y331465D01*
X127441D01*
Y331689D01*
G75*
G02*
X126241Y333987I1600J2298D01*
G01*
G75*
G02*
X131841I2800J0D01*
G01*
G75*
G02*
X130641Y331689I-2800J0D01*
G01*
Y331465D01*
X131967D01*
G75*
G02*
X132366I199J-2794D01*
G01*
X155569D01*
G75*
G02*
X163869I4150J0D01*
G01*
X165569D01*
G75*
G02*
X172455Y334585I4150J0D01*
G01*
Y338050D01*
X172076D01*
G75*
G02*
X167361I-2358J3415D01*
G01*
X162077D01*
G75*
G02*
X157360I-2358J3415D01*
G01*
X142556D01*
G75*
G02*
X136156I-3200J0D01*
G01*
X119112D01*
X118762Y337700D01*
G37*
X178781Y338050D02*
G36*
X178781Y338050D02*
Y333969D01*
G75*
G02*
X182770Y331809I1213J-2524D01*
G01*
Y337003D01*
G75*
G02*
X181865Y338050I1600J2298D01*
G01*
X178781D01*
G37*
X185970Y337003D02*
G36*
X185970Y337003D02*
Y331465D01*
X187285D01*
Y338050D01*
X186876D01*
G75*
G02*
X185970Y337003I-2505J1250D01*
G01*
G37*
X122527Y341465D02*
G36*
X122527Y341465D02*
X119112Y338050D01*
X136156D01*
G75*
G02*
X142556I3200J0D01*
G01*
X157360D01*
G75*
G02*
X155569Y341465I2358J3415D01*
G01*
X122527D01*
G37*
X163869D02*
G36*
X163869Y341465D02*
G75*
G02*
X162077Y338050I-4150J0D01*
G01*
X167361D01*
G75*
G02*
X165569Y341465I2358J3415D01*
G01*
X163869D01*
G37*
X172076Y338050D02*
G36*
X172076Y338050D02*
X172455D01*
Y338345D01*
G75*
G02*
X172076Y338050I-2736J3120D01*
G01*
G37*
X178781Y339576D02*
G36*
X178781Y339576D02*
Y338050D01*
X181865D01*
G75*
G02*
X181570Y339301I2505J1251D01*
G01*
G75*
G02*
X182594Y341465I2800J0D01*
G01*
X180519D01*
G75*
G02*
X180186Y340981I-1461J648D01*
G01*
X178781Y339576D01*
G37*
X187170Y339301D02*
G36*
X187170Y339301D02*
G75*
G02*
X186876Y338050I-2800J0D01*
G01*
X187285D01*
Y341465D01*
X186146D01*
G75*
G02*
X187170Y339301I-1776J-2165D01*
G01*
G37*
X90779Y369902D02*
G36*
X90779Y369902D02*
Y351442D01*
X95337Y356000D01*
G75*
G02*
X95293Y356494I2782J495D01*
G01*
G75*
G02*
X100893I2800J0D01*
G01*
Y356493D01*
G75*
G02*
X97600Y353737I-2800J0D01*
G01*
X91878Y348016D01*
Y347540D01*
X94460Y350121D01*
G75*
G02*
X95593Y350591I1132J-1129D01*
G01*
X97118D01*
X103996Y357469D01*
Y369902D01*
X90779D01*
G37*
X111319Y356955D02*
G36*
X111319Y356955D02*
Y345615D01*
X112436D01*
Y346237D01*
Y346237D01*
G75*
G02*
X112906Y347370I1599J0D01*
G01*
X130245Y364709D01*
Y365751D01*
G75*
G02*
X127397Y369902I1600J4150D01*
G01*
X126451D01*
G75*
G02*
X122003Y365454I-4448J0D01*
G01*
G75*
G02*
X120200Y365835I-1J4444D01*
G01*
X111319Y356955D01*
G37*
X115636Y345574D02*
G36*
X115636Y345574D02*
Y345350D01*
X137882Y367599D01*
G75*
G02*
X137240Y369902I3806J2303D01*
G01*
X136293D01*
G75*
G02*
X133445Y365751I-4448J0D01*
G01*
Y364046D01*
Y364046D01*
G75*
G02*
X132975Y362914I-1599J0D01*
G01*
X115636Y345574D01*
G37*
X117010Y369902D02*
G36*
X117010Y369902D02*
Y367171D01*
X117937Y368098D01*
G75*
G02*
X117555Y369902I4066J1803D01*
G01*
X117010D01*
G37*
X146136Y369901D02*
G36*
X146136Y369901D02*
G75*
G02*
X146125Y369589I-4440J0D01*
G01*
X146438Y369902D01*
X146136D01*
Y369901D01*
G37*
X148114Y367053D02*
G36*
X148114Y367053D02*
X122527Y341465D01*
X155569D01*
G75*
G02*
X163869I4150J0D01*
G01*
X165569D01*
G75*
G02*
X171256Y345320I4150J0D01*
G01*
G75*
G02*
X175268Y347777I2800J-67D01*
G01*
Y350830D01*
X160571Y365526D01*
G75*
G02*
X156925Y369902I802J4375D01*
G01*
X155978D01*
Y369901D01*
G75*
G02*
X148114Y367053I-4448J0D01*
G01*
G37*
X165821Y369902D02*
G36*
X165821Y369902D02*
G75*
G02*
X164176Y366448I-4448J0D01*
G01*
X177456Y353167D01*
Y355519D01*
X170111Y362863D01*
G75*
G02*
X169641Y363996I1129J1132D01*
G01*
Y363996D01*
Y365741D01*
G75*
G02*
X166767Y369902I1574J4160D01*
G01*
X165821D01*
G37*
X172841Y365761D02*
G36*
X172841Y365761D02*
Y364659D01*
X180186Y357314D01*
G75*
G02*
X180656Y356181I-1129J-1132D01*
G01*
Y356181D01*
Y342114D01*
Y342114D01*
G75*
G02*
X180519Y341465I-1599J0D01*
G01*
X182594D01*
G75*
G02*
X186146I1776J-2165D01*
G01*
X187285D01*
Y353055D01*
G75*
G02*
X189685Y355455I2400J0D01*
G01*
X239514D01*
Y369902D01*
X224876D01*
G75*
G02*
X220428Y365454I-4448J0D01*
G01*
G75*
G02*
X215980Y369902I0J4448D01*
G01*
X215033D01*
G75*
G02*
X210585Y365454I-4448J0D01*
G01*
G75*
G02*
X206137Y369902I0J4448D01*
G01*
X205191D01*
G75*
G02*
X196295I-4448J0D01*
G01*
X195348D01*
G75*
G02*
X190900Y365454I-4448J0D01*
G01*
G75*
G02*
X186452Y369902I0J4448D01*
G01*
X185506D01*
G75*
G02*
X181058Y365454I-4448J0D01*
G01*
G75*
G02*
X176610Y369902I0J4448D01*
G01*
X175663D01*
G75*
G02*
X172841Y365761I-4448J0D01*
G01*
G37*
X90779Y384128D02*
G36*
X90779Y384128D02*
Y369902D01*
X103996D01*
Y374312D01*
Y374312D01*
G75*
G02*
X104466Y375444I1599J0D01*
G01*
X112591Y383569D01*
G75*
G02*
X113723Y384039I1132J-1129D01*
G01*
X210316D01*
G75*
G02*
X211449Y383569I0J-1599D01*
G01*
X220676Y374343D01*
G75*
G02*
X224876Y369902I-248J-4441D01*
G01*
X239514D01*
Y384128D01*
X90779D01*
G37*
X114386Y380839D02*
G36*
X114386Y380839D02*
X108295Y374749D01*
X117010D01*
Y369902D01*
X117555D01*
G75*
G02*
X122003Y374350I4448J0D01*
G01*
G75*
G02*
X126451Y369902I0J-4448D01*
G01*
X127397D01*
G75*
G02*
X131845Y374350I4448J0D01*
G01*
G75*
G02*
X136293Y369902I0J-4448D01*
G01*
X137240D01*
G75*
G02*
X141688Y374350I4448J0D01*
G01*
G75*
G02*
X146136Y369902I0J-4448D01*
G01*
X146438D01*
X147138Y370602D01*
G75*
G02*
X155978Y369902I4393J-700D01*
G01*
X156925D01*
G75*
G02*
X161373Y374350I4448J0D01*
G01*
G75*
G02*
X165821Y369902I0J-4448D01*
G01*
X166767D01*
G75*
G02*
X171215Y374350I4448J0D01*
G01*
G75*
G02*
X175663Y369902I0J-4448D01*
G01*
X176610D01*
G75*
G02*
X181058Y374350I4448J0D01*
G01*
G75*
G02*
X185506Y369902I0J-4448D01*
G01*
X186452D01*
G75*
G02*
X190900Y374350I4448J0D01*
G01*
G75*
G02*
X195348Y369902I0J-4448D01*
G01*
X196295D01*
G75*
G02*
X196641Y371623I4445J1D01*
G01*
X191176Y377088D01*
X120085D01*
G75*
G02*
X114987Y378688I-2298J1600D01*
G01*
G75*
G02*
X115995Y380839I2801J0D01*
G01*
X114386D01*
G37*
X119580D02*
G36*
X119580Y380839D02*
G75*
G02*
X120085Y380288I-1804J-2160D01*
G01*
X191839D01*
G75*
G02*
X192972Y379818I0J-1599D01*
G01*
X198859Y373931D01*
G75*
G02*
X205191Y369902I1884J-4029D01*
G01*
Y369902D01*
X206137D01*
G75*
G02*
X210585Y374350I4448J0D01*
G01*
G75*
G02*
X215033Y369902I0J-4448D01*
G01*
X215980D01*
Y369902D01*
G75*
G02*
X217365Y373128I4448J0D01*
G01*
X209654Y380839D01*
X119580D01*
G37*
X93754Y344890D02*
Y304714D01*
X96335Y307295D01*
G75*
G02*
X97468Y307765I1133J-1130D01*
G01*
X97839D01*
G75*
G02*
X95569Y311465I1880J3700D01*
G01*
G75*
G02*
X103869I4150J0D01*
G01*
G75*
G02*
X101598Y307765I-4150J0D01*
G01*
X104054D01*
X105971Y309682D01*
G75*
G02*
X108060Y315270I3747J1783D01*
G01*
G75*
G02*
X108530Y316363I1600J-39D01*
G01*
X109488Y317322D01*
G75*
G02*
X105569Y321465I231J4144D01*
G01*
G75*
G02*
X111295Y325304I4150J0D01*
G01*
X114000Y328009D01*
Y333505D01*
X113552Y333056D01*
G75*
G02*
X113869Y331465I-3833J-1591D01*
G01*
G75*
G02*
X105569I-4150J0D01*
G01*
G75*
G02*
X111280Y335310I4150J0D01*
G01*
X112436Y336466D01*
Y337316D01*
X105569D01*
Y345615D01*
X108119D01*
Y357617D01*
G75*
G02*
X108589Y358750I1600J0D01*
G01*
X114891Y365052D01*
X107313D01*
Y373767D01*
X107196Y373649D01*
Y356806D01*
G75*
G02*
X106726Y355674I-1600J0D01*
G01*
X98913Y347861D01*
G75*
G02*
X97781Y347391I-1133J1130D01*
G01*
X96255D01*
X93754Y344890D01*
X95569Y321465D02*
G75*
G02*
X103869I4150J0D01*
G01*
G75*
G02*
X95569I-4150J0D01*
G01*
Y331465D02*
G75*
G02*
X103869I4150J0D01*
G01*
G75*
G02*
X95569I-4150J0D01*
G01*
X95569Y345615D02*
X103868D01*
Y337316D01*
X95569D01*
Y345615D01*
X94354Y321465D02*
G36*
X94354Y321465D02*
Y305314D01*
X96335Y307295D01*
G75*
G02*
X97468Y307765I1132J-1129D01*
G01*
X97839D01*
G75*
G02*
X95569Y311465I1880J3700D01*
G01*
G75*
G02*
X103869I4150J0D01*
G01*
G75*
G02*
X101598Y307765I-4151J0D01*
G01*
X104054D01*
X105971Y309682D01*
G75*
G02*
X105569Y311466I3747J1783D01*
G01*
G75*
G02*
X108060Y315270I4150J0D01*
G01*
G75*
G02*
X108530Y316363I1602J-40D01*
G01*
X109488Y317322D01*
G75*
G02*
X105569Y321465I230J4143D01*
G01*
Y321465D01*
X103869D01*
G75*
G02*
X95569I-4150J0D01*
G01*
X94354D01*
G37*
Y331465D02*
G36*
X94354Y331465D02*
Y321465D01*
X95569D01*
G75*
G02*
X103869I4150J0D01*
G01*
X105569D01*
G75*
G02*
X111295Y325304I4150J0D01*
G01*
X114000Y328009D01*
Y331465D01*
X113869D01*
G75*
G02*
X105569I-4150J0D01*
G01*
X103869D01*
G75*
G02*
X95569I-4150J0D01*
G01*
X94354D01*
G37*
Y341465D02*
G36*
X94354Y341465D02*
Y331465D01*
X95569D01*
G75*
G02*
X103869I4150J0D01*
G01*
X105569D01*
G75*
G02*
X111280Y335310I4150J0D01*
G01*
X112436Y336466D01*
Y337316D01*
X105569D01*
Y341465D01*
X103868D01*
Y337316D01*
X95569D01*
Y341465D01*
X94354D01*
G37*
X113869Y331466D02*
G36*
X113869Y331466D02*
G75*
G02*
Y331465I-5013J0D01*
G01*
X114000D01*
Y333505D01*
X113552Y333056D01*
G75*
G02*
X113869Y331466I-3831J-1590D01*
G01*
G37*
X94354Y345490D02*
G36*
X94354Y345490D02*
Y341465D01*
X95569D01*
Y345615D01*
X103868D01*
Y341465D01*
X105569D01*
Y345615D01*
X108119D01*
Y357617D01*
Y357618D01*
G75*
G02*
X108589Y358750I1599J0D01*
G01*
X114291Y364452D01*
Y365052D01*
X107313D01*
Y373167D01*
X107196D01*
Y356806D01*
Y356806D01*
G75*
G02*
X106726Y355674I-1599J0D01*
G01*
X98913Y347861D01*
G75*
G02*
X97781Y347391I-1132J1129D01*
G01*
X96255D01*
X94354Y345490D01*
G37*
X117199Y217846D02*
Y210020D01*
X122439D01*
Y218297D01*
G75*
G02*
X117199Y217846I-2776J1591D01*
G01*
G36*
X117199Y217846D02*
Y210020D01*
X122439D01*
Y218297D01*
G75*
G02*
X117199Y217846I-2776J1591D01*
G01*
G37*
X127202Y176539D02*
Y138337D01*
X142569Y122970D01*
G75*
G02*
X143537Y125787I2726J637D01*
G01*
G75*
G02*
X143080Y128875I2070J1885D01*
G01*
X132912Y139043D01*
G75*
G02*
X132442Y140176I1130J1133D01*
G01*
Y175006D01*
G75*
G02*
X127202Y176539I-2151J2369D01*
G01*
G36*
X127202Y176539D02*
Y138337D01*
X142569Y122970D01*
G75*
G02*
X143537Y125787I2726J637D01*
G01*
G75*
G02*
X143080Y128875I2070J1885D01*
G01*
X132912Y139043D01*
G75*
G02*
X132442Y140176I1130J1133D01*
G01*
Y175006D01*
G75*
G02*
X127202Y176539I-2151J2369D01*
G01*
G37*
Y194045D02*
Y178210D01*
G75*
G02*
X132442Y179744I3089J-835D01*
G01*
Y192511D01*
G75*
G02*
X127202Y194045I-2151J2369D01*
G01*
G36*
X127202Y194045D02*
Y178210D01*
G75*
G02*
X132442Y179744I3089J-835D01*
G01*
Y192511D01*
G75*
G02*
X127202Y194045I-2151J2369D01*
G01*
G37*
X140163Y311537D02*
G75*
G02*
X140020Y311515I-493J2758D01*
G01*
X142987Y308548D01*
G75*
G02*
X143457Y307416I-1130J-1133D01*
G01*
Y286196D01*
X146738Y282915D01*
G75*
G02*
X147208Y281783I-1130J-1133D01*
G01*
Y280757D01*
X154012D01*
Y290498D01*
X150478Y294031D01*
G75*
G02*
X147185Y296787I-494J2756D01*
G01*
G75*
G02*
X149949Y299587I2800J0D01*
G01*
G75*
G02*
Y299601I1621J7D01*
G01*
Y301751D01*
X140163Y311537D01*
G36*
X140163Y311537D02*
G75*
G02*
X140020Y311515I-493J2758D01*
G01*
X142987Y308548D01*
G75*
G02*
X143457Y307416I-1130J-1133D01*
G01*
Y286196D01*
X146738Y282915D01*
G75*
G02*
X147208Y281783I-1130J-1133D01*
G01*
Y280757D01*
X154012D01*
Y290498D01*
X150478Y294031D01*
G75*
G02*
X147185Y296787I-494J2756D01*
G01*
G75*
G02*
X149949Y299587I2800J0D01*
G01*
G75*
G02*
Y299601I1621J7D01*
G01*
Y301751D01*
X140163Y311537D01*
G37*
X146738Y199687D02*
X144908Y197857D01*
G75*
G02*
X146711Y194335I-862J-2663D01*
G01*
G75*
G02*
X149396Y189457I1086J-2581D01*
G01*
Y178735D01*
G75*
G02*
Y174139I-1600J-2298D01*
G01*
Y150841D01*
X152448Y147789D01*
Y201221D01*
X147208D01*
Y200820D01*
G75*
G02*
X146738Y199687I-1600J0D01*
G01*
G36*
X146738Y199687D02*
X144908Y197857D01*
G75*
G02*
X146711Y194335I-862J-2663D01*
G01*
G75*
G02*
X149396Y189457I1086J-2581D01*
G01*
Y178735D01*
G75*
G02*
Y174139I-1600J-2298D01*
G01*
Y150841D01*
X152448Y147789D01*
Y201221D01*
X147208D01*
Y200820D01*
G75*
G02*
X146738Y199687I-1600J0D01*
G01*
G37*
X147208Y271556D02*
Y210422D01*
X152448D01*
Y213926D01*
G75*
G02*
X149634Y218747I-1213J2524D01*
G01*
Y266153D01*
G75*
G02*
X150104Y267286I1600J0D01*
G01*
X154012Y271192D01*
Y271556D01*
X147208D01*
G36*
X147208Y271556D02*
Y210422D01*
X152448D01*
Y213926D01*
G75*
G02*
X149634Y218747I-1213J2524D01*
G01*
Y266153D01*
G75*
G02*
X150104Y267286I1600J0D01*
G01*
X154012Y271192D01*
Y271556D01*
X147208D01*
G37*
D02*
D11*
X99719Y279015D02*
Y276915D01*
Y283915D02*
Y286015D01*
X102169Y281465D02*
X104269D01*
X107269D02*
X105169D01*
X109412Y369902D02*
X107313D01*
X109719Y279015D02*
Y276915D01*
Y283915D02*
Y286015D01*
X111447Y61713D02*
X109348D01*
X112160Y367154D02*
Y365052D01*
Y372650D02*
Y374749D01*
X112169Y281465D02*
X114269D01*
X114195Y58965D02*
Y56863D01*
Y64461D02*
Y66560D01*
X114908Y369902D02*
X117010D01*
X116943Y61713D02*
X119041D01*
X117312Y294287D02*
X115212D01*
X118412Y293187D02*
Y291087D01*
Y295387D02*
Y297487D01*
X119512Y294287D02*
X121612D01*
X119663Y218788D02*
Y216688D01*
Y220988D02*
Y223088D01*
X120126Y125796D02*
X118026D01*
X121226Y124696D02*
Y122596D01*
Y126896D02*
Y128996D01*
X122326Y125796D02*
X124426D01*
X128253Y73905D02*
X126153D01*
X129353Y72805D02*
Y70705D01*
X130291Y176275D02*
Y174175D01*
Y178475D02*
Y180575D01*
Y193780D02*
Y191680D01*
X130453Y73905D02*
X132553D01*
X138256Y338050D02*
X136156D01*
X139356Y336950D02*
Y334850D01*
Y339150D02*
Y341250D01*
X140456Y338050D02*
X142556D01*
X143570Y98287D02*
X141470D01*
X144670Y97187D02*
Y95087D01*
Y99387D02*
Y101487D01*
X145770Y98287D02*
X147870D01*
X149719Y203321D02*
Y201221D01*
Y208321D02*
Y210422D01*
Y273656D02*
Y271556D01*
Y278656D02*
Y280757D01*
X150135Y107978D02*
X148035D01*
X151235Y106878D02*
Y104778D01*
Y109078D02*
Y111178D01*
X152335Y107978D02*
X154435D01*
X168541Y61713D02*
X166441D01*
X172027Y58227D02*
Y56127D01*
Y65200D02*
Y67300D01*
X182807Y111254D02*
Y109154D01*
Y113454D02*
Y115554D01*
X183907Y112354D02*
X186007D01*
X212617Y61713D02*
X210518D01*
X215634Y113286D02*
X213534D01*
X216104Y58227D02*
Y56127D01*
Y65200D02*
Y67300D01*
X218134Y110786D02*
Y108686D01*
Y115786D02*
Y117886D01*
X220634Y113286D02*
X222734D01*
D02*
D12*
X186871Y93598D02*
X218134D01*
Y93286D01*
D02*
D13*
X186871Y93598D03*
D02*
D14*
X96843Y131423D03*
X98093Y356494D03*
X114974Y257087D03*
X117787Y378688D03*
X118412Y264539D03*
Y294287D03*
X119663Y219888D03*
X121226Y125796D03*
X128728Y303665D03*
X129041Y313355D03*
Y333987D03*
X129353Y73905D03*
X130291Y177375D03*
Y194880D03*
X132167Y242708D03*
Y324609D03*
Y328672D03*
X133417Y84533D03*
X134355Y124546D03*
Y307728D03*
X136543Y255212D03*
X137168Y303665D03*
X139356Y338050D03*
X139669Y251773D03*
Y314293D03*
Y318815D03*
X140607Y238019D03*
X141544Y90160D03*
X143420Y77969D03*
X144045Y178938D03*
Y195193D03*
X144670Y98287D03*
Y112354D03*
X145296Y123608D03*
X145608Y127672D03*
X147796Y77969D03*
Y176437D03*
Y191754D03*
X149047Y131110D03*
X149985Y296787D03*
X151235Y107978D03*
Y216450D03*
X152173Y140801D03*
X153423Y77969D03*
X154048Y248647D03*
Y306478D03*
X155381Y131735D03*
X156862Y236143D03*
X159675Y145177D03*
X160926Y139550D03*
X166552Y226453D03*
X168115Y72342D03*
X174055Y345254D03*
X179369Y156431D03*
Y166434D03*
X179994Y321465D03*
Y331446D03*
X182182Y126734D03*
X182807Y112354D03*
X184370Y339301D03*
D02*
D15*
X98093Y356494D02*
X90278Y348679D01*
Y242083D01*
X95905Y236456D01*
X104415D01*
X109406Y231465D01*
X109719D01*
X99719Y211465D02*
X102157D01*
Y211761D01*
X104658D01*
X99719Y291465D02*
X109719D01*
X99719Y301465D02*
X109719D01*
X104658Y211761D02*
X109406D01*
Y211465D01*
X109719D01*
Y331465D02*
Y331486D01*
X114036Y335803D01*
Y346237D01*
X131845Y364046D01*
Y369902D01*
X109719Y341465D02*
Y357617D01*
X122003Y369902D01*
X114974Y257087D02*
Y257400D01*
X96530D01*
X94030Y259901D01*
Y302727D01*
X97468Y306165D01*
X104717D01*
X109719Y311167D01*
Y311465D01*
X118412Y264539D02*
Y256462D01*
X115599Y253649D01*
Y97037D01*
X128103Y84533D01*
X133417D01*
X124037Y61713D02*
X123727D01*
X131854Y53586D01*
X153736D01*
X179369Y79219D01*
Y135487D01*
X184370Y140488D01*
Y339301D01*
X128728Y303665D02*
X124039Y298976D01*
Y134861D01*
X134355Y124546D01*
X129041Y313355D02*
X129978D01*
X131541Y311792D01*
Y302414D01*
X126540Y297413D01*
Y283658D01*
X125602Y282720D01*
Y137675D01*
X143107Y120169D01*
X144670D01*
Y112354D01*
X129041Y313355D02*
Y333987D01*
X129719Y205821D02*
Y240260D01*
X132167Y242708D01*
Y324609D02*
Y314606D01*
X139981Y306791D01*
Y284283D01*
X144045Y280220D01*
Y201757D01*
X139669Y197381D01*
Y147678D01*
X155381Y131965D01*
Y131735D01*
X132167Y328672D02*
X132479D01*
X136856Y324296D01*
Y312417D01*
X141857Y307416D01*
Y285534D01*
X145608Y281783D01*
Y200820D01*
X141232Y196443D01*
Y152992D01*
X152173Y142051D01*
Y140801D01*
X133880Y61713D02*
Y61876D01*
X127478Y68278D01*
X122163D01*
X100281Y90160D01*
Y136424D01*
X104658Y140801D01*
Y211761D01*
X134355Y307728D02*
Y302414D01*
X130291Y298350D01*
Y276156D01*
X129719D01*
X139669Y251773D02*
Y241770D01*
X135605Y237706D01*
Y144552D01*
X149047Y131110D01*
X139719Y205821D02*
Y206660D01*
X139669Y206709D01*
Y237081D01*
X140607Y238019D01*
X139719Y276156D02*
X139669D01*
X134667Y281157D01*
Y299601D01*
X137168Y302102D01*
Y303665D01*
X141544Y90160D02*
Y90472D01*
X157174D01*
X163739Y97037D01*
Y293974D01*
X160926Y296787D01*
X157800D01*
X154048Y300539D01*
Y306478D01*
X141688Y369902D02*
Y369141D01*
X115599Y343052D01*
Y327346D01*
X109719Y321465D01*
X143420Y77969D02*
X126227D01*
X114036Y90160D01*
Y256150D01*
X114974Y257087D01*
X144045Y178938D02*
Y195193D01*
X145296Y123608D02*
X151548D01*
X158112Y130172D01*
Y139863D01*
X147796Y150179D01*
Y176437D01*
X145608Y127672D02*
Y128609D01*
X134042Y140176D01*
Y239269D01*
X136543Y241770D01*
Y255212D01*
X147796Y77969D02*
Y66724D01*
X143722Y62650D01*
Y61713D01*
X147796Y176437D02*
Y191754D01*
X149985Y296787D02*
X155611Y291161D01*
Y270529D01*
X151235Y266153D01*
Y216450D01*
X151530Y369902D02*
X148700D01*
X117162Y338363D01*
Y322733D01*
X109659Y315231D01*
Y311465D01*
X109719D01*
X159675Y145177D02*
X155611Y149241D01*
Y236143D01*
X156862D01*
X159719Y291465D02*
X159683D01*
X151548Y299601D01*
Y302414D01*
X139669Y314293D01*
X160926Y139550D02*
Y139863D01*
X154048Y146740D01*
Y248647D01*
X166552Y226453D02*
X165615D01*
Y312730D01*
X161551Y316794D01*
X141544D01*
X139669Y318669D01*
Y318815D01*
X168115Y72342D02*
Y120170D01*
X174367Y126422D01*
Y154555D01*
X172492Y156431D01*
X167490D01*
X165615Y158306D01*
Y226453D01*
X166552D01*
X169719Y151465D02*
X169678D01*
X165615Y147402D01*
Y80509D01*
X163074Y77969D01*
X153423D01*
X169719Y171465D02*
Y173039D01*
X175618Y178938D01*
Y341176D01*
X176868Y342427D01*
Y351492D01*
X161373Y366987D01*
Y369902D01*
X169719Y181465D02*
Y181439D01*
X174055Y185775D01*
Y345254D01*
X171215Y369902D02*
X171241D01*
Y363996D01*
X179056Y356181D01*
Y342114D01*
X177181Y340239D01*
Y168894D01*
X169719Y161432D01*
Y161465D01*
X179369Y156431D02*
Y157369D01*
X182807Y160807D01*
Y328672D01*
X179994Y331486D01*
Y331446D01*
X179369Y166434D02*
X179994Y167059D01*
Y321465D01*
X200743Y369902D02*
X200626D01*
X191839Y378688D01*
X117787D01*
X220428Y369902D02*
Y372328D01*
X210316Y382439D01*
X113723D01*
X105596Y374312D01*
Y356806D01*
X97781Y348991D01*
X95593D01*
X92154Y345553D01*
Y250835D01*
X96530Y246459D01*
X105596D01*
X109719Y250582D01*
Y251465D01*
X225946Y61713D02*
Y55149D01*
X220007Y49209D01*
X104970D01*
X96843Y57337D01*
Y131423D01*
X228134Y113286D02*
X221563Y119857D01*
X186246D01*
X182182Y123920D01*
Y126734D01*
D02*
D16*
X99719Y341465D03*
X109719D03*
D02*
D17*
X99719Y151465D03*
Y161465D03*
Y171465D03*
Y181465D03*
Y191465D03*
Y201465D03*
Y211465D03*
Y221465D03*
Y231465D03*
Y241465D03*
Y251465D03*
Y261465D03*
Y271465D03*
Y281465D03*
Y291465D03*
Y301465D03*
Y311465D03*
Y321465D03*
Y331465D03*
X109719Y151465D03*
Y161465D03*
Y171465D03*
Y181465D03*
Y191465D03*
Y201465D03*
Y211465D03*
Y221465D03*
Y231465D03*
Y241465D03*
Y251465D03*
Y261465D03*
Y271465D03*
Y281465D03*
Y291465D03*
Y301465D03*
Y311465D03*
Y321465D03*
Y331465D03*
X159719Y151465D03*
Y161465D03*
Y171465D03*
Y181465D03*
Y191465D03*
Y201465D03*
Y211465D03*
Y221465D03*
Y231465D03*
Y241465D03*
Y251465D03*
Y261465D03*
Y271465D03*
Y281465D03*
Y291465D03*
Y301465D03*
Y311465D03*
Y321465D03*
Y331465D03*
Y341465D03*
X169719Y151465D03*
Y161465D03*
Y171465D03*
Y181465D03*
Y191465D03*
Y201465D03*
Y211465D03*
Y221465D03*
Y231465D03*
Y241465D03*
Y251465D03*
Y261465D03*
Y271465D03*
Y281465D03*
Y291465D03*
Y301465D03*
Y311465D03*
Y321465D03*
Y331465D03*
Y341465D03*
D02*
D18*
X112160Y369902D03*
X114195Y61713D03*
D02*
D19*
X122003Y369902D03*
X124037Y61713D03*
X131845Y369902D03*
X133880Y61713D03*
X141688Y369902D03*
X143722Y61713D03*
X151530Y369902D03*
X161373D03*
X171215D03*
X181058D03*
X190900D03*
X200743D03*
X210585D03*
X220428D03*
D02*
D70*
X172027Y61713D03*
X216104D03*
D02*
D71*
X181870D03*
X225946D03*
D02*
D20*
X218134Y93286D03*
Y103286D03*
Y113286D03*
X228134Y93286D03*
Y103286D03*
Y113286D03*
D02*
D21*
X119719Y205821D03*
Y276156D03*
X129719Y205821D03*
Y276156D03*
X139719Y205821D03*
Y276156D03*
X149719Y205821D03*
Y276156D03*
X0Y0D02*
M02*
