G04 DesignSpark PCB Gerber Version 11.0 Build 5877*
%FSLAX35Y35*%
%MOIN*%
%ADD28C,0.00500*%
%ADD10C,0.01200*%
X0Y0D02*
D02*
D10*
X87779Y25765D02*
Y387128D01*
X242514D01*
Y353055D01*
X189685D01*
Y124858D01*
X242514D01*
Y25765D01*
X87779D01*
D02*
D28*
X218756Y51710D02*
X218444Y51085D01*
X217819Y50772D01*
X216569D01*
X215944Y51085D01*
X215631Y51710D01*
X215944Y52335D01*
X216569Y52647D01*
X217819D01*
X218444Y52960D01*
X218756Y53585D01*
X218444Y54210D01*
X217819Y54522D01*
X216569D01*
X215944Y54210D01*
X215631Y53585D01*
X213756Y50772D02*
Y54522D01*
Y52647D02*
X212819D01*
X210631Y54522D01*
X212819Y52647D02*
X210631Y50772D01*
X206569Y52335D02*
X205631D01*
Y52022D01*
X205944Y51397D01*
X206256Y51085D01*
X206881Y50772D01*
X207506D01*
X208131Y51085D01*
X208444Y51397D01*
X208756Y52022D01*
Y53272D01*
X208444Y53897D01*
X208131Y54210D01*
X207506Y54522D01*
X206881D01*
X206256Y54210D01*
X205944Y53897D01*
X205631Y53272D01*
X200631Y51397D02*
X200944Y51085D01*
X201569Y50772D01*
X202506D01*
X203131Y51085D01*
X203444Y51397D01*
X203756Y52022D01*
Y53272D01*
X203444Y53897D01*
X203131Y54210D01*
X202506Y54522D01*
X201569D01*
X200944Y54210D01*
X200631Y53897D01*
X198756Y50772D02*
X195631D01*
X192819Y52647D02*
X192194D01*
X191569Y52960D01*
X191256Y53585D01*
X191569Y54210D01*
X192194Y54522D01*
X192819D01*
X193444Y54210D01*
X193756Y53585D01*
X193444Y52960D01*
X192819Y52647D01*
X193444Y52335D01*
X193756Y51710D01*
X193444Y51085D01*
X192819Y50772D01*
X192194D01*
X191569Y51085D01*
X191256Y51710D01*
X191569Y52335D01*
X192194Y52647D01*
X186256Y50772D02*
X188756D01*
X186569Y52960D01*
X186256Y53585D01*
X186569Y54210D01*
X187194Y54522D01*
X188131D01*
X188756Y54210D01*
X183756Y51085D02*
X183131Y50772D01*
X182194D01*
X181569Y51085D01*
X181256Y51710D01*
Y52022D01*
X181569Y52647D01*
X182194Y52960D01*
X183756D01*
Y54522D01*
X181256D01*
X178756Y51085D02*
X178131Y50772D01*
X177194D01*
X176569Y51085D01*
X176256Y51710D01*
Y52022D01*
X176569Y52647D01*
X177194Y52960D01*
X178756D01*
Y54522D01*
X176256D01*
X218756Y44772D02*
Y48522D01*
X217194Y46647D01*
X215631Y48522D01*
Y44772D01*
X213756Y48522D02*
X210631D01*
X213756Y44772D01*
X210631D01*
X208756Y46022D02*
X206256D01*
X202819Y46647D02*
X202194D01*
X201569Y46960D01*
X201256Y47585D01*
X201569Y48210D01*
X202194Y48522D01*
X202819D01*
X203444Y48210D01*
X203756Y47585D01*
X203444Y46960D01*
X202819Y46647D01*
X203444Y46335D01*
X203756Y45710D01*
X203444Y45085D01*
X202819Y44772D01*
X202194D01*
X201569Y45085D01*
X201256Y45710D01*
X201569Y46335D01*
X202194Y46647D01*
X198444Y45085D02*
X197819Y44772D01*
X197194D01*
X196569Y45085D01*
X196256Y45710D01*
Y47585D01*
X196569Y48210D01*
X197194Y48522D01*
X197819D01*
X198444Y48210D01*
X198756Y47585D01*
Y45710D01*
X198444Y45085D01*
X196569Y48210D01*
X191569Y46647D02*
X190944Y46335D01*
X190631Y45710D01*
X190944Y45085D01*
X191569Y44772D01*
X193756D01*
Y48522D01*
X191569D01*
X190944Y48210D01*
X190631Y47585D01*
X190944Y46960D01*
X191569Y46647D01*
X193756D01*
X183235Y47272D02*
X181777D01*
X182506Y47897D02*
Y45085D01*
X182194Y44772D01*
X181881D01*
X181569Y45085D01*
X178756Y45710D02*
X178444Y45085D01*
X177819Y44772D01*
X177194D01*
X176569Y45085D01*
X176256Y45710D01*
Y46335D01*
X176569Y46960D01*
X177194Y47272D01*
X177819D01*
X178444Y46960D01*
X178756Y46335D01*
Y45710D01*
X168756Y44772D02*
Y48522D01*
X167194Y46647D01*
X165631Y48522D01*
Y44772D01*
X163756Y48522D02*
X160631D01*
X163756Y44772D01*
X160631D01*
X158756Y46022D02*
X156256D01*
X151256Y44772D02*
X153756D01*
X151569Y46960D01*
X151256Y47585D01*
X151569Y48210D01*
X152194Y48522D01*
X153131D01*
X153756Y48210D01*
X146256Y44772D02*
X148756D01*
X146569Y46960D01*
X146256Y47585D01*
X146569Y48210D01*
X147194Y48522D01*
X148131D01*
X148756Y48210D01*
X143444Y45085D02*
X142819Y44772D01*
X142194D01*
X141569Y45085D01*
X141256Y45710D01*
Y47585D01*
X141569Y48210D01*
X142194Y48522D01*
X142819D01*
X143444Y48210D01*
X143756Y47585D01*
Y45710D01*
X143444Y45085D01*
X141569Y48210D01*
X138444Y45085D02*
X137819Y44772D01*
X137194D01*
X136569Y45085D01*
X136256Y45710D01*
Y47585D01*
X136569Y48210D01*
X137194Y48522D01*
X137819D01*
X138444Y48210D01*
X138756Y47585D01*
Y45710D01*
X138444Y45085D01*
X136569Y48210D01*
X128756Y47272D02*
Y43835D01*
Y45710D02*
X128444Y45085D01*
X127819Y44772D01*
X127194D01*
X126569Y45085D01*
X126256Y45710D01*
Y46335D01*
X126569Y46960D01*
X127194Y47272D01*
X127819D01*
X128444Y46960D01*
X128756Y46335D01*
Y45710D01*
X123756Y44772D02*
Y47272D01*
Y46335D02*
X123444Y46960D01*
X122819Y47272D01*
X122194D01*
X121569Y46960D01*
X118756Y45710D02*
X118444Y45085D01*
X117819Y44772D01*
X117194D01*
X116569Y45085D01*
X116256Y45710D01*
Y46335D01*
X116569Y46960D01*
X117194Y47272D01*
X117819D01*
X118444Y46960D01*
X118756Y46335D01*
Y45710D01*
X113444Y44147D02*
X112819Y43835D01*
X112194Y44147D01*
X111881Y44772D01*
Y47272D01*
Y48210D02*
X106256Y45085D02*
X106569Y44772D01*
X107194D01*
X107819D01*
X108444Y45085D01*
X108756Y45710D01*
Y46647D01*
X108444Y46960D01*
X107819Y47272D01*
X107194D01*
X106569Y46960D01*
X106256Y46647D01*
Y46335D01*
X106569Y46022D01*
X107194Y45710D01*
X107819D01*
X108444Y46022D01*
X108756Y46335D01*
X101256Y46960D02*
X101881Y47272D01*
X102819D01*
X103444Y46960D01*
X103756Y46335D01*
Y45710D01*
X103444Y45085D01*
X102819Y44772D01*
X101881D01*
X101256Y45085D01*
X98235Y47272D02*
X96777D01*
X97506Y47897D02*
Y45085D01*
X97194Y44772D01*
X96881D01*
X96569Y45085D01*
X216569Y38772D02*
X217194Y39710D01*
Y41897D01*
X216569Y42522D01*
X211256Y40960D02*
X211881Y41272D01*
X212819D01*
X213444Y40960D01*
X213756Y40335D01*
Y39710D01*
X213444Y39085D01*
X212819Y38772D01*
X211881D01*
X211256Y39085D01*
X207819Y38772D02*
X207194Y39710D01*
Y41897D01*
X207819Y42522D01*
X196256Y38772D02*
X198756D01*
X196569Y40960D01*
X196256Y41585D01*
X196569Y42210D01*
X197194Y42522D01*
X198131D01*
X198756Y42210D01*
X193444Y39085D02*
X192819Y38772D01*
X192194D01*
X191569Y39085D01*
X191256Y39710D01*
Y41585D01*
X191569Y42210D01*
X192194Y42522D01*
X192819D01*
X193444Y42210D01*
X193756Y41585D01*
Y39710D01*
X193444Y39085D01*
X191569Y42210D01*
X186256Y38772D02*
X188756D01*
X186569Y40960D01*
X186256Y41585D01*
X186569Y42210D01*
X187194Y42522D01*
X188131D01*
X188756Y42210D01*
X182194Y38772D02*
Y42522D01*
X183756Y40022D01*
X181256D01*
X177506Y38772D02*
X177194Y39085D01*
Y39397D01*
X167194Y38772D02*
Y42522D01*
X168756D02*
X165631D01*
X163756Y40960D02*
X163131Y41272D01*
X162194D01*
X161569Y40960D01*
X161256Y40335D01*
Y39397D01*
X161569Y39085D01*
X162194Y38772D01*
X162819D01*
X163444Y39085D01*
X163756Y39397D01*
Y39710D01*
X163444Y40022D01*
X162819Y40335D01*
X162194D01*
X161569Y40022D01*
X161256Y39710D01*
Y39397D02*
Y38772D01*
X158756D02*
Y42522D01*
Y40022D02*
X157819D01*
X156256Y41272D01*
X157819Y40022D02*
X156256Y38772D01*
X153756Y41272D02*
Y39710D01*
X153444Y39085D01*
X152819Y38772D01*
X152194D01*
X151569Y39085D01*
X151256Y39710D01*
Y41272D02*
Y38772D01*
X148756Y41272D02*
X148444Y40022D01*
X147819Y39397D01*
X147194D01*
X146569Y40022D01*
X146256Y41272D01*
X146569Y40022D02*
X146881Y38772D01*
X147194Y38147D01*
X147819Y37835D01*
X148444Y38147D01*
X143756Y40960D02*
X143131Y41272D01*
X142194D01*
X141569Y40960D01*
X141256Y40335D01*
Y39397D01*
X141569Y39085D01*
X142194Y38772D01*
X142819D01*
X143444Y39085D01*
X143756Y39397D01*
Y39710D01*
X143444Y40022D01*
X142819Y40335D01*
X142194D01*
X141569Y40022D01*
X141256Y39710D01*
Y39397D02*
Y38772D01*
X133756D02*
Y42522D01*
X130631D01*
X131256Y40647D02*
X133756D01*
X128756Y41272D02*
Y39710D01*
X128444Y39085D01*
X127819Y38772D01*
X127194D01*
X126569Y39085D01*
X126256Y39710D01*
Y41272D02*
Y38772D01*
X123756D02*
Y42522D01*
Y40022D02*
X122819D01*
X121256Y41272D01*
X122819Y40022D02*
X121256Y38772D01*
X118756Y41272D02*
Y39710D01*
X118444Y39085D01*
X117819Y38772D01*
X117194D01*
X116569Y39085D01*
X116256Y39710D01*
Y41272D02*
Y38772D01*
X111256Y40335D02*
X111569Y40960D01*
X112194Y41272D01*
X112819D01*
X113444Y40960D01*
X113756Y40335D01*
Y39710D01*
X113444Y39085D01*
X112819Y38772D01*
X112194D01*
X111569Y39085D01*
X111256Y39710D01*
Y38772D02*
Y42522D01*
X108756Y40960D02*
X108131Y41272D01*
X107194D01*
X106569Y40960D01*
X106256Y40335D01*
Y39397D01*
X106569Y39085D01*
X107194Y38772D01*
X107819D01*
X108444Y39085D01*
X108756Y39397D01*
Y39710D01*
X108444Y40022D01*
X107819Y40335D01*
X107194D01*
X106569Y40022D01*
X106256Y39710D01*
Y39397D02*
Y38772D01*
X102506D02*
X102194Y39085D01*
Y39397D01*
X215944Y33085D02*
X216569Y32772D01*
X217819D01*
X218444Y33085D01*
X218756Y33710D01*
Y35585D01*
X218444Y36210D01*
X217819Y36522D01*
X216881D01*
X216256Y36210D01*
X215944Y35585D01*
Y34022D01*
X216256Y33710D01*
X216569Y34022D01*
Y35272D01*
X216881Y35585D01*
X217819D01*
X218131Y35272D01*
Y34022D01*
X217819Y33710D01*
X216881D01*
X216569Y34022D01*
X213756Y32772D02*
Y36522D01*
Y34022D02*
X212819D01*
X211256Y35272D01*
X212819Y34022D02*
X211256Y32772D01*
X207506D02*
Y35272D01*
Y36210D02*
X203235Y35272D02*
X201777D01*
X202506Y35897D02*
Y33085D01*
X202194Y32772D01*
X201881D01*
X201569Y33085D01*
X198756Y34960D02*
X198131Y35272D01*
X197194D01*
X196569Y34960D01*
X196256Y34335D01*
Y33397D01*
X196569Y33085D01*
X197194Y32772D01*
X197819D01*
X198444Y33085D01*
X198756Y33397D01*
Y33710D01*
X198444Y34022D01*
X197819Y34335D01*
X197194D01*
X196569Y34022D01*
X196256Y33710D01*
Y33397D02*
Y32772D01*
X193756D02*
Y36522D01*
Y34335D02*
X193444Y34960D01*
X192819Y35272D01*
X192194D01*
X191569Y34960D01*
X191256Y34335D01*
Y32772D01*
X186256Y33085D02*
X186569Y32772D01*
X187194D01*
X187819D01*
X188444Y33085D01*
X188756Y33710D01*
Y34647D01*
X188444Y34960D01*
X187819Y35272D01*
X187194D01*
X186569Y34960D01*
X186256Y34647D01*
Y34335D01*
X186569Y34022D01*
X187194Y33710D01*
X187819D01*
X188444Y34022D01*
X188756Y34335D01*
X182506Y32772D02*
Y35272D01*
Y36210D02*
X177819Y34647D02*
X177194D01*
X176569Y34960D01*
X176256Y35585D01*
X176569Y36210D01*
X177194Y36522D01*
X177819D01*
X178444Y36210D01*
X178756Y35585D01*
X178444Y34960D01*
X177819Y34647D01*
X178444Y34335D01*
X178756Y33710D01*
X178444Y33085D01*
X177819Y32772D01*
X177194D01*
X176569Y33085D01*
X176256Y33710D01*
X176569Y34335D01*
X177194Y34647D01*
X172819D02*
X172194D01*
X171569Y34960D01*
X171256Y35585D01*
X171569Y36210D01*
X172194Y36522D01*
X172819D01*
X173444Y36210D01*
X173756Y35585D01*
X173444Y34960D01*
X172819Y34647D01*
X173444Y34335D01*
X173756Y33710D01*
X173444Y33085D01*
X172819Y32772D01*
X172194D01*
X171569Y33085D01*
X171256Y33710D01*
X171569Y34335D01*
X172194Y34647D01*
X0Y0D02*
M02*
