G04 DesignSpark PCB Gerber Version 11.0 Build 5877*
%FSLAX35Y35*%
%MOIN*%
%ADD72C,0.01600*%
%ADD29C,0.02400*%
%ADD77C,0.03500*%
%ADD73C,0.03900*%
%ADD76C,0.04000*%
%ADD74C,0.04331*%
%ADD75C,0.05315*%
X0Y0D02*
D02*
D29*
X186871Y93598D03*
D02*
D72*
X96843Y131423D03*
X98093Y356494D03*
X114974Y257087D03*
X117787Y378688D03*
X118412Y264539D03*
Y294287D03*
X119663Y219888D03*
X121226Y125796D03*
X128728Y303665D03*
X129041Y313355D03*
Y333987D03*
X129353Y73905D03*
X130291Y177375D03*
Y194880D03*
X132167Y242708D03*
Y324609D03*
Y328672D03*
X133417Y84533D03*
X134355Y124546D03*
Y307728D03*
X136543Y255212D03*
X137168Y303665D03*
X139356Y338050D03*
X139669Y251773D03*
Y314293D03*
Y318815D03*
X140607Y238019D03*
X141544Y90160D03*
X143420Y77969D03*
X144045Y178938D03*
Y195193D03*
X144670Y98287D03*
Y112354D03*
X145296Y123608D03*
X145608Y127672D03*
X147796Y77969D03*
Y176437D03*
Y191754D03*
X149047Y131110D03*
X149985Y296787D03*
X151235Y107978D03*
Y216450D03*
X152173Y140801D03*
X153423Y77969D03*
X154048Y248647D03*
Y306478D03*
X155381Y131735D03*
X156862Y236143D03*
X159675Y145177D03*
X160926Y139550D03*
X166552Y226453D03*
X168115Y72342D03*
X174055Y345254D03*
X179369Y156431D03*
Y166434D03*
X179994Y321465D03*
Y331446D03*
X182182Y126734D03*
X182807Y112354D03*
X184370Y339301D03*
D02*
D73*
X99719Y151465D03*
Y161465D03*
Y171465D03*
Y181465D03*
Y191465D03*
Y201465D03*
Y211465D03*
Y221465D03*
Y231465D03*
Y241465D03*
Y251465D03*
Y261465D03*
Y271465D03*
Y281465D03*
Y291465D03*
Y301465D03*
Y311465D03*
Y321465D03*
Y331465D03*
Y341465D03*
X109719Y151465D03*
Y161465D03*
Y171465D03*
Y181465D03*
Y191465D03*
Y201465D03*
Y211465D03*
Y221465D03*
Y231465D03*
Y241465D03*
Y251465D03*
Y261465D03*
Y271465D03*
Y281465D03*
Y291465D03*
Y301465D03*
Y311465D03*
Y321465D03*
Y331465D03*
Y341465D03*
X159719Y151465D03*
Y161465D03*
Y171465D03*
Y181465D03*
Y191465D03*
Y201465D03*
Y211465D03*
Y221465D03*
Y231465D03*
Y241465D03*
Y251465D03*
Y261465D03*
Y271465D03*
Y281465D03*
Y291465D03*
Y301465D03*
Y311465D03*
Y321465D03*
Y331465D03*
Y341465D03*
X169719Y151465D03*
Y161465D03*
Y171465D03*
Y181465D03*
Y191465D03*
Y201465D03*
Y211465D03*
Y221465D03*
Y231465D03*
Y241465D03*
Y251465D03*
Y261465D03*
Y271465D03*
Y281465D03*
Y291465D03*
Y301465D03*
Y311465D03*
Y321465D03*
Y331465D03*
Y341465D03*
D02*
D74*
X112160Y369902D03*
X114195Y61713D03*
X122003Y369902D03*
X124037Y61713D03*
X131845Y369902D03*
X133880Y61713D03*
X141688Y369902D03*
X143722Y61713D03*
X151530Y369902D03*
X161373D03*
X171215D03*
X181058D03*
X190900D03*
X200743D03*
X210585D03*
X220428D03*
D02*
D75*
X172027Y61713D03*
X181870D03*
X216104D03*
X225946D03*
D02*
D76*
X218134Y93286D03*
Y103286D03*
Y113286D03*
X228134Y93286D03*
Y103286D03*
Y113286D03*
D02*
D77*
X119719Y205821D03*
Y276156D03*
X129719Y205821D03*
Y276156D03*
X139719Y205821D03*
Y276156D03*
X149719Y205821D03*
Y276156D03*
X0Y0D02*
M02*
